<svg width="16" height="16" viewBox="0 0 16 16" fill="none" xmlns="http://www.w3.org/2000/svg">
<path d="M4.47144 0.942824H10.0387C11.7953 0.942824 12.6736 0.942824 13.3446 1.28468C13.9347 1.58539 14.4145 2.06521 14.7153 2.65538C15.0571 3.32631 15.0571 4.20461 15.0571 5.96122V11.5285M3.45208 15.057H9.80348C10.6818 15.057 11.1209 15.057 11.4564 14.8861C11.7515 14.7358 11.9914 14.4959 12.1418 14.2008C12.3127 13.8653 12.3127 13.4262 12.3127 12.5479V6.19645C12.3127 5.31815 12.3127 4.879 12.1418 4.54353C11.9914 4.24845 11.7515 4.00854 11.4564 3.85819C11.1209 3.68726 10.6818 3.68726 9.80348 3.68726H3.45208C2.57378 3.68726 2.13463 3.68726 1.79917 3.85819C1.50408 4.00854 1.26417 4.24845 1.11382 4.54353C0.942888 4.879 0.942888 5.31815 0.942888 6.19645V12.5479C0.942888 13.4262 0.942888 13.8653 1.11382 14.2008C1.26417 14.4959 1.50408 14.7358 1.79917 14.8861C2.13463 15.057 2.57378 15.057 3.45208 15.057Z" stroke="white" stroke-width="1.80356" stroke-linecap="round" stroke-linejoin="round"/>
</svg>
