<svg width="13" height="13" viewBox="0 0 13 13" fill="none" xmlns="http://www.w3.org/2000/svg">
<path d="M3.5987 0.697752H8.17603C9.62028 0.697752 10.3424 0.697752 10.894 0.978822C11.3793 1.22606 11.7738 1.62056 12.021 2.10579C12.3021 2.65742 12.3021 3.37955 12.3021 4.8238V9.40112M2.7606 12.3022H7.98262C8.70475 12.3022 9.06581 12.3022 9.34163 12.1617C9.58424 12.0381 9.78149 11.8408 9.90511 11.5982C10.0456 11.3224 10.0456 10.9614 10.0456 10.2392V5.0172C10.0456 4.29508 10.0456 3.93402 9.90511 3.6582C9.78149 3.41559 9.58424 3.21834 9.34163 3.09472C9.06581 2.95418 8.70475 2.95418 7.98262 2.95418H2.7606C2.03848 2.95418 1.67741 2.95418 1.4016 3.09472C1.15898 3.21834 0.961732 3.41559 0.838114 3.6582C0.697579 3.93402 0.697579 4.29508 0.697579 5.0172V10.2392C0.697579 10.9614 0.697579 11.3224 0.838114 11.5982C0.961732 11.8408 1.15898 12.0381 1.4016 12.1617C1.67741 12.3022 2.03848 12.3022 2.7606 12.3022Z" stroke="white" stroke-width="1.35287" stroke-linecap="round" stroke-linejoin="round"/>
</svg>
