<svg width="15" height="15" viewBox="0 0 15 15" fill="none" xmlns="http://www.w3.org/2000/svg">
<path d="M4.6875 1.875H9.125C10.5251 1.875 11.2252 1.875 11.76 2.14748C12.2304 2.38717 12.6128 2.76962 12.8525 3.24002C13.125 3.7748 13.125 4.47487 13.125 5.875V10.3125M3.875 13.125H8.9375C9.63757 13.125 9.9876 13.125 10.255 12.9888C10.4902 12.8689 10.6814 12.6777 10.8013 12.4425C10.9375 12.1751 10.9375 11.8251 10.9375 11.125V6.0625C10.9375 5.36243 10.9375 5.0124 10.8013 4.74501C10.6814 4.50981 10.4902 4.31858 10.255 4.19874C9.9876 4.0625 9.63757 4.0625 8.9375 4.0625H3.875C3.17493 4.0625 2.8249 4.0625 2.55751 4.19874C2.32231 4.31858 2.13108 4.50981 2.01124 4.74501C1.875 5.0124 1.875 5.36243 1.875 6.0625V11.125C1.875 11.8251 1.875 12.1751 2.01124 12.4425C2.13108 12.6777 2.32231 12.8689 2.55751 12.9888C2.8249 13.125 3.17493 13.125 3.875 13.125Z" stroke="white" stroke-width="1.35287" stroke-linecap="round" stroke-linejoin="round"/>
</svg>
