<svg width="1112" height="910" viewBox="0 0 1112 910" fill="none" xmlns="http://www.w3.org/2000/svg">
<path d="M585.408 0.661856H556.426M585.408 0.661856V25.7204M585.408 0.661856H614.389M556.426 0.661856V25.7204M556.426 0.661856H526.592M556.426 25.7204H585.408M556.426 25.7204V50.0631M556.426 25.7204H526.592M585.408 25.7204H614.389M585.408 25.7204V50.0631M614.389 0.661856V25.7204M614.389 0.661856H644.223M614.389 25.7204H644.223M614.389 25.7204V50.0631M644.223 0.661856V25.7204M644.223 0.661856H673.205M644.223 25.7204H673.205M644.223 25.7204V50.0631M673.205 0.661856V25.7204M673.205 0.661856H702.186M673.205 25.7204H702.186M673.205 25.7204V50.0631M702.186 0.661856V25.7204M702.186 0.661856H731.168M702.186 25.7204H731.168M702.186 25.7204V50.0631M731.168 0.661856V25.7204M731.168 0.661856H761.002M731.168 25.7204H761.002M731.168 25.7204V50.0631M761.002 0.661856V25.7204M761.002 0.661856H789.983M761.002 25.7204H789.983M761.002 25.7204V50.0631M789.983 0.661856V25.7204M789.983 0.661856H818.965M789.983 25.7204H818.965M789.983 25.7204V50.0631M818.965 0.661856V25.7204M818.965 0.661856H848.799M818.965 25.7204H848.799M818.965 25.7204V50.0631M848.799 0.661856V25.7204M848.799 0.661856H877.781M848.799 25.7204H877.781M848.799 25.7204V50.0631M877.781 0.661856V25.7204M877.781 0.661856H906.762M877.781 25.7204H906.762M877.781 25.7204V50.0631M906.762 0.661856V25.7204M906.762 0.661856H935.744M906.762 25.7204H935.744M906.762 25.7204V50.0631M935.744 0.661856V25.7204M935.744 0.661856H965.578M935.744 25.7204H965.578M935.744 25.7204V50.0631M965.578 0.661856V25.7204M965.578 0.661856H994.559M965.578 25.7204H994.559M965.578 25.7204V50.0631M994.559 0.661856V25.7204M994.559 0.661856H1023.54M994.559 25.7204H1023.54M994.559 25.7204V50.0631M1023.54 0.661856V25.7204M1023.54 0.661856H1052.52M1023.54 25.7204H1052.52M1023.54 25.7204V50.0631M1052.52 0.661856V25.7204M1052.52 0.661856H1082.36M1052.52 25.7204H1082.36M1052.52 25.7204V50.0631M1082.36 0.661856V25.7204M1082.36 0.661856H1111.34V25.7204M1082.36 25.7204H1111.34M1082.36 25.7204V50.0631M1111.34 25.7204V50.0631M556.426 50.0631H585.408M556.426 50.0631V74.4057M556.426 50.0631H526.592M585.408 50.0631H614.389M585.408 50.0631V74.4057M614.389 50.0631H644.223M614.389 50.0631V74.4057M644.223 50.0631H673.205M644.223 50.0631V74.4057M673.205 50.0631H702.186M673.205 50.0631V74.4057M702.186 50.0631H731.168M702.186 50.0631V74.4057M731.168 50.0631H761.002M731.168 50.0631V74.4057M761.002 50.0631H789.983M761.002 50.0631V74.4057M789.983 50.0631H818.965M789.983 50.0631V74.4057M818.965 50.0631H848.799M818.965 50.0631V74.4057M848.799 50.0631H877.781M848.799 50.0631V74.4057M877.781 50.0631H906.762M877.781 50.0631V74.4057M906.762 50.0631H935.744M906.762 50.0631V74.4057M935.744 50.0631H965.578M935.744 50.0631V74.4057M965.578 50.0631H994.559M965.578 50.0631V74.4057M994.559 50.0631H1023.54M994.559 50.0631V74.4057M1023.54 50.0631H1052.52M1023.54 50.0631V74.4057M1052.52 50.0631H1082.36M1052.52 50.0631V74.4057M1082.36 50.0631H1111.34M1082.36 50.0631V74.4057M1111.34 50.0631V74.4057M556.426 74.4057H585.408M556.426 74.4057V99.4643M556.426 74.4057H526.592M585.408 74.4057H614.389M585.408 74.4057V99.4643M614.389 74.4057H644.223M614.389 74.4057V99.4643M644.223 74.4057H673.205M644.223 74.4057V99.4643M673.205 74.4057H702.186M673.205 74.4057V99.4643M702.186 74.4057H731.168M702.186 74.4057V99.4643M731.168 74.4057H761.002M731.168 74.4057V99.4643M761.002 74.4057H789.983M761.002 74.4057V99.4643M789.983 74.4057H818.965M789.983 74.4057V99.4643M818.965 74.4057H848.799M818.965 74.4057V99.4643M848.799 74.4057H877.781M848.799 74.4057V99.4643M877.781 74.4057H906.762M877.781 74.4057V99.4643M906.762 74.4057H935.744M906.762 74.4057V99.4643M935.744 74.4057H965.578M935.744 74.4057V99.4643M965.578 74.4057H994.559M965.578 74.4057V99.4643M994.559 74.4057H1023.54M994.559 74.4057V99.4643M1023.54 74.4057H1052.52M1023.54 74.4057V99.4643M1052.52 74.4057H1082.36M1052.52 74.4057V99.4643M1082.36 74.4057H1111.34M1082.36 74.4057V99.4643M1111.34 74.4057V99.4643M556.426 99.4643H585.408M556.426 99.4643V123.807M556.426 99.4643H526.592M585.408 99.4643H614.389M585.408 99.4643V123.807M614.389 99.4643H644.223M614.389 99.4643V123.807M644.223 99.4643H673.205M644.223 99.4643V123.807M673.205 99.4643H702.186M673.205 99.4643V123.807M702.186 99.4643H731.168M702.186 99.4643V123.807M731.168 99.4643H761.002M731.168 99.4643V123.807M761.002 99.4643H789.983M761.002 99.4643V123.807M789.983 99.4643H818.965M789.983 99.4643V123.807M818.965 99.4643H848.799M818.965 99.4643V123.807M848.799 99.4643H877.781M848.799 99.4643V123.807M877.781 99.4643H906.762M877.781 99.4643V123.807M906.762 99.4643H935.744M906.762 99.4643V123.807M935.744 99.4643H965.578M935.744 99.4643V123.807M965.578 99.4643H994.559M965.578 99.4643V123.807M994.559 99.4643H1023.54M994.559 99.4643V123.807M1023.54 99.4643H1052.52M1023.54 99.4643V123.807M1052.52 99.4643H1082.36M1052.52 99.4643V123.807M1082.36 99.4643H1111.34M1082.36 99.4643V123.807M1111.34 99.4643V123.807M556.426 123.807H585.408M556.426 123.807V148.15M556.426 123.807H526.592M585.408 123.807H614.389M585.408 123.807V148.15M614.389 123.807H644.223M614.389 123.807V148.15M644.223 123.807H673.205M644.223 123.807V148.15M673.205 123.807H702.186M673.205 123.807V148.15M702.186 123.807H731.168M702.186 123.807V148.15M731.168 123.807H761.002M731.168 123.807V148.15M761.002 123.807H789.983M761.002 123.807V148.15M789.983 123.807H818.965M789.983 123.807V148.15M818.965 123.807H848.799M818.965 123.807V148.15M848.799 123.807H877.781M848.799 123.807V148.15M877.781 123.807H906.762M877.781 123.807V148.15M906.762 123.807H935.744M906.762 123.807V148.15M935.744 123.807H965.578M935.744 123.807V148.15M965.578 123.807H994.559M965.578 123.807V148.15M994.559 123.807H1023.54M994.559 123.807V148.15M1023.54 123.807H1052.52M1023.54 123.807V148.15M1052.52 123.807H1082.36M1052.52 123.807V148.15M1082.36 123.807H1111.34M1082.36 123.807V148.15M1111.34 123.807V148.15M556.426 148.15H585.408M556.426 148.15V173.208M556.426 148.15H526.592M585.408 148.15H614.389M585.408 148.15V173.208M614.389 148.15H644.223M614.389 148.15V173.208M644.223 148.15H673.205M644.223 148.15V173.208M673.205 148.15H702.186M673.205 148.15V173.208M702.186 148.15H731.168M702.186 148.15V173.208M731.168 148.15H761.002M731.168 148.15V173.208M761.002 148.15H789.983M761.002 148.15V173.208M789.983 148.15H818.965M789.983 148.15V173.208M818.965 148.15H848.799M818.965 148.15V173.208M848.799 148.15H877.781M848.799 148.15V173.208M877.781 148.15H906.762M877.781 148.15V173.208M906.762 148.15H935.744M906.762 148.15V173.208M935.744 148.15H965.578M935.744 148.15V173.208M965.578 148.15H994.559M965.578 148.15V173.208M994.559 148.15H1023.54M994.559 148.15V173.208M1023.54 148.15H1052.52M1023.54 148.15V173.208M1052.52 148.15H1082.36M1052.52 148.15V173.208M1082.36 148.15H1111.34M1082.36 148.15V173.208M1111.34 148.15V173.208M556.426 173.208H585.408M556.426 173.208V197.551M556.426 173.208H526.592M585.408 173.208H614.389M585.408 173.208V197.551M614.389 173.208H644.223M614.389 173.208V197.551M644.223 173.208H673.205M644.223 173.208V197.551M673.205 173.208H702.186M673.205 173.208V197.551M702.186 173.208H731.168M702.186 173.208V197.551M731.168 173.208H761.002M731.168 173.208V197.551M761.002 173.208H789.983M761.002 173.208V197.551M789.983 173.208H818.965M789.983 173.208V197.551M818.965 173.208H848.799M818.965 173.208V197.551M848.799 173.208H877.781M848.799 173.208V197.551M877.781 173.208H906.762M877.781 173.208V197.551M906.762 173.208H935.744M906.762 173.208V197.551M935.744 173.208H965.578M935.744 173.208V197.551M965.578 173.208H994.559M965.578 173.208V197.551M994.559 173.208H1023.54M994.559 173.208V197.551M1023.54 173.208H1052.52M1023.54 173.208V197.551M1052.52 173.208H1082.36M1052.52 173.208V197.551M1082.36 173.208H1111.34M1082.36 173.208V197.551M1111.34 173.208V197.551M556.426 197.551H585.408M556.426 197.551V221.893M556.426 197.551H526.592M585.408 197.551H614.389M585.408 197.551V221.893M614.389 197.551H644.223M614.389 197.551V221.893M644.223 197.551H673.205M644.223 197.551V221.893M673.205 197.551H702.186M673.205 197.551V221.893M702.186 197.551H731.168M702.186 197.551V221.893M731.168 197.551H761.002M731.168 197.551V221.893M761.002 197.551H789.983M761.002 197.551V221.893M789.983 197.551H818.965M789.983 197.551V221.893M818.965 197.551H848.799M818.965 197.551V221.893M848.799 197.551H877.781M848.799 197.551V221.893M877.781 197.551H906.762M877.781 197.551V221.893M906.762 197.551H935.744M906.762 197.551V221.893M935.744 197.551H965.578M935.744 197.551V221.893M965.578 197.551H994.559M965.578 197.551V221.893M994.559 197.551H1023.54M994.559 197.551V221.893M1023.54 197.551H1052.52M1023.54 197.551V221.893M1052.52 197.551H1082.36M1052.52 197.551V221.893M1082.36 197.551H1111.34M1082.36 197.551V221.893M1111.34 197.551V221.893M556.426 221.893H585.408M556.426 221.893V246.236M556.426 221.893H526.592M585.408 221.893H614.389M585.408 221.893V246.236M614.389 221.893H644.223M614.389 221.893V246.236M644.223 221.893H673.205M644.223 221.893V246.236M673.205 221.893H702.186M673.205 221.893V246.236M702.186 221.893H731.168M702.186 221.893V246.236M731.168 221.893H761.002M731.168 221.893V246.236M761.002 221.893H789.983M761.002 221.893V246.236M789.983 221.893H818.965M789.983 221.893V246.236M818.965 221.893H848.799M818.965 221.893V246.236M848.799 221.893H877.781M848.799 221.893V246.236M877.781 221.893H906.762M877.781 221.893V246.236M906.762 221.893H935.744M906.762 221.893V246.236M935.744 221.893H965.578M935.744 221.893V246.236M965.578 221.893H994.559M965.578 221.893V246.236M994.559 221.893H1023.54M994.559 221.893V246.236M1023.54 221.893H1052.52M1023.54 221.893V246.236M1052.52 221.893H1082.36M1052.52 221.893V246.236M1082.36 221.893H1111.34M1082.36 221.893V246.236M1111.34 221.893V246.236M556.426 246.236H585.408M556.426 246.236V271.295M556.426 246.236H526.592M585.408 246.236H614.389M585.408 246.236V271.295M614.389 246.236H644.223M614.389 246.236V271.295M644.223 246.236H673.205M644.223 246.236V271.295M673.205 246.236H702.186M673.205 246.236V271.295M702.186 246.236H731.168M702.186 246.236V271.295M731.168 246.236H761.002M731.168 246.236V271.295M761.002 246.236H789.983M761.002 246.236V271.295M789.983 246.236H818.965M789.983 246.236V271.295M818.965 246.236H848.799M818.965 246.236V271.295M848.799 246.236H877.781M848.799 246.236V271.295M877.781 246.236H906.762M877.781 246.236V271.295M906.762 246.236H935.744M906.762 246.236V271.295M935.744 246.236H965.578M935.744 246.236V271.295M965.578 246.236H994.559M965.578 246.236V271.295M994.559 246.236H1023.54M994.559 246.236V271.295M1023.54 246.236H1052.52M1023.54 246.236V271.295M1052.52 246.236H1082.36M1052.52 246.236V271.295M1082.36 246.236H1111.34M1082.36 246.236V271.295M1111.34 246.236V271.295M556.426 271.295H585.408M556.426 271.295V295.637M556.426 271.295H526.592M585.408 271.295H614.389M585.408 271.295V295.637M614.389 271.295H644.223M614.389 271.295V295.637M644.223 271.295H673.205M644.223 271.295V295.637M673.205 271.295H702.186M673.205 271.295V295.637M702.186 271.295H731.168M702.186 271.295V295.637M731.168 271.295H761.002M731.168 271.295V295.637M761.002 271.295H789.983M761.002 271.295V295.637M789.983 271.295H818.965M789.983 271.295V295.637M818.965 271.295H848.799M818.965 271.295V295.637M848.799 271.295H877.781M848.799 271.295V295.637M877.781 271.295H906.762M877.781 271.295V295.637M906.762 271.295H935.744M906.762 271.295V295.637M935.744 271.295H965.578M935.744 271.295V295.637M965.578 271.295H994.559M965.578 271.295V295.637M994.559 271.295H1023.54M994.559 271.295V295.637M1023.54 271.295H1052.52M1023.54 271.295V295.637M1052.52 271.295H1082.36M1052.52 271.295V295.637M1082.36 271.295H1111.34M1082.36 271.295V295.637M1111.34 271.295V295.637M556.426 295.637H585.408M556.426 295.637V319.98M556.426 295.637H526.592M585.408 295.637H614.389M585.408 295.637V319.98M614.389 295.637H644.223M614.389 295.637V319.98M644.223 295.637H673.205M644.223 295.637V319.98M673.205 295.637H702.186M673.205 295.637V319.98M702.186 295.637H731.168M702.186 295.637V319.98M731.168 295.637H761.002M731.168 295.637V319.98M761.002 295.637H789.983M761.002 295.637V319.98M789.983 295.637H818.965M789.983 295.637V319.98M818.965 295.637H848.799M818.965 295.637V319.98M848.799 295.637H877.781M848.799 295.637V319.98M877.781 295.637H906.762M877.781 295.637V319.98M906.762 295.637H935.744M906.762 295.637V319.98M935.744 295.637H965.578M935.744 295.637V319.98M965.578 295.637H994.559M965.578 295.637V319.98M994.559 295.637H1023.54M994.559 295.637V319.98M1023.54 295.637H1052.52M1023.54 295.637V319.98M1052.52 295.637H1082.36M1052.52 295.637V319.98M1082.36 295.637H1111.34M1082.36 295.637V319.98M1111.34 295.637V319.98M556.426 319.98H585.408M556.426 319.98V345.038M556.426 319.98H526.592M585.408 319.98H614.389M585.408 319.98V345.038M614.389 319.98H644.223M614.389 319.98V345.038M644.223 319.98H673.205M644.223 319.98V345.038M673.205 319.98H702.186M673.205 319.98V345.038M702.186 319.98H731.168M702.186 319.98V345.038M731.168 319.98H761.002M731.168 319.98V345.038M761.002 319.98H789.983M761.002 319.98V345.038M789.983 319.98H818.965M789.983 319.98V345.038M818.965 319.98H848.799M818.965 319.98V345.038M848.799 319.98H877.781M848.799 319.98V345.038M877.781 319.98H906.762M877.781 319.98V345.038M906.762 319.98H935.744M906.762 319.98V345.038M935.744 319.98H965.578M935.744 319.98V345.038M965.578 319.98H994.559M965.578 319.98V345.038M994.559 319.98H1023.54M994.559 319.98V345.038M1023.54 319.98H1052.52M1023.54 319.98V345.038M1052.52 319.98H1082.36M1052.52 319.98V345.038M1082.36 319.98H1111.34M1082.36 319.98V345.038M1111.34 319.98V345.038M556.426 345.038H585.408M556.426 345.038V369.381M556.426 345.038H526.592M585.408 345.038H614.389M585.408 345.038V369.381M614.389 345.038H644.223M614.389 345.038V369.381M644.223 345.038H673.205M644.223 345.038V369.381M673.205 345.038H702.186M673.205 345.038V369.381M702.186 345.038H731.168M702.186 345.038V369.381M731.168 345.038H761.002M731.168 345.038V369.381M761.002 345.038H789.983M761.002 345.038V369.381M789.983 345.038H818.965M789.983 345.038V369.381M818.965 345.038H848.799M818.965 345.038V369.381M848.799 345.038H877.781M848.799 345.038V369.381M877.781 345.038H906.762M877.781 345.038V369.381M906.762 345.038H935.744M906.762 345.038V369.381M935.744 345.038H965.578M935.744 345.038V369.381M965.578 345.038H994.559M965.578 345.038V369.381M994.559 345.038H1023.54M994.559 345.038V369.381M1023.54 345.038H1052.52M1023.54 345.038V369.381M1052.52 345.038H1082.36M1052.52 345.038V369.381M1082.36 345.038H1111.34M1082.36 345.038V369.381M1111.34 345.038V369.381M556.426 369.381H585.408M556.426 369.381V393.724M556.426 369.381H526.592M585.408 369.381H614.389M585.408 369.381V393.724M614.389 369.381H644.223M614.389 369.381V393.724M644.223 369.381H673.205M644.223 369.381V393.724M673.205 369.381H702.186M673.205 369.381V393.724M702.186 369.381H731.168M702.186 369.381V393.724M731.168 369.381H761.002M731.168 369.381V393.724M761.002 369.381H789.983M761.002 369.381V393.724M789.983 369.381H818.965M789.983 369.381V393.724M818.965 369.381H848.799M818.965 369.381V393.724M848.799 369.381H877.781M848.799 369.381V393.724M877.781 369.381H906.762M877.781 369.381V393.724M906.762 369.381H935.744M906.762 369.381V393.724M935.744 369.381H965.578M935.744 369.381V393.724M965.578 369.381H994.559M965.578 369.381V393.724M994.559 369.381H1023.54M994.559 369.381V393.724M1023.54 369.381H1052.52M1023.54 369.381V393.724M1052.52 369.381H1082.36M1052.52 369.381V393.724M1082.36 369.381H1111.34M1082.36 369.381V393.724M1111.34 369.381V393.724M556.426 393.724H585.408M556.426 393.724V418.066M556.426 393.724H526.592M585.408 393.724H614.389M585.408 393.724V418.066M614.389 393.724H644.223M614.389 393.724V418.066M644.223 393.724H673.205M644.223 393.724V418.066M673.205 393.724H702.186M673.205 393.724V418.066M702.186 393.724H731.168M702.186 393.724V418.066M731.168 393.724H761.002M731.168 393.724V418.066M761.002 393.724H789.983M761.002 393.724V418.066M789.983 393.724H818.965M789.983 393.724V418.066M818.965 393.724H848.799M818.965 393.724V418.066M848.799 393.724H877.781M848.799 393.724V418.066M877.781 393.724H906.762M877.781 393.724V418.066M906.762 393.724H935.744M906.762 393.724V418.066M935.744 393.724H965.578M935.744 393.724V418.066M965.578 393.724H994.559M965.578 393.724V418.066M994.559 393.724H1023.54M994.559 393.724V418.066M1023.54 393.724H1052.52M1023.54 393.724V418.066M1052.52 393.724H1082.36M1052.52 393.724V418.066M1082.36 393.724H1111.34M1082.36 393.724V418.066M1111.34 393.724V418.066M556.426 418.066H585.408M556.426 418.066V443.125M556.426 418.066H526.592M585.408 418.066H614.389M585.408 418.066V443.125M614.389 418.066H644.223M614.389 418.066V443.125M644.223 418.066H673.205M644.223 418.066V443.125M673.205 418.066H702.186M673.205 418.066V443.125M702.186 418.066H731.168M702.186 418.066V443.125M731.168 418.066H761.002M731.168 418.066V443.125M761.002 418.066H789.983M761.002 418.066V443.125M789.983 418.066H818.965M789.983 418.066V443.125M818.965 418.066H848.799M818.965 418.066V443.125M848.799 418.066H877.781M848.799 418.066V443.125M877.781 418.066H906.762M877.781 418.066V443.125M906.762 418.066H935.744M906.762 418.066V443.125M935.744 418.066H965.578M935.744 418.066V443.125M965.578 418.066H994.559M965.578 418.066V443.125M994.559 418.066H1023.54M994.559 418.066V443.125M1023.54 418.066H1052.52M1023.54 418.066V443.125M1052.52 418.066H1082.36M1052.52 418.066V443.125M1082.36 418.066H1111.34M1082.36 418.066V443.125M1111.34 418.066V443.125M556.426 443.125H585.408M556.426 443.125V467.468M556.426 443.125H526.592M585.408 443.125H614.389M585.408 443.125V467.468M614.389 443.125H644.223M614.389 443.125V467.468M644.223 443.125H673.205M644.223 443.125V467.468M673.205 443.125H702.186M673.205 443.125V467.468M702.186 443.125H731.168M702.186 443.125V467.468M731.168 443.125H761.002M731.168 443.125V467.468M761.002 443.125H789.983M761.002 443.125V467.468M789.983 443.125H818.965M789.983 443.125V467.468M818.965 443.125H848.799M818.965 443.125V467.468M848.799 443.125H877.781M848.799 443.125V467.468M877.781 443.125H906.762M877.781 443.125V467.468M906.762 443.125H935.744M906.762 443.125V467.468M935.744 443.125H965.578M935.744 443.125V467.468M965.578 443.125H994.559M965.578 443.125V467.468M994.559 443.125H1023.54M994.559 443.125V467.468M1023.54 443.125H1052.52M1023.54 443.125V467.468M1052.52 443.125H1082.36M1052.52 443.125V467.468M1082.36 443.125H1111.34M1082.36 443.125V467.468M1111.34 443.125V467.468M556.426 467.468H585.408M556.426 467.468V491.81M556.426 467.468H526.592M585.408 467.468H614.389M585.408 467.468V491.81M614.389 467.468H644.223M614.389 467.468V491.81M644.223 467.468H673.205M644.223 467.468V491.81M673.205 467.468H702.186M673.205 467.468V491.81M702.186 467.468H731.168M702.186 467.468V491.81M731.168 467.468H761.002M731.168 467.468V491.81M761.002 467.468H789.983M761.002 467.468V491.81M789.983 467.468H818.965M789.983 467.468V491.81M818.965 467.468H848.799M818.965 467.468V491.81M848.799 467.468H877.781M848.799 467.468V491.81M877.781 467.468H906.762M877.781 467.468V491.81M906.762 467.468H935.744M906.762 467.468V491.81M935.744 467.468H965.578M935.744 467.468V491.81M965.578 467.468H994.559M965.578 467.468V491.81M994.559 467.468H1023.54M994.559 467.468V491.81M1023.54 467.468H1052.52M1023.54 467.468V491.81M1052.52 467.468H1082.36M1052.52 467.468V491.81M1082.36 467.468H1111.34M1082.36 467.468V491.81M1111.34 467.468V491.81M556.426 491.81H585.408M556.426 491.81V516.869M556.426 491.81H526.592M585.408 491.81H614.389M585.408 491.81V516.869M614.389 491.81H644.223M614.389 491.81V516.869M644.223 491.81H673.205M644.223 491.81V516.869M673.205 491.81H702.186M673.205 491.81V516.869M702.186 491.81H731.168M702.186 491.81V516.869M731.168 491.81H761.002M731.168 491.81V516.869M761.002 491.81H789.983M761.002 491.81V516.869M789.983 491.81H818.965M789.983 491.81V516.869M818.965 491.81H848.799M818.965 491.81V516.869M848.799 491.81H877.781M848.799 491.81V516.869M877.781 491.81H906.762M877.781 491.81V516.869M906.762 491.81H935.744M906.762 491.81V516.869M935.744 491.81H965.578M935.744 491.81V516.869M965.578 491.81H994.559M965.578 491.81V516.869M994.559 491.81H1023.54M994.559 491.81V516.869M1023.54 491.81H1052.52M1023.54 491.81V516.869M1052.52 491.81H1082.36M1052.52 491.81V516.869M1082.36 491.81H1111.34M1082.36 491.81V516.869M1111.34 491.81V516.869M556.426 516.869H585.408M556.426 516.869V541.211M556.426 516.869H526.592M585.408 516.869H614.389M585.408 516.869V541.211M614.389 516.869H644.223M614.389 516.869V541.211M644.223 516.869H673.205M644.223 516.869V541.211M673.205 516.869H702.186M673.205 516.869V541.211M702.186 516.869H731.168M702.186 516.869V541.211M731.168 516.869H761.002M731.168 516.869V541.211M761.002 516.869H789.983M761.002 516.869V541.211M789.983 516.869H818.965M789.983 516.869V541.211M818.965 516.869H848.799M818.965 516.869V541.211M848.799 516.869H877.781M848.799 516.869V541.211M877.781 516.869H906.762M877.781 516.869V541.211M906.762 516.869H935.744M906.762 516.869V541.211M935.744 516.869H965.578M935.744 516.869V541.211M965.578 516.869H994.559M965.578 516.869V541.211M994.559 516.869H1023.54M994.559 516.869V541.211M1023.54 516.869H1052.52M1023.54 516.869V541.211M1052.52 516.869H1082.36M1052.52 516.869V541.211M1082.36 516.869H1111.34M1082.36 516.869V541.211M1111.34 516.869V541.211M556.426 541.211H585.408M556.426 541.211V565.554M556.426 541.211H526.592M585.408 541.211H614.389M585.408 541.211V565.554M614.389 541.211H644.223M614.389 541.211V565.554M644.223 541.211H673.205M644.223 541.211V565.554M673.205 541.211H702.186M673.205 541.211V565.554M702.186 541.211H731.168M702.186 541.211V565.554M731.168 541.211H761.002M731.168 541.211V565.554M761.002 541.211H789.983M761.002 541.211V565.554M789.983 541.211H818.965M789.983 541.211V565.554M818.965 541.211H848.799M818.965 541.211V565.554M848.799 541.211H877.781M848.799 541.211V565.554M877.781 541.211H906.762M877.781 541.211V565.554M906.762 541.211H935.744M906.762 541.211V565.554M935.744 541.211H965.578M935.744 541.211V565.554M965.578 541.211H994.559M965.578 541.211V565.554M994.559 541.211H1023.54M994.559 541.211V565.554M1023.54 541.211H1052.52M1023.54 541.211V565.554M1052.52 541.211H1082.36M1052.52 541.211V565.554M1082.36 541.211H1111.34M1082.36 541.211V565.554M1111.34 541.211V565.554M556.426 565.554H585.408M556.426 565.554V590.613M556.426 565.554H526.592M585.408 565.554H614.389M585.408 565.554V590.613M614.389 565.554H644.223M614.389 565.554V590.613M644.223 565.554H673.205M644.223 565.554V590.613M673.205 565.554H702.186M673.205 565.554V590.613M702.186 565.554H731.168M702.186 565.554V590.613M731.168 565.554H761.002M731.168 565.554V590.613M761.002 565.554H789.983M761.002 565.554V590.613M789.983 565.554H818.965M789.983 565.554V590.613M818.965 565.554H848.799M818.965 565.554V590.613M848.799 565.554H877.781M848.799 565.554V590.613M877.781 565.554H906.762M877.781 565.554V590.613M906.762 565.554H935.744M906.762 565.554V590.613M935.744 565.554H965.578M935.744 565.554V590.613M965.578 565.554H994.559M965.578 565.554V590.613M994.559 565.554H1023.54M994.559 565.554V590.613M1023.54 565.554H1052.52M1023.54 565.554V590.613M1052.52 565.554H1082.36M1052.52 565.554V590.613M1082.36 565.554H1111.34M1082.36 565.554V590.613M1111.34 565.554V590.613M556.426 590.613H585.408M556.426 590.613V614.955M556.426 590.613H526.592M585.408 590.613H614.389M585.408 590.613V614.955M614.389 590.613H644.223M614.389 590.613V614.955M644.223 590.613H673.205M644.223 590.613V614.955M673.205 590.613H702.186M673.205 590.613V614.955M702.186 590.613H731.168M702.186 590.613V614.955M731.168 590.613H761.002M731.168 590.613V614.955M761.002 590.613H789.983M761.002 590.613V614.955M789.983 590.613H818.965M789.983 590.613V614.955M818.965 590.613H848.799M818.965 590.613V614.955M848.799 590.613H877.781M848.799 590.613V614.955M877.781 590.613H906.762M877.781 590.613V614.955M906.762 590.613H935.744M906.762 590.613V614.955M935.744 590.613H965.578M935.744 590.613V614.955M965.578 590.613H994.559M965.578 590.613V614.955M994.559 590.613H1023.54M994.559 590.613V614.955M1023.54 590.613H1052.52M1023.54 590.613V614.955M1052.52 590.613H1082.36M1052.52 590.613V614.955M1082.36 590.613H1111.34M1082.36 590.613V614.955M1111.34 590.613V614.955M556.426 614.955H585.408M556.426 614.955V639.298M556.426 614.955H526.592M585.408 614.955H614.389M585.408 614.955V639.298M614.389 614.955H644.223M614.389 614.955V639.298M644.223 614.955H673.205M644.223 614.955V639.298M673.205 614.955H702.186M673.205 614.955V639.298M702.186 614.955H731.168M702.186 614.955V639.298M731.168 614.955H761.002M731.168 614.955V639.298M761.002 614.955H789.983M761.002 614.955V639.298M789.983 614.955H818.965M789.983 614.955V639.298M818.965 614.955H848.799M818.965 614.955V639.298M848.799 614.955H877.781M848.799 614.955V639.298M877.781 614.955H906.762M877.781 614.955V639.298M906.762 614.955H935.744M906.762 614.955V639.298M935.744 614.955H965.578M935.744 614.955V639.298M965.578 614.955H994.559M965.578 614.955V639.298M994.559 614.955H1023.54M994.559 614.955V639.298M1023.54 614.955H1052.52M1023.54 614.955V639.298M1052.52 614.955H1082.36M1052.52 614.955V639.298M1082.36 614.955H1111.34M1082.36 614.955V639.298M1111.34 614.955V639.298M556.426 639.298H585.408M556.426 639.298V663.641M556.426 639.298H526.592M585.408 639.298H614.389M585.408 639.298V663.641M614.389 639.298H644.223M614.389 639.298V663.641M644.223 639.298H673.205M644.223 639.298V663.641M673.205 639.298H702.186M673.205 639.298V663.641M702.186 639.298H731.168M702.186 639.298V663.641M731.168 639.298H761.002M731.168 639.298V663.641M761.002 639.298H789.983M761.002 639.298V663.641M789.983 639.298H818.965M789.983 639.298V663.641M818.965 639.298H848.799M818.965 639.298V663.641M848.799 639.298H877.781M848.799 639.298V663.641M877.781 639.298H906.762M877.781 639.298V663.641M906.762 639.298H935.744M906.762 639.298V663.641M935.744 639.298H965.578M935.744 639.298V663.641M965.578 639.298H994.559M965.578 639.298V663.641M994.559 639.298H1023.54M994.559 639.298V663.641M1023.54 639.298H1052.52M1023.54 639.298V663.641M1052.52 639.298H1082.36M1052.52 639.298V663.641M1082.36 639.298H1111.34M1082.36 639.298V663.641M1111.34 639.298V663.641M556.426 663.641H585.408M556.426 663.641V688.699M556.426 663.641H526.592M585.408 663.641H614.389M585.408 663.641V688.699M614.389 663.641H644.223M614.389 663.641V688.699M644.223 663.641H673.205M644.223 663.641V688.699M673.205 663.641H702.186M673.205 663.641V688.699M702.186 663.641H731.168M702.186 663.641V688.699M731.168 663.641H761.002M731.168 663.641V688.699M761.002 663.641H789.983M761.002 663.641V688.699M789.983 663.641H818.965M789.983 663.641V688.699M818.965 663.641H848.799M818.965 663.641V688.699M848.799 663.641H877.781M848.799 663.641V688.699M877.781 663.641H906.762M877.781 663.641V688.699M906.762 663.641H935.744M906.762 663.641V688.699M935.744 663.641H965.578M935.744 663.641V688.699M965.578 663.641H994.559M965.578 663.641V688.699M994.559 663.641H1023.54M994.559 663.641V688.699M1023.54 663.641H1052.52M1023.54 663.641V688.699M1052.52 663.641H1082.36M1052.52 663.641V688.699M1082.36 663.641H1111.34M1082.36 663.641V688.699M1111.34 663.641V688.699M556.426 688.699H585.408M556.426 688.699V713.042M556.426 688.699H526.592M585.408 688.699H614.389M585.408 688.699V713.042M614.389 688.699H644.223M614.389 688.699V713.042M644.223 688.699H673.205M644.223 688.699V713.042M673.205 688.699H702.186M673.205 688.699V713.042M702.186 688.699H731.168M702.186 688.699V713.042M731.168 688.699H761.002M731.168 688.699V713.042M761.002 688.699H789.983M761.002 688.699V713.042M789.983 688.699H818.965M789.983 688.699V713.042M818.965 688.699H848.799M818.965 688.699V713.042M848.799 688.699H877.781M848.799 688.699V713.042M877.781 688.699H906.762M877.781 688.699V713.042M906.762 688.699H935.744M906.762 688.699V713.042M935.744 688.699H965.578M935.744 688.699V713.042M965.578 688.699H994.559M965.578 688.699V713.042M994.559 688.699H1023.54M994.559 688.699V713.042M1023.54 688.699H1052.52M1023.54 688.699V713.042M1052.52 688.699H1082.36M1052.52 688.699V713.042M1082.36 688.699H1111.34M1082.36 688.699V713.042M1111.34 688.699V713.042M556.426 713.042H585.408M556.426 713.042V737.384M556.426 713.042H526.592M585.408 713.042H614.389M585.408 713.042V737.384M614.389 713.042H644.223M614.389 713.042V737.384M644.223 713.042H673.205M644.223 713.042V737.384M673.205 713.042H702.186M673.205 713.042V737.384M702.186 713.042H731.168M702.186 713.042V737.384M731.168 713.042H761.002M731.168 713.042V737.384M761.002 713.042H789.983M761.002 713.042V737.384M789.983 713.042H818.965M789.983 713.042V737.384M818.965 713.042H848.799M818.965 713.042V737.384M848.799 713.042H877.781M848.799 713.042V737.384M877.781 713.042H906.762M877.781 713.042V737.384M906.762 713.042H935.744M906.762 713.042V737.384M935.744 713.042H965.578M935.744 713.042V737.384M965.578 713.042H994.559M965.578 713.042V737.384M994.559 713.042H1023.54M994.559 713.042V737.384M1023.54 713.042H1052.52M1023.54 713.042V737.384M1052.52 713.042H1082.36M1052.52 713.042V737.384M1082.36 713.042H1111.34M1082.36 713.042V737.384M1111.34 713.042V737.384M556.426 737.384H585.408M556.426 737.384V762.443M556.426 737.384H526.592M585.408 737.384H614.389M585.408 737.384V762.443M614.389 737.384H644.223M614.389 737.384V762.443M644.223 737.384H673.205M644.223 737.384V762.443M673.205 737.384H702.186M673.205 737.384V762.443M702.186 737.384H731.168M702.186 737.384V762.443M731.168 737.384H761.002M731.168 737.384V762.443M761.002 737.384H789.983M761.002 737.384V762.443M789.983 737.384H818.965M789.983 737.384V762.443M818.965 737.384H848.799M818.965 737.384V762.443M848.799 737.384H877.781M848.799 737.384V762.443M877.781 737.384H906.762M877.781 737.384V762.443M906.762 737.384H935.744M906.762 737.384V762.443M935.744 737.384H965.578M935.744 737.384V762.443M965.578 737.384H994.559M965.578 737.384V762.443M994.559 737.384H1023.54M994.559 737.384V762.443M1023.54 737.384H1052.52M1023.54 737.384V762.443M1052.52 737.384H1082.36M1052.52 737.384V762.443M1082.36 737.384H1111.34M1082.36 737.384V762.443M1111.34 737.384V762.443M556.426 762.443H585.408M556.426 762.443V786.786M556.426 762.443H526.592M585.408 762.443H614.389M585.408 762.443V786.786M614.389 762.443H644.223M614.389 762.443V786.786M644.223 762.443H673.205M644.223 762.443V786.786M673.205 762.443H702.186M673.205 762.443V786.786M702.186 762.443H731.168M702.186 762.443V786.786M731.168 762.443H761.002M731.168 762.443V786.786M761.002 762.443H789.983M761.002 762.443V786.786M789.983 762.443H818.965M789.983 762.443V786.786M818.965 762.443H848.799M818.965 762.443V786.786M848.799 762.443H877.781M848.799 762.443V786.786M877.781 762.443H906.762M877.781 762.443V786.786M906.762 762.443H935.744M906.762 762.443V786.786M935.744 762.443H965.578M935.744 762.443V786.786M965.578 762.443H994.559M965.578 762.443V786.786M994.559 762.443H1023.54M994.559 762.443V786.786M1023.54 762.443H1052.52M1023.54 762.443V786.786M1052.52 762.443H1082.36M1052.52 762.443V786.786M1082.36 762.443H1111.34M1082.36 762.443V786.786M1111.34 762.443V786.786M556.426 786.786H585.408M556.426 786.786V811.128M556.426 786.786H526.592M585.408 786.786H614.389M585.408 786.786V811.128M614.389 786.786H644.223M614.389 786.786V811.128M644.223 786.786H673.205M644.223 786.786V811.128M673.205 786.786H702.186M673.205 786.786V811.128M702.186 786.786H731.168M702.186 786.786V811.128M731.168 786.786H761.002M731.168 786.786V811.128M761.002 786.786H789.983M761.002 786.786V811.128M789.983 786.786H818.965M789.983 786.786V811.128M818.965 786.786H848.799M818.965 786.786V811.128M848.799 786.786H877.781M848.799 786.786V811.128M877.781 786.786H906.762M877.781 786.786V811.128M906.762 786.786H935.744M906.762 786.786V811.128M935.744 786.786H965.578M935.744 786.786V811.128M965.578 786.786H994.559M965.578 786.786V811.128M994.559 786.786H1023.54M994.559 786.786V811.128M1023.54 786.786H1052.52M1023.54 786.786V811.128M1052.52 786.786H1082.36M1052.52 786.786V811.128M1082.36 786.786H1111.34M1082.36 786.786V811.128M1111.34 786.786V811.128M556.426 811.128H585.408M556.426 811.128V836.187M556.426 811.128H526.592M585.408 811.128H614.389M585.408 811.128V836.187M614.389 811.128H644.223M614.389 811.128V836.187M644.223 811.128H673.205M644.223 811.128V836.187M673.205 811.128H702.186M673.205 811.128V836.187M702.186 811.128H731.168M702.186 811.128V836.187M731.168 811.128H761.002M731.168 811.128V836.187M761.002 811.128H789.983M761.002 811.128V836.187M789.983 811.128H818.965M789.983 811.128V836.187M818.965 811.128H848.799M818.965 811.128V836.187M848.799 811.128H877.781M848.799 811.128V836.187M877.781 811.128H906.762M877.781 811.128V836.187M906.762 811.128H935.744M906.762 811.128V836.187M935.744 811.128H965.578M935.744 811.128V836.187M965.578 811.128H994.559M965.578 811.128V836.187M994.559 811.128H1023.54M994.559 811.128V836.187M1023.54 811.128H1052.52M1023.54 811.128V836.187M1052.52 811.128H1082.36M1052.52 811.128V836.187M1082.36 811.128H1111.34M1082.36 811.128V836.187M1111.34 811.128V836.187M556.426 836.187H585.408M556.426 836.187V860.529M556.426 836.187H526.592M585.408 836.187H614.389M585.408 836.187V860.529M614.389 836.187H644.223M614.389 836.187V860.529M644.223 836.187H673.205M644.223 836.187V860.529M673.205 836.187H702.186M673.205 836.187V860.529M702.186 836.187H731.168M702.186 836.187V860.529M731.168 836.187H761.002M731.168 836.187V860.529M761.002 836.187H789.983M761.002 836.187V860.529M789.983 836.187H818.965M789.983 836.187V860.529M818.965 836.187H848.799M818.965 836.187V860.529M848.799 836.187H877.781M848.799 836.187V860.529M877.781 836.187H906.762M877.781 836.187V860.529M906.762 836.187H935.744M906.762 836.187V860.529M935.744 836.187H965.578M935.744 836.187V860.529M965.578 836.187H994.559M965.578 836.187V860.529M994.559 836.187H1023.54M994.559 836.187V860.529M1023.54 836.187H1052.52M1023.54 836.187V860.529M1052.52 836.187H1082.36M1052.52 836.187V860.529M1082.36 836.187H1111.34M1082.36 836.187V860.529M1111.34 836.187V860.529M556.426 860.529H585.408M556.426 860.529V884.872M556.426 860.529H526.592M585.408 860.529H614.389M585.408 860.529V884.872M614.389 860.529H644.223M614.389 860.529V884.872M644.223 860.529H673.205M644.223 860.529V884.872M673.205 860.529H702.186M673.205 860.529V884.872M702.186 860.529H731.168M702.186 860.529V884.872M731.168 860.529H761.002M731.168 860.529V884.872M761.002 860.529H789.983M761.002 860.529V884.872M789.983 860.529H818.965M789.983 860.529V884.872M818.965 860.529H848.799M818.965 860.529V884.872M848.799 860.529H877.781M848.799 860.529V884.872M877.781 860.529H906.762M877.781 860.529V884.872M906.762 860.529H935.744M906.762 860.529V884.872M935.744 860.529H965.578M935.744 860.529V884.872M965.578 860.529H994.559M965.578 860.529V884.872M994.559 860.529H1023.54M994.559 860.529V884.872M1023.54 860.529H1052.52M1023.54 860.529V884.872M1052.52 860.529H1082.36M1052.52 860.529V884.872M1082.36 860.529H1111.34M1082.36 860.529V884.872M1111.34 860.529V884.872M556.426 884.872H585.408M556.426 884.872V909.215M556.426 884.872H526.592M585.408 884.872H614.389M585.408 884.872V909.215M614.389 884.872H644.223M614.389 884.872V909.215M644.223 884.872H673.205M644.223 884.872V909.215M673.205 884.872H702.186M673.205 884.872V909.215M702.186 884.872H731.168M702.186 884.872V909.215M731.168 884.872H761.002M731.168 884.872V909.215M761.002 884.872H789.983M761.002 884.872V909.215M789.983 884.872H818.965M789.983 884.872V909.215M818.965 884.872H848.799M818.965 884.872V909.215M848.799 884.872H877.781M848.799 884.872V909.215M877.781 884.872H906.762M877.781 884.872V909.215M906.762 884.872H935.744M906.762 884.872V909.215M935.744 884.872H965.578M935.744 884.872V909.215M965.578 884.872H994.559M965.578 884.872V909.215M994.559 884.872H1023.54M994.559 884.872V909.215M1023.54 884.872H1052.52M1023.54 884.872V909.215M1052.52 884.872H1082.36M1052.52 884.872V909.215M1082.36 884.872H1111.34M1082.36 884.872V909.215M1111.34 884.872V909.215H1082.36M556.426 909.215H585.408M556.426 909.215H526.592M585.408 909.215H614.389M614.389 909.215H644.223M644.223 909.215H673.205M673.205 909.215H702.186M702.186 909.215H731.168M731.168 909.215H761.002M761.002 909.215H789.983M789.983 909.215H818.965M818.965 909.215H848.799M848.799 909.215H877.781M877.781 909.215H906.762M906.762 909.215H935.744M935.744 909.215H965.578M965.578 909.215H994.559M994.559 909.215H1023.54M1023.54 909.215H1052.52M1052.52 909.215H1082.36M30.496 0.661856H0.662024V25.7204M30.496 0.661856V25.7204M30.496 0.661856H59.4776M0.662024 25.7204H30.496M0.662024 25.7204V50.0631M30.496 25.7204H59.4776M30.496 25.7204V50.0631M59.4776 0.661856V25.7204M59.4776 0.661856H88.4591M59.4776 25.7204H88.4591M59.4776 25.7204V50.0631M88.4591 0.661856V25.7204M88.4591 0.661856H118.293M88.4591 25.7204H118.293M88.4591 25.7204V50.0631M118.293 0.661856V25.7204M118.293 0.661856H147.275M118.293 25.7204H147.275M118.293 25.7204V50.0631M147.275 0.661856V25.7204M147.275 0.661856H176.256M147.275 25.7204H176.256M147.275 25.7204V50.0631M176.256 0.661856V25.7204M176.256 0.661856H205.238M176.256 25.7204H205.238M176.256 25.7204V50.0631M205.238 0.661856V25.7204M205.238 0.661856H235.072M205.238 25.7204H235.072M205.238 25.7204V50.0631M235.072 0.661856V25.7204M235.072 0.661856H264.053M235.072 25.7204H264.053M235.072 25.7204V50.0631M264.053 0.661856V25.7204M264.053 0.661856H293.035M264.053 25.7204H293.035M264.053 25.7204V50.0631M293.035 0.661856V25.7204M293.035 0.661856H322.016M293.035 25.7204H322.016M293.035 25.7204V50.0631M322.016 0.661856V25.7204M322.016 0.661856H351.85M322.016 25.7204H351.85M322.016 25.7204V50.0631M351.85 0.661856V25.7204M351.85 0.661856H380.832M351.85 25.7204H380.832M351.85 25.7204V50.0631M380.832 0.661856V25.7204M380.832 0.661856H409.814M380.832 25.7204H409.814M380.832 25.7204V50.0631M409.814 0.661856V25.7204M409.814 0.661856H439.648M409.814 25.7204H439.648M409.814 25.7204V50.0631M439.648 0.661856V25.7204M439.648 0.661856H468.629M439.648 25.7204H468.629M439.648 25.7204V50.0631M468.629 0.661856V25.7204M468.629 0.661856H497.611M468.629 25.7204H497.611M468.629 25.7204V50.0631M497.611 0.661856V25.7204M497.611 0.661856H526.592M497.611 25.7204H526.592M497.611 25.7204V50.0631M526.592 0.661856V25.7204M526.592 25.7204V50.0631M0.662024 50.0631H30.496M0.662024 50.0631V74.4057M30.496 50.0631H59.4776M30.496 50.0631V74.4057M59.4776 50.0631H88.4591M59.4776 50.0631V74.4057M88.4591 50.0631H118.293M88.4591 50.0631V74.4057M118.293 50.0631H147.275M118.293 50.0631V74.4057M147.275 50.0631H176.256M147.275 50.0631V74.4057M176.256 50.0631H205.238M176.256 50.0631V74.4057M205.238 50.0631H235.072M205.238 50.0631V74.4057M235.072 50.0631H264.053M235.072 50.0631V74.4057M264.053 50.0631H293.035M264.053 50.0631V74.4057M293.035 50.0631H322.016M293.035 50.0631V74.4057M322.016 50.0631H351.85M322.016 50.0631V74.4057M351.85 50.0631H380.832M351.85 50.0631V74.4057M380.832 50.0631H409.814M380.832 50.0631V74.4057M409.814 50.0631H439.648M409.814 50.0631V74.4057M439.648 50.0631H468.629M439.648 50.0631V74.4057M468.629 50.0631H497.611M468.629 50.0631V74.4057M497.611 50.0631H526.592M497.611 50.0631V74.4057M526.592 50.0631V74.4057M0.662024 74.4057H30.496M0.662024 74.4057V99.4643M30.496 74.4057H59.4776M30.496 74.4057V99.4643M59.4776 74.4057H88.4591M59.4776 74.4057V99.4643M88.4591 74.4057H118.293M88.4591 74.4057V99.4643M118.293 74.4057H147.275M118.293 74.4057V99.4643M147.275 74.4057H176.256M147.275 74.4057V99.4643M176.256 74.4057H205.238M176.256 74.4057V99.4643M205.238 74.4057H235.072M205.238 74.4057V99.4643M235.072 74.4057H264.053M235.072 74.4057V99.4643M264.053 74.4057H293.035M264.053 74.4057V99.4643M293.035 74.4057H322.016M293.035 74.4057V99.4643M322.016 74.4057H351.85M322.016 74.4057V99.4643M351.85 74.4057H380.832M351.85 74.4057V99.4643M380.832 74.4057H409.814M380.832 74.4057V99.4643M409.814 74.4057H439.648M409.814 74.4057V99.4643M439.648 74.4057H468.629M439.648 74.4057V99.4643M468.629 74.4057H497.611M468.629 74.4057V99.4643M497.611 74.4057H526.592M497.611 74.4057V99.4643M526.592 74.4057V99.4643M0.662024 99.4643H30.496M0.662024 99.4643V123.807M30.496 99.4643H59.4776M30.496 99.4643V123.807M59.4776 99.4643H88.4591M59.4776 99.4643V123.807M88.4591 99.4643H118.293M88.4591 99.4643V123.807M118.293 99.4643H147.275M118.293 99.4643V123.807M147.275 99.4643H176.256M147.275 99.4643V123.807M176.256 99.4643H205.238M176.256 99.4643V123.807M205.238 99.4643H235.072M205.238 99.4643V123.807M235.072 99.4643H264.053M235.072 99.4643V123.807M264.053 99.4643H293.035M264.053 99.4643V123.807M293.035 99.4643H322.016M293.035 99.4643V123.807M322.016 99.4643H351.85M322.016 99.4643V123.807M351.85 99.4643H380.832M351.85 99.4643V123.807M380.832 99.4643H409.814M380.832 99.4643V123.807M409.814 99.4643H439.648M409.814 99.4643V123.807M439.648 99.4643H468.629M439.648 99.4643V123.807M468.629 99.4643H497.611M468.629 99.4643V123.807M497.611 99.4643H526.592M497.611 99.4643V123.807M526.592 99.4643V123.807M0.662024 123.807H30.496M0.662024 123.807V148.15M30.496 123.807H59.4776M30.496 123.807V148.15M59.4776 123.807H88.4591M59.4776 123.807V148.15M88.4591 123.807H118.293M88.4591 123.807V148.15M118.293 123.807H147.275M118.293 123.807V148.15M147.275 123.807H176.256M147.275 123.807V148.15M176.256 123.807H205.238M176.256 123.807V148.15M205.238 123.807H235.072M205.238 123.807V148.15M235.072 123.807H264.053M235.072 123.807V148.15M264.053 123.807H293.035M264.053 123.807V148.15M293.035 123.807H322.016M293.035 123.807V148.15M322.016 123.807H351.85M322.016 123.807V148.15M351.85 123.807H380.832M351.85 123.807V148.15M380.832 123.807H409.814M380.832 123.807V148.15M409.814 123.807H439.648M409.814 123.807V148.15M439.648 123.807H468.629M439.648 123.807V148.15M468.629 123.807H497.611M468.629 123.807V148.15M497.611 123.807H526.592M497.611 123.807V148.15M526.592 123.807V148.15M0.662024 148.15H30.496M0.662024 148.15V173.208M30.496 148.15H59.4776M30.496 148.15V173.208M59.4776 148.15H88.4591M59.4776 148.15V173.208M88.4591 148.15H118.293M88.4591 148.15V173.208M118.293 148.15H147.275M118.293 148.15V173.208M147.275 148.15H176.256M147.275 148.15V173.208M176.256 148.15H205.238M176.256 148.15V173.208M205.238 148.15H235.072M205.238 148.15V173.208M235.072 148.15H264.053M235.072 148.15V173.208M264.053 148.15H293.035M264.053 148.15V173.208M293.035 148.15H322.016M293.035 148.15V173.208M322.016 148.15H351.85M322.016 148.15V173.208M351.85 148.15H380.832M351.85 148.15V173.208M380.832 148.15H409.814M380.832 148.15V173.208M409.814 148.15H439.648M409.814 148.15V173.208M439.648 148.15H468.629M439.648 148.15V173.208M468.629 148.15H497.611M468.629 148.15V173.208M497.611 148.15H526.592M497.611 148.15V173.208M526.592 148.15V173.208M0.662024 173.208H30.496M0.662024 173.208V197.551M30.496 173.208H59.4776M30.496 173.208V197.551M59.4776 173.208H88.4591M59.4776 173.208V197.551M88.4591 173.208H118.293M88.4591 173.208V197.551M118.293 173.208H147.275M118.293 173.208V197.551M147.275 173.208H176.256M147.275 173.208V197.551M176.256 173.208H205.238M176.256 173.208V197.551M205.238 173.208H235.072M205.238 173.208V197.551M235.072 173.208H264.053M235.072 173.208V197.551M264.053 173.208H293.035M264.053 173.208V197.551M293.035 173.208H322.016M293.035 173.208V197.551M322.016 173.208H351.85M322.016 173.208V197.551M351.85 173.208H380.832M351.85 173.208V197.551M380.832 173.208H409.814M380.832 173.208V197.551M409.814 173.208H439.648M409.814 173.208V197.551M439.648 173.208H468.629M439.648 173.208V197.551M468.629 173.208H497.611M468.629 173.208V197.551M497.611 173.208H526.592M497.611 173.208V197.551M526.592 173.208V197.551M0.662024 197.551H30.496M0.662024 197.551V221.893M30.496 197.551H59.4776M30.496 197.551V221.893M59.4776 197.551H88.4591M59.4776 197.551V221.893M88.4591 197.551H118.293M88.4591 197.551V221.893M118.293 197.551H147.275M118.293 197.551V221.893M147.275 197.551H176.256M147.275 197.551V221.893M176.256 197.551H205.238M176.256 197.551V221.893M205.238 197.551H235.072M205.238 197.551V221.893M235.072 197.551H264.053M235.072 197.551V221.893M264.053 197.551H293.035M264.053 197.551V221.893M293.035 197.551H322.016M293.035 197.551V221.893M322.016 197.551H351.85M322.016 197.551V221.893M351.85 197.551H380.832M351.85 197.551V221.893M380.832 197.551H409.814M380.832 197.551V221.893M409.814 197.551H439.648M409.814 197.551V221.893M439.648 197.551H468.629M439.648 197.551V221.893M468.629 197.551H497.611M468.629 197.551V221.893M497.611 197.551H526.592M497.611 197.551V221.893M526.592 197.551V221.893M0.662024 221.893H30.496M0.662024 221.893V246.236M30.496 221.893H59.4776M30.496 221.893V246.236M59.4776 221.893H88.4591M59.4776 221.893V246.236M88.4591 221.893H118.293M88.4591 221.893V246.236M118.293 221.893H147.275M118.293 221.893V246.236M147.275 221.893H176.256M147.275 221.893V246.236M176.256 221.893H205.238M176.256 221.893V246.236M205.238 221.893H235.072M205.238 221.893V246.236M235.072 221.893H264.053M235.072 221.893V246.236M264.053 221.893H293.035M264.053 221.893V246.236M293.035 221.893H322.016M293.035 221.893V246.236M322.016 221.893H351.85M322.016 221.893V246.236M351.85 221.893H380.832M351.85 221.893V246.236M380.832 221.893H409.814M380.832 221.893V246.236M409.814 221.893H439.648M409.814 221.893V246.236M439.648 221.893H468.629M439.648 221.893V246.236M468.629 221.893H497.611M468.629 221.893V246.236M497.611 221.893H526.592M497.611 221.893V246.236M526.592 221.893V246.236M0.662024 246.236H30.496M0.662024 246.236V271.295M30.496 246.236H59.4776M30.496 246.236V271.295M59.4776 246.236H88.4591M59.4776 246.236V271.295M88.4591 246.236H118.293M88.4591 246.236V271.295M118.293 246.236H147.275M118.293 246.236V271.295M147.275 246.236H176.256M147.275 246.236V271.295M176.256 246.236H205.238M176.256 246.236V271.295M205.238 246.236H235.072M205.238 246.236V271.295M235.072 246.236H264.053M235.072 246.236V271.295M264.053 246.236H293.035M264.053 246.236V271.295M293.035 246.236H322.016M293.035 246.236V271.295M322.016 246.236H351.85M322.016 246.236V271.295M351.85 246.236H380.832M351.85 246.236V271.295M380.832 246.236H409.814M380.832 246.236V271.295M409.814 246.236H439.648M409.814 246.236V271.295M439.648 246.236H468.629M439.648 246.236V271.295M468.629 246.236H497.611M468.629 246.236V271.295M497.611 246.236H526.592M497.611 246.236V271.295M526.592 246.236V271.295M0.662024 271.295H30.496M0.662024 271.295V295.637M30.496 271.295H59.4776M30.496 271.295V295.637M59.4776 271.295H88.4591M59.4776 271.295V295.637M88.4591 271.295H118.293M88.4591 271.295V295.637M118.293 271.295H147.275M118.293 271.295V295.637M147.275 271.295H176.256M147.275 271.295V295.637M176.256 271.295H205.238M176.256 271.295V295.637M205.238 271.295H235.072M205.238 271.295V295.637M235.072 271.295H264.053M235.072 271.295V295.637M264.053 271.295H293.035M264.053 271.295V295.637M293.035 271.295H322.016M293.035 271.295V295.637M322.016 271.295H351.85M322.016 271.295V295.637M351.85 271.295H380.832M351.85 271.295V295.637M380.832 271.295H409.814M380.832 271.295V295.637M409.814 271.295H439.648M409.814 271.295V295.637M439.648 271.295H468.629M439.648 271.295V295.637M468.629 271.295H497.611M468.629 271.295V295.637M497.611 271.295H526.592M497.611 271.295V295.637M526.592 271.295V295.637M0.662024 295.637H30.496M0.662024 295.637V319.98M30.496 295.637H59.4776M30.496 295.637V319.98M59.4776 295.637H88.4591M59.4776 295.637V319.98M88.4591 295.637H118.293M88.4591 295.637V319.98M118.293 295.637H147.275M118.293 295.637V319.98M147.275 295.637H176.256M147.275 295.637V319.98M176.256 295.637H205.238M176.256 295.637V319.98M205.238 295.637H235.072M205.238 295.637V319.98M235.072 295.637H264.053M235.072 295.637V319.98M264.053 295.637H293.035M264.053 295.637V319.98M293.035 295.637H322.016M293.035 295.637V319.98M322.016 295.637H351.85M322.016 295.637V319.98M351.85 295.637H380.832M351.85 295.637V319.98M380.832 295.637H409.814M380.832 295.637V319.98M409.814 295.637H439.648M409.814 295.637V319.98M439.648 295.637H468.629M439.648 295.637V319.98M468.629 295.637H497.611M468.629 295.637V319.98M497.611 295.637H526.592M497.611 295.637V319.98M526.592 295.637V319.98M0.662024 319.98H30.496M0.662024 319.98V345.038M30.496 319.98H59.4776M30.496 319.98V345.038M59.4776 319.98H88.4591M59.4776 319.98V345.038M88.4591 319.98H118.293M88.4591 319.98V345.038M118.293 319.98H147.275M118.293 319.98V345.038M147.275 319.98H176.256M147.275 319.98V345.038M176.256 319.98H205.238M176.256 319.98V345.038M205.238 319.98H235.072M205.238 319.98V345.038M235.072 319.98H264.053M235.072 319.98V345.038M264.053 319.98H293.035M264.053 319.98V345.038M293.035 319.98H322.016M293.035 319.98V345.038M322.016 319.98H351.85M322.016 319.98V345.038M351.85 319.98H380.832M351.85 319.98V345.038M380.832 319.98H409.814M380.832 319.98V345.038M409.814 319.98H439.648M409.814 319.98V345.038M439.648 319.98H468.629M439.648 319.98V345.038M468.629 319.98H497.611M468.629 319.98V345.038M497.611 319.98H526.592M497.611 319.98V345.038M526.592 319.98V345.038M0.662024 345.038H30.496M0.662024 345.038V369.381M30.496 345.038H59.4776M30.496 345.038V369.381M59.4776 345.038H88.4591M59.4776 345.038V369.381M88.4591 345.038H118.293M88.4591 345.038V369.381M118.293 345.038H147.275M118.293 345.038V369.381M147.275 345.038H176.256M147.275 345.038V369.381M176.256 345.038H205.238M176.256 345.038V369.381M205.238 345.038H235.072M205.238 345.038V369.381M235.072 345.038H264.053M235.072 345.038V369.381M264.053 345.038H293.035M264.053 345.038V369.381M293.035 345.038H322.016M293.035 345.038V369.381M322.016 345.038H351.85M322.016 345.038V369.381M351.85 345.038H380.832M351.85 345.038V369.381M380.832 345.038H409.814M380.832 345.038V369.381M409.814 345.038H439.648M409.814 345.038V369.381M439.648 345.038H468.629M439.648 345.038V369.381M468.629 345.038H497.611M468.629 345.038V369.381M497.611 345.038H526.592M497.611 345.038V369.381M526.592 345.038V369.381M0.662024 369.381H30.496M0.662024 369.381V393.724M30.496 369.381H59.4776M30.496 369.381V393.724M59.4776 369.381H88.4591M59.4776 369.381V393.724M88.4591 369.381H118.293M88.4591 369.381V393.724M118.293 369.381H147.275M118.293 369.381V393.724M147.275 369.381H176.256M147.275 369.381V393.724M176.256 369.381H205.238M176.256 369.381V393.724M205.238 369.381H235.072M205.238 369.381V393.724M235.072 369.381H264.053M235.072 369.381V393.724M264.053 369.381H293.035M264.053 369.381V393.724M293.035 369.381H322.016M293.035 369.381V393.724M322.016 369.381H351.85M322.016 369.381V393.724M351.85 369.381H380.832M351.85 369.381V393.724M380.832 369.381H409.814M380.832 369.381V393.724M409.814 369.381H439.648M409.814 369.381V393.724M439.648 369.381H468.629M439.648 369.381V393.724M468.629 369.381H497.611M468.629 369.381V393.724M497.611 369.381H526.592M497.611 369.381V393.724M526.592 369.381V393.724M0.662024 393.724H30.496M0.662024 393.724V418.066M30.496 393.724H59.4776M30.496 393.724V418.066M59.4776 393.724H88.4591M59.4776 393.724V418.066M88.4591 393.724H118.293M88.4591 393.724V418.066M118.293 393.724H147.275M118.293 393.724V418.066M147.275 393.724H176.256M147.275 393.724V418.066M176.256 393.724H205.238M176.256 393.724V418.066M205.238 393.724H235.072M205.238 393.724V418.066M235.072 393.724H264.053M235.072 393.724V418.066M264.053 393.724H293.035M264.053 393.724V418.066M293.035 393.724H322.016M293.035 393.724V418.066M322.016 393.724H351.85M322.016 393.724V418.066M351.85 393.724H380.832M351.85 393.724V418.066M380.832 393.724H409.814M380.832 393.724V418.066M409.814 393.724H439.648M409.814 393.724V418.066M439.648 393.724H468.629M439.648 393.724V418.066M468.629 393.724H497.611M468.629 393.724V418.066M497.611 393.724H526.592M497.611 393.724V418.066M526.592 393.724V418.066M0.662024 418.066H30.496M0.662024 418.066V443.125M30.496 418.066H59.4776M30.496 418.066V443.125M59.4776 418.066H88.4591M59.4776 418.066V443.125M88.4591 418.066H118.293M88.4591 418.066V443.125M118.293 418.066H147.275M118.293 418.066V443.125M147.275 418.066H176.256M147.275 418.066V443.125M176.256 418.066H205.238M176.256 418.066V443.125M205.238 418.066H235.072M205.238 418.066V443.125M235.072 418.066H264.053M235.072 418.066V443.125M264.053 418.066H293.035M264.053 418.066V443.125M293.035 418.066H322.016M293.035 418.066V443.125M322.016 418.066H351.85M322.016 418.066V443.125M351.85 418.066H380.832M351.85 418.066V443.125M380.832 418.066H409.814M380.832 418.066V443.125M409.814 418.066H439.648M409.814 418.066V443.125M439.648 418.066H468.629M439.648 418.066V443.125M468.629 418.066H497.611M468.629 418.066V443.125M497.611 418.066H526.592M497.611 418.066V443.125M526.592 418.066V443.125M0.662024 443.125H30.496M0.662024 443.125V467.468M30.496 443.125H59.4776M30.496 443.125V467.468M59.4776 443.125H88.4591M59.4776 443.125V467.468M88.4591 443.125H118.293M88.4591 443.125V467.468M118.293 443.125H147.275M118.293 443.125V467.468M147.275 443.125H176.256M147.275 443.125V467.468M176.256 443.125H205.238M176.256 443.125V467.468M205.238 443.125H235.072M205.238 443.125V467.468M235.072 443.125H264.053M235.072 443.125V467.468M264.053 443.125H293.035M264.053 443.125V467.468M293.035 443.125H322.016M293.035 443.125V467.468M322.016 443.125H351.85M322.016 443.125V467.468M351.85 443.125H380.832M351.85 443.125V467.468M380.832 443.125H409.814M380.832 443.125V467.468M409.814 443.125H439.648M409.814 443.125V467.468M439.648 443.125H468.629M439.648 443.125V467.468M468.629 443.125H497.611M468.629 443.125V467.468M497.611 443.125H526.592M497.611 443.125V467.468M526.592 443.125V467.468M0.662024 467.468H30.496M0.662024 467.468V491.81M30.496 467.468H59.4776M30.496 467.468V491.81M59.4776 467.468H88.4591M59.4776 467.468V491.81M88.4591 467.468H118.293M88.4591 467.468V491.81M118.293 467.468H147.275M118.293 467.468V491.81M147.275 467.468H176.256M147.275 467.468V491.81M176.256 467.468H205.238M176.256 467.468V491.81M205.238 467.468H235.072M205.238 467.468V491.81M235.072 467.468H264.053M235.072 467.468V491.81M264.053 467.468H293.035M264.053 467.468V491.81M293.035 467.468H322.016M293.035 467.468V491.81M322.016 467.468H351.85M322.016 467.468V491.81M351.85 467.468H380.832M351.85 467.468V491.81M380.832 467.468H409.814M380.832 467.468V491.81M409.814 467.468H439.648M409.814 467.468V491.81M439.648 467.468H468.629M439.648 467.468V491.81M468.629 467.468H497.611M468.629 467.468V491.81M497.611 467.468H526.592M497.611 467.468V491.81M526.592 467.468V491.81M0.662024 491.81H30.496M0.662024 491.81V516.869M30.496 491.81H59.4776M30.496 491.81V516.869M59.4776 491.81H88.4591M59.4776 491.81V516.869M88.4591 491.81H118.293M88.4591 491.81V516.869M118.293 491.81H147.275M118.293 491.81V516.869M147.275 491.81H176.256M147.275 491.81V516.869M176.256 491.81H205.238M176.256 491.81V516.869M205.238 491.81H235.072M205.238 491.81V516.869M235.072 491.81H264.053M235.072 491.81V516.869M264.053 491.81H293.035M264.053 491.81V516.869M293.035 491.81H322.016M293.035 491.81V516.869M322.016 491.81H351.85M322.016 491.81V516.869M351.85 491.81H380.832M351.85 491.81V516.869M380.832 491.81H409.814M380.832 491.81V516.869M409.814 491.81H439.648M409.814 491.81V516.869M439.648 491.81H468.629M439.648 491.81V516.869M468.629 491.81H497.611M468.629 491.81V516.869M497.611 491.81H526.592M497.611 491.81V516.869M526.592 491.81V516.869M0.662024 516.869H30.496M0.662024 516.869V541.211M30.496 516.869H59.4776M30.496 516.869V541.211M59.4776 516.869H88.4591M59.4776 516.869V541.211M88.4591 516.869H118.293M88.4591 516.869V541.211M118.293 516.869H147.275M118.293 516.869V541.211M147.275 516.869H176.256M147.275 516.869V541.211M176.256 516.869H205.238M176.256 516.869V541.211M205.238 516.869H235.072M205.238 516.869V541.211M235.072 516.869H264.053M235.072 516.869V541.211M264.053 516.869H293.035M264.053 516.869V541.211M293.035 516.869H322.016M293.035 516.869V541.211M322.016 516.869H351.85M322.016 516.869V541.211M351.85 516.869H380.832M351.85 516.869V541.211M380.832 516.869H409.814M380.832 516.869V541.211M409.814 516.869H439.648M409.814 516.869V541.211M439.648 516.869H468.629M439.648 516.869V541.211M468.629 516.869H497.611M468.629 516.869V541.211M497.611 516.869H526.592M497.611 516.869V541.211M526.592 516.869V541.211M0.662024 541.211H30.496M0.662024 541.211V565.554M30.496 541.211H59.4776M30.496 541.211V565.554M59.4776 541.211H88.4591M59.4776 541.211V565.554M88.4591 541.211H118.293M88.4591 541.211V565.554M118.293 541.211H147.275M118.293 541.211V565.554M147.275 541.211H176.256M147.275 541.211V565.554M176.256 541.211H205.238M176.256 541.211V565.554M205.238 541.211H235.072M205.238 541.211V565.554M235.072 541.211H264.053M235.072 541.211V565.554M264.053 541.211H293.035M264.053 541.211V565.554M293.035 541.211H322.016M293.035 541.211V565.554M322.016 541.211H351.85M322.016 541.211V565.554M351.85 541.211H380.832M351.85 541.211V565.554M380.832 541.211H409.814M380.832 541.211V565.554M409.814 541.211H439.648M409.814 541.211V565.554M439.648 541.211H468.629M439.648 541.211V565.554M468.629 541.211H497.611M468.629 541.211V565.554M497.611 541.211H526.592M497.611 541.211V565.554M526.592 541.211V565.554M0.662024 565.554H30.496M0.662024 565.554V590.613M30.496 565.554H59.4776M30.496 565.554V590.613M59.4776 565.554H88.4591M59.4776 565.554V590.613M88.4591 565.554H118.293M88.4591 565.554V590.613M118.293 565.554H147.275M118.293 565.554V590.613M147.275 565.554H176.256M147.275 565.554V590.613M176.256 565.554H205.238M176.256 565.554V590.613M205.238 565.554H235.072M205.238 565.554V590.613M235.072 565.554H264.053M235.072 565.554V590.613M264.053 565.554H293.035M264.053 565.554V590.613M293.035 565.554H322.016M293.035 565.554V590.613M322.016 565.554H351.85M322.016 565.554V590.613M351.85 565.554H380.832M351.85 565.554V590.613M380.832 565.554H409.814M380.832 565.554V590.613M409.814 565.554H439.648M409.814 565.554V590.613M439.648 565.554H468.629M439.648 565.554V590.613M468.629 565.554H497.611M468.629 565.554V590.613M497.611 565.554H526.592M497.611 565.554V590.613M526.592 565.554V590.613M0.662024 590.613H30.496M0.662024 590.613V614.955M30.496 590.613H59.4776M30.496 590.613V614.955M59.4776 590.613H88.4591M59.4776 590.613V614.955M88.4591 590.613H118.293M88.4591 590.613V614.955M118.293 590.613H147.275M118.293 590.613V614.955M147.275 590.613H176.256M147.275 590.613V614.955M176.256 590.613H205.238M176.256 590.613V614.955M205.238 590.613H235.072M205.238 590.613V614.955M235.072 590.613H264.053M235.072 590.613V614.955M264.053 590.613H293.035M264.053 590.613V614.955M293.035 590.613H322.016M293.035 590.613V614.955M322.016 590.613H351.85M322.016 590.613V614.955M351.85 590.613H380.832M351.85 590.613V614.955M380.832 590.613H409.814M380.832 590.613V614.955M409.814 590.613H439.648M409.814 590.613V614.955M439.648 590.613H468.629M439.648 590.613V614.955M468.629 590.613H497.611M468.629 590.613V614.955M497.611 590.613H526.592M497.611 590.613V614.955M526.592 590.613V614.955M0.662024 614.955H30.496M0.662024 614.955V639.298M30.496 614.955H59.4776M30.496 614.955V639.298M59.4776 614.955H88.4591M59.4776 614.955V639.298M88.4591 614.955H118.293M88.4591 614.955V639.298M118.293 614.955H147.275M118.293 614.955V639.298M147.275 614.955H176.256M147.275 614.955V639.298M176.256 614.955H205.238M176.256 614.955V639.298M205.238 614.955H235.072M205.238 614.955V639.298M235.072 614.955H264.053M235.072 614.955V639.298M264.053 614.955H293.035M264.053 614.955V639.298M293.035 614.955H322.016M293.035 614.955V639.298M322.016 614.955H351.85M322.016 614.955V639.298M351.85 614.955H380.832M351.85 614.955V639.298M380.832 614.955H409.814M380.832 614.955V639.298M409.814 614.955H439.648M409.814 614.955V639.298M439.648 614.955H468.629M439.648 614.955V639.298M468.629 614.955H497.611M468.629 614.955V639.298M497.611 614.955H526.592M497.611 614.955V639.298M526.592 614.955V639.298M0.662024 639.298H30.496M0.662024 639.298V663.641M30.496 639.298H59.4776M30.496 639.298V663.641M59.4776 639.298H88.4591M59.4776 639.298V663.641M88.4591 639.298H118.293M88.4591 639.298V663.641M118.293 639.298H147.275M118.293 639.298V663.641M147.275 639.298H176.256M147.275 639.298V663.641M176.256 639.298H205.238M176.256 639.298V663.641M205.238 639.298H235.072M205.238 639.298V663.641M235.072 639.298H264.053M235.072 639.298V663.641M264.053 639.298H293.035M264.053 639.298V663.641M293.035 639.298H322.016M293.035 639.298V663.641M322.016 639.298H351.85M322.016 639.298V663.641M351.85 639.298H380.832M351.85 639.298V663.641M380.832 639.298H409.814M380.832 639.298V663.641M409.814 639.298H439.648M409.814 639.298V663.641M439.648 639.298H468.629M439.648 639.298V663.641M468.629 639.298H497.611M468.629 639.298V663.641M497.611 639.298H526.592M497.611 639.298V663.641M526.592 639.298V663.641M0.662024 663.641H30.496M0.662024 663.641V688.699M30.496 663.641H59.4776M30.496 663.641V688.699M59.4776 663.641H88.4591M59.4776 663.641V688.699M88.4591 663.641H118.293M88.4591 663.641V688.699M118.293 663.641H147.275M118.293 663.641V688.699M147.275 663.641H176.256M147.275 663.641V688.699M176.256 663.641H205.238M176.256 663.641V688.699M205.238 663.641H235.072M205.238 663.641V688.699M235.072 663.641H264.053M235.072 663.641V688.699M264.053 663.641H293.035M264.053 663.641V688.699M293.035 663.641H322.016M293.035 663.641V688.699M322.016 663.641H351.85M322.016 663.641V688.699M351.85 663.641H380.832M351.85 663.641V688.699M380.832 663.641H409.814M380.832 663.641V688.699M409.814 663.641H439.648M409.814 663.641V688.699M439.648 663.641H468.629M439.648 663.641V688.699M468.629 663.641H497.611M468.629 663.641V688.699M497.611 663.641H526.592M497.611 663.641V688.699M526.592 663.641V688.699M0.662024 688.699H30.496M0.662024 688.699V713.042M30.496 688.699H59.4776M30.496 688.699V713.042M59.4776 688.699H88.4591M59.4776 688.699V713.042M88.4591 688.699H118.293M88.4591 688.699V713.042M118.293 688.699H147.275M118.293 688.699V713.042M147.275 688.699H176.256M147.275 688.699V713.042M176.256 688.699H205.238M176.256 688.699V713.042M205.238 688.699H235.072M205.238 688.699V713.042M235.072 688.699H264.053M235.072 688.699V713.042M264.053 688.699H293.035M264.053 688.699V713.042M293.035 688.699H322.016M293.035 688.699V713.042M322.016 688.699H351.85M322.016 688.699V713.042M351.85 688.699H380.832M351.85 688.699V713.042M380.832 688.699H409.814M380.832 688.699V713.042M409.814 688.699H439.648M409.814 688.699V713.042M439.648 688.699H468.629M439.648 688.699V713.042M468.629 688.699H497.611M468.629 688.699V713.042M497.611 688.699H526.592M497.611 688.699V713.042M526.592 688.699V713.042M0.662024 713.042H30.496M0.662024 713.042V737.384M30.496 713.042H59.4776M30.496 713.042V737.384M59.4776 713.042H88.4591M59.4776 713.042V737.384M88.4591 713.042H118.293M88.4591 713.042V737.384M118.293 713.042H147.275M118.293 713.042V737.384M147.275 713.042H176.256M147.275 713.042V737.384M176.256 713.042H205.238M176.256 713.042V737.384M205.238 713.042H235.072M205.238 713.042V737.384M235.072 713.042H264.053M235.072 713.042V737.384M264.053 713.042H293.035M264.053 713.042V737.384M293.035 713.042H322.016M293.035 713.042V737.384M322.016 713.042H351.85M322.016 713.042V737.384M351.85 713.042H380.832M351.85 713.042V737.384M380.832 713.042H409.814M380.832 713.042V737.384M409.814 713.042H439.648M409.814 713.042V737.384M439.648 713.042H468.629M439.648 713.042V737.384M468.629 713.042H497.611M468.629 713.042V737.384M497.611 713.042H526.592M497.611 713.042V737.384M526.592 713.042V737.384M0.662024 737.384H30.496M0.662024 737.384V762.443M30.496 737.384H59.4776M30.496 737.384V762.443M59.4776 737.384H88.4591M59.4776 737.384V762.443M88.4591 737.384H118.293M88.4591 737.384V762.443M118.293 737.384H147.275M118.293 737.384V762.443M147.275 737.384H176.256M147.275 737.384V762.443M176.256 737.384H205.238M176.256 737.384V762.443M205.238 737.384H235.072M205.238 737.384V762.443M235.072 737.384H264.053M235.072 737.384V762.443M264.053 737.384H293.035M264.053 737.384V762.443M293.035 737.384H322.016M293.035 737.384V762.443M322.016 737.384H351.85M322.016 737.384V762.443M351.85 737.384H380.832M351.85 737.384V762.443M380.832 737.384H409.814M380.832 737.384V762.443M409.814 737.384H439.648M409.814 737.384V762.443M439.648 737.384H468.629M439.648 737.384V762.443M468.629 737.384H497.611M468.629 737.384V762.443M497.611 737.384H526.592M497.611 737.384V762.443M526.592 737.384V762.443M0.662024 762.443H30.496M0.662024 762.443V786.786M30.496 762.443H59.4776M30.496 762.443V786.786M59.4776 762.443H88.4591M59.4776 762.443V786.786M88.4591 762.443H118.293M88.4591 762.443V786.786M118.293 762.443H147.275M118.293 762.443V786.786M147.275 762.443H176.256M147.275 762.443V786.786M176.256 762.443H205.238M176.256 762.443V786.786M205.238 762.443H235.072M205.238 762.443V786.786M235.072 762.443H264.053M235.072 762.443V786.786M264.053 762.443H293.035M264.053 762.443V786.786M293.035 762.443H322.016M293.035 762.443V786.786M322.016 762.443H351.85M322.016 762.443V786.786M351.85 762.443H380.832M351.85 762.443V786.786M380.832 762.443H409.814M380.832 762.443V786.786M409.814 762.443H439.648M409.814 762.443V786.786M439.648 762.443H468.629M439.648 762.443V786.786M468.629 762.443H497.611M468.629 762.443V786.786M497.611 762.443H526.592M497.611 762.443V786.786M526.592 762.443V786.786M0.662024 786.786H30.496M0.662024 786.786V811.128M30.496 786.786H59.4776M30.496 786.786V811.128M59.4776 786.786H88.4591M59.4776 786.786V811.128M88.4591 786.786H118.293M88.4591 786.786V811.128M118.293 786.786H147.275M118.293 786.786V811.128M147.275 786.786H176.256M147.275 786.786V811.128M176.256 786.786H205.238M176.256 786.786V811.128M205.238 786.786H235.072M205.238 786.786V811.128M235.072 786.786H264.053M235.072 786.786V811.128M264.053 786.786H293.035M264.053 786.786V811.128M293.035 786.786H322.016M293.035 786.786V811.128M322.016 786.786H351.85M322.016 786.786V811.128M351.85 786.786H380.832M351.85 786.786V811.128M380.832 786.786H409.814M380.832 786.786V811.128M409.814 786.786H439.648M409.814 786.786V811.128M439.648 786.786H468.629M439.648 786.786V811.128M468.629 786.786H497.611M468.629 786.786V811.128M497.611 786.786H526.592M497.611 786.786V811.128M526.592 786.786V811.128M0.662024 811.128H30.496M0.662024 811.128V836.187M30.496 811.128H59.4776M30.496 811.128V836.187M59.4776 811.128H88.4591M59.4776 811.128V836.187M88.4591 811.128H118.293M88.4591 811.128V836.187M118.293 811.128H147.275M118.293 811.128V836.187M147.275 811.128H176.256M147.275 811.128V836.187M176.256 811.128H205.238M176.256 811.128V836.187M205.238 811.128H235.072M205.238 811.128V836.187M235.072 811.128H264.053M235.072 811.128V836.187M264.053 811.128H293.035M264.053 811.128V836.187M293.035 811.128H322.016M293.035 811.128V836.187M322.016 811.128H351.85M322.016 811.128V836.187M351.85 811.128H380.832M351.85 811.128V836.187M380.832 811.128H409.814M380.832 811.128V836.187M409.814 811.128H439.648M409.814 811.128V836.187M439.648 811.128H468.629M439.648 811.128V836.187M468.629 811.128H497.611M468.629 811.128V836.187M497.611 811.128H526.592M497.611 811.128V836.187M526.592 811.128V836.187M0.662024 836.187H30.496M0.662024 836.187V860.529M30.496 836.187H59.4776M30.496 836.187V860.529M59.4776 836.187H88.4591M59.4776 836.187V860.529M88.4591 836.187H118.293M88.4591 836.187V860.529M118.293 836.187H147.275M118.293 836.187V860.529M147.275 836.187H176.256M147.275 836.187V860.529M176.256 836.187H205.238M176.256 836.187V860.529M205.238 836.187H235.072M205.238 836.187V860.529M235.072 836.187H264.053M235.072 836.187V860.529M264.053 836.187H293.035M264.053 836.187V860.529M293.035 836.187H322.016M293.035 836.187V860.529M322.016 836.187H351.85M322.016 836.187V860.529M351.85 836.187H380.832M351.85 836.187V860.529M380.832 836.187H409.814M380.832 836.187V860.529M409.814 836.187H439.648M409.814 836.187V860.529M439.648 836.187H468.629M439.648 836.187V860.529M468.629 836.187H497.611M468.629 836.187V860.529M497.611 836.187H526.592M497.611 836.187V860.529M526.592 836.187V860.529M0.662024 860.529H30.496M0.662024 860.529V884.872M30.496 860.529H59.4776M30.496 860.529V884.872M59.4776 860.529H88.4591M59.4776 860.529V884.872M88.4591 860.529H118.293M88.4591 860.529V884.872M118.293 860.529H147.275M118.293 860.529V884.872M147.275 860.529H176.256M147.275 860.529V884.872M176.256 860.529H205.238M176.256 860.529V884.872M205.238 860.529H235.072M205.238 860.529V884.872M235.072 860.529H264.053M235.072 860.529V884.872M264.053 860.529H293.035M264.053 860.529V884.872M293.035 860.529H322.016M293.035 860.529V884.872M322.016 860.529H351.85M322.016 860.529V884.872M351.85 860.529H380.832M351.85 860.529V884.872M380.832 860.529H409.814M380.832 860.529V884.872M409.814 860.529H439.648M409.814 860.529V884.872M439.648 860.529H468.629M439.648 860.529V884.872M468.629 860.529H497.611M468.629 860.529V884.872M497.611 860.529H526.592M497.611 860.529V884.872M526.592 860.529V884.872M0.662024 884.872H30.496M0.662024 884.872V909.215H30.496M30.496 884.872H59.4776M30.496 884.872V909.215M59.4776 884.872H88.4591M59.4776 884.872V909.215M88.4591 884.872H118.293M88.4591 884.872V909.215M118.293 884.872H147.275M118.293 884.872V909.215M147.275 884.872H176.256M147.275 884.872V909.215M176.256 884.872H205.238M176.256 884.872V909.215M205.238 884.872H235.072M205.238 884.872V909.215M235.072 884.872H264.053M235.072 884.872V909.215M264.053 884.872H293.035M264.053 884.872V909.215M293.035 884.872H322.016M293.035 884.872V909.215M322.016 884.872H351.85M322.016 884.872V909.215M351.85 884.872H380.832M351.85 884.872V909.215M380.832 884.872H409.814M380.832 884.872V909.215M409.814 884.872H439.648M409.814 884.872V909.215M439.648 884.872H468.629M439.648 884.872V909.215M468.629 884.872H497.611M468.629 884.872V909.215M497.611 884.872H526.592M497.611 884.872V909.215M526.592 884.872V909.215M30.496 909.215H59.4776M59.4776 909.215H88.4591M88.4591 909.215H118.293M118.293 909.215H147.275M147.275 909.215H176.256M176.256 909.215H205.238M205.238 909.215H235.072M235.072 909.215H264.053M264.053 909.215H293.035M293.035 909.215H322.016M322.016 909.215H351.85M351.85 909.215H380.832M380.832 909.215H409.814M409.814 909.215H439.648M439.648 909.215H468.629M468.629 909.215H497.611M497.611 909.215H526.592" stroke="url(#paint0_linear_6042_678)" stroke-opacity="0.4" stroke-width="1.32292"/>
<defs>
<linearGradient id="paint0_linear_6042_678" x1="56.6961" y1="161.76" x2="851.68" y2="-137.922" gradientUnits="userSpaceOnUse">
<stop stop-opacity="0"/>
<stop offset="0.1" stop-color="white" stop-opacity="0.15"/>
<stop offset="1" stop-opacity="0"/>
</linearGradient>
</defs>
</svg>
