<svg width="8" height="13" viewBox="0 0 8 13" fill="none" xmlns="http://www.w3.org/2000/svg">
<path d="M0.322199 11.0265C0.111969 11.2473 -0.0036298 11.5415 8.68729e-05 11.8463C0.00380354 12.1511 0.126541 12.4424 0.342091 12.6579C0.557641 12.8735 0.848921 12.9962 1.15373 12.9999C1.45854 13.0036 1.75273 12.888 1.97347 12.6778L6.98507 7.6662C7.13846 7.513 7.26014 7.33107 7.34316 7.13081C7.42618 6.93055 7.46891 6.71589 7.46891 6.4991C7.46891 6.28231 7.42618 6.06765 7.34316 5.86739C7.26014 5.66713 7.13846 5.4852 6.98507 5.332L1.97347 0.322154C1.75273 0.111924 1.45854 -0.00367532 1.15373 4.10307e-05C0.84892 0.00375738 0.557641 0.126495 0.342091 0.342044C0.126541 0.557595 0.00380305 0.848875 8.64055e-05 1.15369C-0.00363024 1.4585 0.111969 1.75268 0.322199 1.97343L4.84525 6.49998L0.322199 11.0265Z" fill="white"/>
</svg>
