<svg width="1695" height="1593" viewBox="0 0 1695 1593" fill="none" xmlns="http://www.w3.org/2000/svg">
<path d="M892.344 0.661633H848.15M892.344 0.661633V44.5484M892.344 0.661633H936.538M848.15 0.661633V44.5484M848.15 0.661633H802.656M848.15 44.5484H892.344M848.15 44.5484V87.1813M848.15 44.5484H802.656M892.344 44.5484H936.538M892.344 44.5484V87.1813M936.538 0.661633V44.5484M936.538 0.661633H982.032M936.538 44.5484H982.032M936.538 44.5484V87.1813M982.032 0.661633V44.5484M982.032 0.661633H1026.23M982.032 44.5484H1026.23M982.032 44.5484V87.1813M1026.23 0.661633V44.5484M1026.23 0.661633H1070.42M1026.23 44.5484H1070.42M1026.23 44.5484V87.1813M1070.42 0.661633V44.5484M1070.42 0.661633H1114.61M1070.42 44.5484H1114.61M1070.42 44.5484V87.1813M1114.61 0.661633V44.5484M1114.61 0.661633H1160.11M1114.61 44.5484H1160.11M1114.61 44.5484V87.1813M1160.11 0.661633V44.5484M1160.11 0.661633H1204.3M1160.11 44.5484H1204.3M1160.11 44.5484V87.1813M1204.3 0.661633V44.5484M1204.3 0.661633H1248.5M1204.3 44.5484H1248.5M1204.3 44.5484V87.1813M1248.5 0.661633V44.5484M1248.5 0.661633H1293.99M1248.5 44.5484H1293.99M1248.5 44.5484V87.1813M1293.99 0.661633V44.5484M1293.99 0.661633H1338.19M1293.99 44.5484H1338.19M1293.99 44.5484V87.1813M1338.19 0.661633V44.5484M1338.19 0.661633H1382.38M1338.19 44.5484H1382.38M1338.19 44.5484V87.1813M1382.38 0.661633V44.5484M1382.38 0.661633H1426.57M1382.38 44.5484H1426.57M1382.38 44.5484V87.1813M1426.57 0.661633V44.5484M1426.57 0.661633H1472.07M1426.57 44.5484H1472.07M1426.57 44.5484V87.1813M1472.07 0.661633V44.5484M1472.07 0.661633H1516.26M1472.07 44.5484H1516.26M1472.07 44.5484V87.1813M1516.26 0.661633V44.5484M1516.26 0.661633H1560.46M1516.26 44.5484H1560.46M1516.26 44.5484V87.1813M1560.46 0.661633V44.5484M1560.46 0.661633H1604.65M1560.46 44.5484H1604.65M1560.46 44.5484V87.1813M1604.65 0.661633V44.5484M1604.65 0.661633H1650.14M1604.65 44.5484H1650.14M1604.65 44.5484V87.1813M1650.14 0.661633V44.5484M1650.14 0.661633H1694.34V44.5484M1650.14 44.5484H1694.34M1650.14 44.5484V87.1813M1694.34 44.5484V87.1813M848.15 87.1813H892.344M848.15 87.1813V129.814M848.15 87.1813H802.656M892.344 87.1813H936.538M892.344 87.1813V129.814M936.538 87.1813H982.032M936.538 87.1813V129.814M982.032 87.1813H1026.23M982.032 87.1813V129.814M1026.23 87.1813H1070.42M1026.23 87.1813V129.814M1070.42 87.1813H1114.61M1070.42 87.1813V129.814M1114.61 87.1813H1160.11M1114.61 87.1813V129.814M1160.11 87.1813H1204.3M1160.11 87.1813V129.814M1204.3 87.1813H1248.5M1204.3 87.1813V129.814M1248.5 87.1813H1293.99M1248.5 87.1813V129.814M1293.99 87.1813H1338.19M1293.99 87.1813V129.814M1338.19 87.1813H1382.38M1338.19 87.1813V129.814M1382.38 87.1813H1426.57M1382.38 87.1813V129.814M1426.57 87.1813H1472.07M1426.57 87.1813V129.814M1472.07 87.1813H1516.26M1472.07 87.1813V129.814M1516.26 87.1813H1560.46M1516.26 87.1813V129.814M1560.46 87.1813H1604.65M1560.46 87.1813V129.814M1604.65 87.1813H1650.14M1604.65 87.1813V129.814M1650.14 87.1813H1694.34M1650.14 87.1813V129.814M1694.34 87.1813V129.814M848.15 129.814H892.344M848.15 129.814V173.701M848.15 129.814H802.656M892.344 129.814H936.538M892.344 129.814V173.701M936.538 129.814H982.032M936.538 129.814V173.701M982.032 129.814H1026.23M982.032 129.814V173.701M1026.23 129.814H1070.42M1026.23 129.814V173.701M1070.42 129.814H1114.61M1070.42 129.814V173.701M1114.61 129.814H1160.11M1114.61 129.814V173.701M1160.11 129.814H1204.3M1160.11 129.814V173.701M1204.3 129.814H1248.5M1204.3 129.814V173.701M1248.5 129.814H1293.99M1248.5 129.814V173.701M1293.99 129.814H1338.19M1293.99 129.814V173.701M1338.19 129.814H1382.38M1338.19 129.814V173.701M1382.38 129.814H1426.57M1382.38 129.814V173.701M1426.57 129.814H1472.07M1426.57 129.814V173.701M1472.07 129.814H1516.26M1472.07 129.814V173.701M1516.26 129.814H1560.46M1516.26 129.814V173.701M1560.46 129.814H1604.65M1560.46 129.814V173.701M1604.65 129.814H1650.14M1604.65 129.814V173.701M1650.14 129.814H1694.34M1650.14 129.814V173.701M1694.34 129.814V173.701M848.15 173.701H892.344M848.15 173.701V216.334M848.15 173.701H802.656M892.344 173.701H936.538M892.344 173.701V216.334M936.538 173.701H982.032M936.538 173.701V216.334M982.032 173.701H1026.23M982.032 173.701V216.334M1026.23 173.701H1070.42M1026.23 173.701V216.334M1070.42 173.701H1114.61M1070.42 173.701V216.334M1114.61 173.701H1160.11M1114.61 173.701V216.334M1160.11 173.701H1204.3M1160.11 173.701V216.334M1204.3 173.701H1248.5M1204.3 173.701V216.334M1248.5 173.701H1293.99M1248.5 173.701V216.334M1293.99 173.701H1338.19M1293.99 173.701V216.334M1338.19 173.701H1382.38M1338.19 173.701V216.334M1382.38 173.701H1426.57M1382.38 173.701V216.334M1426.57 173.701H1472.07M1426.57 173.701V216.334M1472.07 173.701H1516.26M1472.07 173.701V216.334M1516.26 173.701H1560.46M1516.26 173.701V216.334M1560.46 173.701H1604.65M1560.46 173.701V216.334M1604.65 173.701H1650.14M1604.65 173.701V216.334M1650.14 173.701H1694.34M1650.14 173.701V216.334M1694.34 173.701V216.334M848.15 216.334H892.344M848.15 216.334V258.967M848.15 216.334H802.656M892.344 216.334H936.538M892.344 216.334V258.967M936.538 216.334H982.032M936.538 216.334V258.967M982.032 216.334H1026.23M982.032 216.334V258.967M1026.23 216.334H1070.42M1026.23 216.334V258.967M1070.42 216.334H1114.61M1070.42 216.334V258.967M1114.61 216.334H1160.11M1114.61 216.334V258.967M1160.11 216.334H1204.3M1160.11 216.334V258.967M1204.3 216.334H1248.5M1204.3 216.334V258.967M1248.5 216.334H1293.99M1248.5 216.334V258.967M1293.99 216.334H1338.19M1293.99 216.334V258.967M1338.19 216.334H1382.38M1338.19 216.334V258.967M1382.38 216.334H1426.57M1382.38 216.334V258.967M1426.57 216.334H1472.07M1426.57 216.334V258.967M1472.07 216.334H1516.26M1472.07 216.334V258.967M1516.26 216.334H1560.46M1516.26 216.334V258.967M1560.46 216.334H1604.65M1560.46 216.334V258.967M1604.65 216.334H1650.14M1604.65 216.334V258.967M1650.14 216.334H1694.34M1650.14 216.334V258.967M1694.34 216.334V258.967M848.15 258.967H892.344M848.15 258.967V302.853M848.15 258.967H802.656M892.344 258.967H936.538M892.344 258.967V302.853M936.538 258.967H982.032M936.538 258.967V302.853M982.032 258.967H1026.23M982.032 258.967V302.853M1026.23 258.967H1070.42M1026.23 258.967V302.853M1070.42 258.967H1114.61M1070.42 258.967V302.853M1114.61 258.967H1160.11M1114.61 258.967V302.853M1160.11 258.967H1204.3M1160.11 258.967V302.853M1204.3 258.967H1248.5M1204.3 258.967V302.853M1248.5 258.967H1293.99M1248.5 258.967V302.853M1293.99 258.967H1338.19M1293.99 258.967V302.853M1338.19 258.967H1382.38M1338.19 258.967V302.853M1382.38 258.967H1426.57M1382.38 258.967V302.853M1426.57 258.967H1472.07M1426.57 258.967V302.853M1472.07 258.967H1516.26M1472.07 258.967V302.853M1516.26 258.967H1560.46M1516.26 258.967V302.853M1560.46 258.967H1604.65M1560.46 258.967V302.853M1604.65 258.967H1650.14M1604.65 258.967V302.853M1650.14 258.967H1694.34M1650.14 258.967V302.853M1694.34 258.967V302.853M848.15 302.853H892.344M848.15 302.853V345.486M848.15 302.853H802.656M892.344 302.853H936.538M892.344 302.853V345.486M936.538 302.853H982.032M936.538 302.853V345.486M982.032 302.853H1026.23M982.032 302.853V345.486M1026.23 302.853H1070.42M1026.23 302.853V345.486M1070.42 302.853H1114.61M1070.42 302.853V345.486M1114.61 302.853H1160.11M1114.61 302.853V345.486M1160.11 302.853H1204.3M1160.11 302.853V345.486M1204.3 302.853H1248.5M1204.3 302.853V345.486M1248.5 302.853H1293.99M1248.5 302.853V345.486M1293.99 302.853H1338.19M1293.99 302.853V345.486M1338.19 302.853H1382.38M1338.19 302.853V345.486M1382.38 302.853H1426.57M1382.38 302.853V345.486M1426.57 302.853H1472.07M1426.57 302.853V345.486M1472.07 302.853H1516.26M1472.07 302.853V345.486M1516.26 302.853H1560.46M1516.26 302.853V345.486M1560.46 302.853H1604.65M1560.46 302.853V345.486M1604.65 302.853H1650.14M1604.65 302.853V345.486M1650.14 302.853H1694.34M1650.14 302.853V345.486M1694.34 302.853V345.486M848.15 345.486H892.344M848.15 345.486V388.119M848.15 345.486H802.656M892.344 345.486H936.538M892.344 345.486V388.119M936.538 345.486H982.032M936.538 345.486V388.119M982.032 345.486H1026.23M982.032 345.486V388.119M1026.23 345.486H1070.42M1026.23 345.486V388.119M1070.42 345.486H1114.61M1070.42 345.486V388.119M1114.61 345.486H1160.11M1114.61 345.486V388.119M1160.11 345.486H1204.3M1160.11 345.486V388.119M1204.3 345.486H1248.5M1204.3 345.486V388.119M1248.5 345.486H1293.99M1248.5 345.486V388.119M1293.99 345.486H1338.19M1293.99 345.486V388.119M1338.19 345.486H1382.38M1338.19 345.486V388.119M1382.38 345.486H1426.57M1382.38 345.486V388.119M1426.57 345.486H1472.07M1426.57 345.486V388.119M1472.07 345.486H1516.26M1472.07 345.486V388.119M1516.26 345.486H1560.46M1516.26 345.486V388.119M1560.46 345.486H1604.65M1560.46 345.486V388.119M1604.65 345.486H1650.14M1604.65 345.486V388.119M1650.14 345.486H1694.34M1650.14 345.486V388.119M1694.34 345.486V388.119M848.15 388.119H892.344M848.15 388.119V430.752M848.15 388.119H802.656M892.344 388.119H936.538M892.344 388.119V430.752M936.538 388.119H982.032M936.538 388.119V430.752M982.032 388.119H1026.23M982.032 388.119V430.752M1026.23 388.119H1070.42M1026.23 388.119V430.752M1070.42 388.119H1114.61M1070.42 388.119V430.752M1114.61 388.119H1160.11M1114.61 388.119V430.752M1160.11 388.119H1204.3M1160.11 388.119V430.752M1204.3 388.119H1248.5M1204.3 388.119V430.752M1248.5 388.119H1293.99M1248.5 388.119V430.752M1293.99 388.119H1338.19M1293.99 388.119V430.752M1338.19 388.119H1382.38M1338.19 388.119V430.752M1382.38 388.119H1426.57M1382.38 388.119V430.752M1426.57 388.119H1472.07M1426.57 388.119V430.752M1472.07 388.119H1516.26M1472.07 388.119V430.752M1516.26 388.119H1560.46M1516.26 388.119V430.752M1560.46 388.119H1604.65M1560.46 388.119V430.752M1604.65 388.119H1650.14M1604.65 388.119V430.752M1650.14 388.119H1694.34M1650.14 388.119V430.752M1694.34 388.119V430.752M848.15 430.752H892.344M848.15 430.752V474.639M848.15 430.752H802.656M892.344 430.752H936.538M892.344 430.752V474.639M936.538 430.752H982.032M936.538 430.752V474.639M982.032 430.752H1026.23M982.032 430.752V474.639M1026.23 430.752H1070.42M1026.23 430.752V474.639M1070.42 430.752H1114.61M1070.42 430.752V474.639M1114.61 430.752H1160.11M1114.61 430.752V474.639M1160.11 430.752H1204.3M1160.11 430.752V474.639M1204.3 430.752H1248.5M1204.3 430.752V474.639M1248.5 430.752H1293.99M1248.5 430.752V474.639M1293.99 430.752H1338.19M1293.99 430.752V474.639M1338.19 430.752H1382.38M1338.19 430.752V474.639M1382.38 430.752H1426.57M1382.38 430.752V474.639M1426.57 430.752H1472.07M1426.57 430.752V474.639M1472.07 430.752H1516.26M1472.07 430.752V474.639M1516.26 430.752H1560.46M1516.26 430.752V474.639M1560.46 430.752H1604.65M1560.46 430.752V474.639M1604.65 430.752H1650.14M1604.65 430.752V474.639M1650.14 430.752H1694.34M1650.14 430.752V474.639M1694.34 430.752V474.639M848.15 474.639H892.344M848.15 474.639V517.272M848.15 474.639H802.656M892.344 474.639H936.538M892.344 474.639V517.272M936.538 474.639H982.032M936.538 474.639V517.272M982.032 474.639H1026.23M982.032 474.639V517.272M1026.23 474.639H1070.42M1026.23 474.639V517.272M1070.42 474.639H1114.61M1070.42 474.639V517.272M1114.61 474.639H1160.11M1114.61 474.639V517.272M1160.11 474.639H1204.3M1160.11 474.639V517.272M1204.3 474.639H1248.5M1204.3 474.639V517.272M1248.5 474.639H1293.99M1248.5 474.639V517.272M1293.99 474.639H1338.19M1293.99 474.639V517.272M1338.19 474.639H1382.38M1338.19 474.639V517.272M1382.38 474.639H1426.57M1382.38 474.639V517.272M1426.57 474.639H1472.07M1426.57 474.639V517.272M1472.07 474.639H1516.26M1472.07 474.639V517.272M1516.26 474.639H1560.46M1516.26 474.639V517.272M1560.46 474.639H1604.65M1560.46 474.639V517.272M1604.65 474.639H1650.14M1604.65 474.639V517.272M1650.14 474.639H1694.34M1650.14 474.639V517.272M1694.34 474.639V517.272M848.15 517.272H892.344M848.15 517.272V559.905M848.15 517.272H802.656M892.344 517.272H936.538M892.344 517.272V559.905M936.538 517.272H982.032M936.538 517.272V559.905M982.032 517.272H1026.23M982.032 517.272V559.905M1026.23 517.272H1070.42M1026.23 517.272V559.905M1070.42 517.272H1114.61M1070.42 517.272V559.905M1114.61 517.272H1160.11M1114.61 517.272V559.905M1160.11 517.272H1204.3M1160.11 517.272V559.905M1204.3 517.272H1248.5M1204.3 517.272V559.905M1248.5 517.272H1293.99M1248.5 517.272V559.905M1293.99 517.272H1338.19M1293.99 517.272V559.905M1338.19 517.272H1382.38M1338.19 517.272V559.905M1382.38 517.272H1426.57M1382.38 517.272V559.905M1426.57 517.272H1472.07M1426.57 517.272V559.905M1472.07 517.272H1516.26M1472.07 517.272V559.905M1516.26 517.272H1560.46M1516.26 517.272V559.905M1560.46 517.272H1604.65M1560.46 517.272V559.905M1604.65 517.272H1650.14M1604.65 517.272V559.905M1650.14 517.272H1694.34M1650.14 517.272V559.905M1694.34 517.272V559.905M848.15 559.905H892.344M848.15 559.905V603.791M848.15 559.905H802.656M892.344 559.905H936.538M892.344 559.905V603.791M936.538 559.905H982.032M936.538 559.905V603.791M982.032 559.905H1026.23M982.032 559.905V603.791M1026.23 559.905H1070.42M1026.23 559.905V603.791M1070.42 559.905H1114.61M1070.42 559.905V603.791M1114.61 559.905H1160.11M1114.61 559.905V603.791M1160.11 559.905H1204.3M1160.11 559.905V603.791M1204.3 559.905H1248.5M1204.3 559.905V603.791M1248.5 559.905H1293.99M1248.5 559.905V603.791M1293.99 559.905H1338.19M1293.99 559.905V603.791M1338.19 559.905H1382.38M1338.19 559.905V603.791M1382.38 559.905H1426.57M1382.38 559.905V603.791M1426.57 559.905H1472.07M1426.57 559.905V603.791M1472.07 559.905H1516.26M1472.07 559.905V603.791M1516.26 559.905H1560.46M1516.26 559.905V603.791M1560.46 559.905H1604.65M1560.46 559.905V603.791M1604.65 559.905H1650.14M1604.65 559.905V603.791M1650.14 559.905H1694.34M1650.14 559.905V603.791M1694.34 559.905V603.791M848.15 603.791H892.344M848.15 603.791V646.424M848.15 603.791H802.656M892.344 603.791H936.538M892.344 603.791V646.424M936.538 603.791H982.032M936.538 603.791V646.424M982.032 603.791H1026.23M982.032 603.791V646.424M1026.23 603.791H1070.42M1026.23 603.791V646.424M1070.42 603.791H1114.61M1070.42 603.791V646.424M1114.61 603.791H1160.11M1114.61 603.791V646.424M1160.11 603.791H1204.3M1160.11 603.791V646.424M1204.3 603.791H1248.5M1204.3 603.791V646.424M1248.5 603.791H1293.99M1248.5 603.791V646.424M1293.99 603.791H1338.19M1293.99 603.791V646.424M1338.19 603.791H1382.38M1338.19 603.791V646.424M1382.38 603.791H1426.57M1382.38 603.791V646.424M1426.57 603.791H1472.07M1426.57 603.791V646.424M1472.07 603.791H1516.26M1472.07 603.791V646.424M1516.26 603.791H1560.46M1516.26 603.791V646.424M1560.46 603.791H1604.65M1560.46 603.791V646.424M1604.65 603.791H1650.14M1604.65 603.791V646.424M1650.14 603.791H1694.34M1650.14 603.791V646.424M1694.34 603.791V646.424M848.15 646.424H892.344M848.15 646.424V689.057M848.15 646.424H802.656M892.344 646.424H936.538M892.344 646.424V689.057M936.538 646.424H982.032M936.538 646.424V689.057M982.032 646.424H1026.23M982.032 646.424V689.057M1026.23 646.424H1070.42M1026.23 646.424V689.057M1070.42 646.424H1114.61M1070.42 646.424V689.057M1114.61 646.424H1160.11M1114.61 646.424V689.057M1160.11 646.424H1204.3M1160.11 646.424V689.057M1204.3 646.424H1248.5M1204.3 646.424V689.057M1248.5 646.424H1293.99M1248.5 646.424V689.057M1293.99 646.424H1338.19M1293.99 646.424V689.057M1338.19 646.424H1382.38M1338.19 646.424V689.057M1382.38 646.424H1426.57M1382.38 646.424V689.057M1426.57 646.424H1472.07M1426.57 646.424V689.057M1472.07 646.424H1516.26M1472.07 646.424V689.057M1516.26 646.424H1560.46M1516.26 646.424V689.057M1560.46 646.424H1604.65M1560.46 646.424V689.057M1604.65 646.424H1650.14M1604.65 646.424V689.057M1650.14 646.424H1694.34M1650.14 646.424V689.057M1694.34 646.424V689.057M848.15 689.057H892.344M848.15 689.057V731.69M848.15 689.057H802.656M892.344 689.057H936.538M892.344 689.057V731.69M936.538 689.057H982.032M936.538 689.057V731.69M982.032 689.057H1026.23M982.032 689.057V731.69M1026.23 689.057H1070.42M1026.23 689.057V731.69M1070.42 689.057H1114.61M1070.42 689.057V731.69M1114.61 689.057H1160.11M1114.61 689.057V731.69M1160.11 689.057H1204.3M1160.11 689.057V731.69M1204.3 689.057H1248.5M1204.3 689.057V731.69M1248.5 689.057H1293.99M1248.5 689.057V731.69M1293.99 689.057H1338.19M1293.99 689.057V731.69M1338.19 689.057H1382.38M1338.19 689.057V731.69M1382.38 689.057H1426.57M1382.38 689.057V731.69M1426.57 689.057H1472.07M1426.57 689.057V731.69M1472.07 689.057H1516.26M1472.07 689.057V731.69M1516.26 689.057H1560.46M1516.26 689.057V731.69M1560.46 689.057H1604.65M1560.46 689.057V731.69M1604.65 689.057H1650.14M1604.65 689.057V731.69M1650.14 689.057H1694.34M1650.14 689.057V731.69M1694.34 689.057V731.69M848.15 731.69H892.344M848.15 731.69V775.577M848.15 731.69H802.656M892.344 731.69H936.538M892.344 731.69V775.577M936.538 731.69H982.032M936.538 731.69V775.577M982.032 731.69H1026.23M982.032 731.69V775.577M1026.23 731.69H1070.42M1026.23 731.69V775.577M1070.42 731.69H1114.61M1070.42 731.69V775.577M1114.61 731.69H1160.11M1114.61 731.69V775.577M1160.11 731.69H1204.3M1160.11 731.69V775.577M1204.3 731.69H1248.5M1204.3 731.69V775.577M1248.5 731.69H1293.99M1248.5 731.69V775.577M1293.99 731.69H1338.19M1293.99 731.69V775.577M1338.19 731.69H1382.38M1338.19 731.69V775.577M1382.38 731.69H1426.57M1382.38 731.69V775.577M1426.57 731.69H1472.07M1426.57 731.69V775.577M1472.07 731.69H1516.26M1472.07 731.69V775.577M1516.26 731.69H1560.46M1516.26 731.69V775.577M1560.46 731.69H1604.65M1560.46 731.69V775.577M1604.65 731.69H1650.14M1604.65 731.69V775.577M1650.14 731.69H1694.34M1650.14 731.69V775.577M1694.34 731.69V775.577M848.15 775.577H892.344M848.15 775.577V818.21M848.15 775.577H802.656M892.344 775.577H936.538M892.344 775.577V818.21M936.538 775.577H982.032M936.538 775.577V818.21M982.032 775.577H1026.23M982.032 775.577V818.21M1026.23 775.577H1070.42M1026.23 775.577V818.21M1070.42 775.577H1114.61M1070.42 775.577V818.21M1114.61 775.577H1160.11M1114.61 775.577V818.21M1160.11 775.577H1204.3M1160.11 775.577V818.21M1204.3 775.577H1248.5M1204.3 775.577V818.21M1248.5 775.577H1293.99M1248.5 775.577V818.21M1293.99 775.577H1338.19M1293.99 775.577V818.21M1338.19 775.577H1382.38M1338.19 775.577V818.21M1382.38 775.577H1426.57M1382.38 775.577V818.21M1426.57 775.577H1472.07M1426.57 775.577V818.21M1472.07 775.577H1516.26M1472.07 775.577V818.21M1516.26 775.577H1560.46M1516.26 775.577V818.21M1560.46 775.577H1604.65M1560.46 775.577V818.21M1604.65 775.577H1650.14M1604.65 775.577V818.21M1650.14 775.577H1694.34M1650.14 775.577V818.21M1694.34 775.577V818.21M848.15 818.21H892.344M848.15 818.21V860.842M848.15 818.21H802.656M892.344 818.21H936.538M892.344 818.21V860.842M936.538 818.21H982.032M936.538 818.21V860.842M982.032 818.21H1026.23M982.032 818.21V860.842M1026.23 818.21H1070.42M1026.23 818.21V860.842M1070.42 818.21H1114.61M1070.42 818.21V860.842M1114.61 818.21H1160.11M1114.61 818.21V860.842M1160.11 818.21H1204.3M1160.11 818.21V860.842M1204.3 818.21H1248.5M1204.3 818.21V860.842M1248.5 818.21H1293.99M1248.5 818.21V860.842M1293.99 818.21H1338.19M1293.99 818.21V860.842M1338.19 818.21H1382.38M1338.19 818.21V860.842M1382.38 818.21H1426.57M1382.38 818.21V860.842M1426.57 818.21H1472.07M1426.57 818.21V860.842M1472.07 818.21H1516.26M1472.07 818.21V860.842M1516.26 818.21H1560.46M1516.26 818.21V860.842M1560.46 818.21H1604.65M1560.46 818.21V860.842M1604.65 818.21H1650.14M1604.65 818.21V860.842M1650.14 818.21H1694.34M1650.14 818.21V860.842M1694.34 818.21V860.842M848.15 860.842H892.344M848.15 860.842V904.729M848.15 860.842H802.656M892.344 860.842H936.538M892.344 860.842V904.729M936.538 860.842H982.032M936.538 860.842V904.729M982.032 860.842H1026.23M982.032 860.842V904.729M1026.23 860.842H1070.42M1026.23 860.842V904.729M1070.42 860.842H1114.61M1070.42 860.842V904.729M1114.61 860.842H1160.11M1114.61 860.842V904.729M1160.11 860.842H1204.3M1160.11 860.842V904.729M1204.3 860.842H1248.5M1204.3 860.842V904.729M1248.5 860.842H1293.99M1248.5 860.842V904.729M1293.99 860.842H1338.19M1293.99 860.842V904.729M1338.19 860.842H1382.38M1338.19 860.842V904.729M1382.38 860.842H1426.57M1382.38 860.842V904.729M1426.57 860.842H1472.07M1426.57 860.842V904.729M1472.07 860.842H1516.26M1472.07 860.842V904.729M1516.26 860.842H1560.46M1516.26 860.842V904.729M1560.46 860.842H1604.65M1560.46 860.842V904.729M1604.65 860.842H1650.14M1604.65 860.842V904.729M1650.14 860.842H1694.34M1650.14 860.842V904.729M1694.34 860.842V904.729M848.15 904.729H892.344M848.15 904.729V947.362M848.15 904.729H802.656M892.344 904.729H936.538M892.344 904.729V947.362M936.538 904.729H982.032M936.538 904.729V947.362M982.032 904.729H1026.23M982.032 904.729V947.362M1026.23 904.729H1070.42M1026.23 904.729V947.362M1070.42 904.729H1114.61M1070.42 904.729V947.362M1114.61 904.729H1160.11M1114.61 904.729V947.362M1160.11 904.729H1204.3M1160.11 904.729V947.362M1204.3 904.729H1248.5M1204.3 904.729V947.362M1248.5 904.729H1293.99M1248.5 904.729V947.362M1293.99 904.729H1338.19M1293.99 904.729V947.362M1338.19 904.729H1382.38M1338.19 904.729V947.362M1382.38 904.729H1426.57M1382.38 904.729V947.362M1426.57 904.729H1472.07M1426.57 904.729V947.362M1472.07 904.729H1516.26M1472.07 904.729V947.362M1516.26 904.729H1560.46M1516.26 904.729V947.362M1560.46 904.729H1604.65M1560.46 904.729V947.362M1604.65 904.729H1650.14M1604.65 904.729V947.362M1650.14 904.729H1694.34M1650.14 904.729V947.362M1694.34 904.729V947.362M848.15 947.362H892.344M848.15 947.362V989.995M848.15 947.362H802.656M892.344 947.362H936.538M892.344 947.362V989.995M936.538 947.362H982.032M936.538 947.362V989.995M982.032 947.362H1026.23M982.032 947.362V989.995M1026.23 947.362H1070.42M1026.23 947.362V989.995M1070.42 947.362H1114.61M1070.42 947.362V989.995M1114.61 947.362H1160.11M1114.61 947.362V989.995M1160.11 947.362H1204.3M1160.11 947.362V989.995M1204.3 947.362H1248.5M1204.3 947.362V989.995M1248.5 947.362H1293.99M1248.5 947.362V989.995M1293.99 947.362H1338.19M1293.99 947.362V989.995M1338.19 947.362H1382.38M1338.19 947.362V989.995M1382.38 947.362H1426.57M1382.38 947.362V989.995M1426.57 947.362H1472.07M1426.57 947.362V989.995M1472.07 947.362H1516.26M1472.07 947.362V989.995M1516.26 947.362H1560.46M1516.26 947.362V989.995M1560.46 947.362H1604.65M1560.46 947.362V989.995M1604.65 947.362H1650.14M1604.65 947.362V989.995M1650.14 947.362H1694.34M1650.14 947.362V989.995M1694.34 947.362V989.995M848.15 989.995H892.344M848.15 989.995V1033.88M848.15 989.995H802.656M892.344 989.995H936.538M892.344 989.995V1033.88M936.538 989.995H982.032M936.538 989.995V1033.88M982.032 989.995H1026.23M982.032 989.995V1033.88M1026.23 989.995H1070.42M1026.23 989.995V1033.88M1070.42 989.995H1114.61M1070.42 989.995V1033.88M1114.61 989.995H1160.11M1114.61 989.995V1033.88M1160.11 989.995H1204.3M1160.11 989.995V1033.88M1204.3 989.995H1248.5M1204.3 989.995V1033.88M1248.5 989.995H1293.99M1248.5 989.995V1033.88M1293.99 989.995H1338.19M1293.99 989.995V1033.88M1338.19 989.995H1382.38M1338.19 989.995V1033.88M1382.38 989.995H1426.57M1382.38 989.995V1033.88M1426.57 989.995H1472.07M1426.57 989.995V1033.88M1472.07 989.995H1516.26M1472.07 989.995V1033.88M1516.26 989.995H1560.46M1516.26 989.995V1033.88M1560.46 989.995H1604.65M1560.46 989.995V1033.88M1604.65 989.995H1650.14M1604.65 989.995V1033.88M1650.14 989.995H1694.34M1650.14 989.995V1033.88M1694.34 989.995V1033.88M848.15 1033.88H892.344M848.15 1033.88V1076.51M848.15 1033.88H802.656M892.344 1033.88H936.538M892.344 1033.88V1076.51M936.538 1033.88H982.032M936.538 1033.88V1076.51M982.032 1033.88H1026.23M982.032 1033.88V1076.51M1026.23 1033.88H1070.42M1026.23 1033.88V1076.51M1070.42 1033.88H1114.61M1070.42 1033.88V1076.51M1114.61 1033.88H1160.11M1114.61 1033.88V1076.51M1160.11 1033.88H1204.3M1160.11 1033.88V1076.51M1204.3 1033.88H1248.5M1204.3 1033.88V1076.51M1248.5 1033.88H1293.99M1248.5 1033.88V1076.51M1293.99 1033.88H1338.19M1293.99 1033.88V1076.51M1338.19 1033.88H1382.38M1338.19 1033.88V1076.51M1382.38 1033.88H1426.57M1382.38 1033.88V1076.51M1426.57 1033.88H1472.07M1426.57 1033.88V1076.51M1472.07 1033.88H1516.26M1472.07 1033.88V1076.51M1516.26 1033.88H1560.46M1516.26 1033.88V1076.51M1560.46 1033.88H1604.65M1560.46 1033.88V1076.51M1604.65 1033.88H1650.14M1604.65 1033.88V1076.51M1650.14 1033.88H1694.34M1650.14 1033.88V1076.51M1694.34 1033.88V1076.51M848.15 1076.51H892.344M848.15 1076.51V1119.15M848.15 1076.51H802.656M892.344 1076.51H936.538M892.344 1076.51V1119.15M936.538 1076.51H982.032M936.538 1076.51V1119.15M982.032 1076.51H1026.23M982.032 1076.51V1119.15M1026.23 1076.51H1070.42M1026.23 1076.51V1119.15M1070.42 1076.51H1114.61M1070.42 1076.51V1119.15M1114.61 1076.51H1160.11M1114.61 1076.51V1119.15M1160.11 1076.51H1204.3M1160.11 1076.51V1119.15M1204.3 1076.51H1248.5M1204.3 1076.51V1119.15M1248.5 1076.51H1293.99M1248.5 1076.51V1119.15M1293.99 1076.51H1338.19M1293.99 1076.51V1119.15M1338.19 1076.51H1382.38M1338.19 1076.51V1119.15M1382.38 1076.51H1426.57M1382.38 1076.51V1119.15M1426.57 1076.51H1472.07M1426.57 1076.51V1119.15M1472.07 1076.51H1516.26M1472.07 1076.51V1119.15M1516.26 1076.51H1560.46M1516.26 1076.51V1119.15M1560.46 1076.51H1604.65M1560.46 1076.51V1119.15M1604.65 1076.51H1650.14M1604.65 1076.51V1119.15M1650.14 1076.51H1694.34M1650.14 1076.51V1119.15M1694.34 1076.51V1119.15M848.15 1119.15H892.344M848.15 1119.15V1161.78M848.15 1119.15H802.656M892.344 1119.15H936.538M892.344 1119.15V1161.78M936.538 1119.15H982.032M936.538 1119.15V1161.78M982.032 1119.15H1026.23M982.032 1119.15V1161.78M1026.23 1119.15H1070.42M1026.23 1119.15V1161.78M1070.42 1119.15H1114.61M1070.42 1119.15V1161.78M1114.61 1119.15H1160.11M1114.61 1119.15V1161.78M1160.11 1119.15H1204.3M1160.11 1119.15V1161.78M1204.3 1119.15H1248.5M1204.3 1119.15V1161.78M1248.5 1119.15H1293.99M1248.5 1119.15V1161.78M1293.99 1119.15H1338.19M1293.99 1119.15V1161.78M1338.19 1119.15H1382.38M1338.19 1119.15V1161.78M1382.38 1119.15H1426.57M1382.38 1119.15V1161.78M1426.57 1119.15H1472.07M1426.57 1119.15V1161.78M1472.07 1119.15H1516.26M1472.07 1119.15V1161.78M1516.26 1119.15H1560.46M1516.26 1119.15V1161.78M1560.46 1119.15H1604.65M1560.46 1119.15V1161.78M1604.65 1119.15H1650.14M1604.65 1119.15V1161.78M1650.14 1119.15H1694.34M1650.14 1119.15V1161.78M1694.34 1119.15V1161.78M848.15 1161.78H892.344M848.15 1161.78V1205.67M848.15 1161.78H802.656M892.344 1161.78H936.538M892.344 1161.78V1205.67M936.538 1161.78H982.032M936.538 1161.78V1205.67M982.032 1161.78H1026.23M982.032 1161.78V1205.67M1026.23 1161.78H1070.42M1026.23 1161.78V1205.67M1070.42 1161.78H1114.61M1070.42 1161.78V1205.67M1114.61 1161.78H1160.11M1114.61 1161.78V1205.67M1160.11 1161.78H1204.3M1160.11 1161.78V1205.67M1204.3 1161.78H1248.5M1204.3 1161.78V1205.67M1248.5 1161.78H1293.99M1248.5 1161.78V1205.67M1293.99 1161.78H1338.19M1293.99 1161.78V1205.67M1338.19 1161.78H1382.38M1338.19 1161.78V1205.67M1382.38 1161.78H1426.57M1382.38 1161.78V1205.67M1426.57 1161.78H1472.07M1426.57 1161.78V1205.67M1472.07 1161.78H1516.26M1472.07 1161.78V1205.67M1516.26 1161.78H1560.46M1516.26 1161.78V1205.67M1560.46 1161.78H1604.65M1560.46 1161.78V1205.67M1604.65 1161.78H1650.14M1604.65 1161.78V1205.67M1650.14 1161.78H1694.34M1650.14 1161.78V1205.67M1694.34 1161.78V1205.67M848.15 1205.67H892.344M848.15 1205.67V1248.3M848.15 1205.67H802.656M892.344 1205.67H936.538M892.344 1205.67V1248.3M936.538 1205.67H982.032M936.538 1205.67V1248.3M982.032 1205.67H1026.23M982.032 1205.67V1248.3M1026.23 1205.67H1070.42M1026.23 1205.67V1248.3M1070.42 1205.67H1114.61M1070.42 1205.67V1248.3M1114.61 1205.67H1160.11M1114.61 1205.67V1248.3M1160.11 1205.67H1204.3M1160.11 1205.67V1248.3M1204.3 1205.67H1248.5M1204.3 1205.67V1248.3M1248.5 1205.67H1293.99M1248.5 1205.67V1248.3M1293.99 1205.67H1338.19M1293.99 1205.67V1248.3M1338.19 1205.67H1382.38M1338.19 1205.67V1248.3M1382.38 1205.67H1426.57M1382.38 1205.67V1248.3M1426.57 1205.67H1472.07M1426.57 1205.67V1248.3M1472.07 1205.67H1516.26M1472.07 1205.67V1248.3M1516.26 1205.67H1560.46M1516.26 1205.67V1248.3M1560.46 1205.67H1604.65M1560.46 1205.67V1248.3M1604.65 1205.67H1650.14M1604.65 1205.67V1248.3M1650.14 1205.67H1694.34M1650.14 1205.67V1248.3M1694.34 1205.67V1248.3M848.15 1248.3H892.344M848.15 1248.3V1290.93M848.15 1248.3H802.656M892.344 1248.3H936.538M892.344 1248.3V1290.93M936.538 1248.3H982.032M936.538 1248.3V1290.93M982.032 1248.3H1026.23M982.032 1248.3V1290.93M1026.23 1248.3H1070.42M1026.23 1248.3V1290.93M1070.42 1248.3H1114.61M1070.42 1248.3V1290.93M1114.61 1248.3H1160.11M1114.61 1248.3V1290.93M1160.11 1248.3H1204.3M1160.11 1248.3V1290.93M1204.3 1248.3H1248.5M1204.3 1248.3V1290.93M1248.5 1248.3H1293.99M1248.5 1248.3V1290.93M1293.99 1248.3H1338.19M1293.99 1248.3V1290.93M1338.19 1248.3H1382.38M1338.19 1248.3V1290.93M1382.38 1248.3H1426.57M1382.38 1248.3V1290.93M1426.57 1248.3H1472.07M1426.57 1248.3V1290.93M1472.07 1248.3H1516.26M1472.07 1248.3V1290.93M1516.26 1248.3H1560.46M1516.26 1248.3V1290.93M1560.46 1248.3H1604.65M1560.46 1248.3V1290.93M1604.65 1248.3H1650.14M1604.65 1248.3V1290.93M1650.14 1248.3H1694.34M1650.14 1248.3V1290.93M1694.34 1248.3V1290.93M848.15 1290.93H892.344M848.15 1290.93V1334.82M848.15 1290.93H802.656M892.344 1290.93H936.538M892.344 1290.93V1334.82M936.538 1290.93H982.032M936.538 1290.93V1334.82M982.032 1290.93H1026.23M982.032 1290.93V1334.82M1026.23 1290.93H1070.42M1026.23 1290.93V1334.82M1070.42 1290.93H1114.61M1070.42 1290.93V1334.82M1114.61 1290.93H1160.11M1114.61 1290.93V1334.82M1160.11 1290.93H1204.3M1160.11 1290.93V1334.82M1204.3 1290.93H1248.5M1204.3 1290.93V1334.82M1248.5 1290.93H1293.99M1248.5 1290.93V1334.82M1293.99 1290.93H1338.19M1293.99 1290.93V1334.82M1338.19 1290.93H1382.38M1338.19 1290.93V1334.82M1382.38 1290.93H1426.57M1382.38 1290.93V1334.82M1426.57 1290.93H1472.07M1426.57 1290.93V1334.82M1472.07 1290.93H1516.26M1472.07 1290.93V1334.82M1516.26 1290.93H1560.46M1516.26 1290.93V1334.82M1560.46 1290.93H1604.65M1560.46 1290.93V1334.82M1604.65 1290.93H1650.14M1604.65 1290.93V1334.82M1650.14 1290.93H1694.34M1650.14 1290.93V1334.82M1694.34 1290.93V1334.82M848.15 1334.82H892.344M848.15 1334.82V1377.45M848.15 1334.82H802.656M892.344 1334.82H936.538M892.344 1334.82V1377.45M936.538 1334.82H982.032M936.538 1334.82V1377.45M982.032 1334.82H1026.23M982.032 1334.82V1377.45M1026.23 1334.82H1070.42M1026.23 1334.82V1377.45M1070.42 1334.82H1114.61M1070.42 1334.82V1377.45M1114.61 1334.82H1160.11M1114.61 1334.82V1377.45M1160.11 1334.82H1204.3M1160.11 1334.82V1377.45M1204.3 1334.82H1248.5M1204.3 1334.82V1377.45M1248.5 1334.82H1293.99M1248.5 1334.82V1377.45M1293.99 1334.82H1338.19M1293.99 1334.82V1377.45M1338.19 1334.82H1382.38M1338.19 1334.82V1377.45M1382.38 1334.82H1426.57M1382.38 1334.82V1377.45M1426.57 1334.82H1472.07M1426.57 1334.82V1377.45M1472.07 1334.82H1516.26M1472.07 1334.82V1377.45M1516.26 1334.82H1560.46M1516.26 1334.82V1377.45M1560.46 1334.82H1604.65M1560.46 1334.82V1377.45M1604.65 1334.82H1650.14M1604.65 1334.82V1377.45M1650.14 1334.82H1694.34M1650.14 1334.82V1377.45M1694.34 1334.82V1377.45M848.15 1377.45H892.344M848.15 1377.45V1420.09M848.15 1377.45H802.656M892.344 1377.45H936.538M892.344 1377.45V1420.09M936.538 1377.45H982.032M936.538 1377.45V1420.09M982.032 1377.45H1026.23M982.032 1377.45V1420.09M1026.23 1377.45H1070.42M1026.23 1377.45V1420.09M1070.42 1377.45H1114.61M1070.42 1377.45V1420.09M1114.61 1377.45H1160.11M1114.61 1377.45V1420.09M1160.11 1377.45H1204.3M1160.11 1377.45V1420.09M1204.3 1377.45H1248.5M1204.3 1377.45V1420.09M1248.5 1377.45H1293.99M1248.5 1377.45V1420.09M1293.99 1377.45H1338.19M1293.99 1377.45V1420.09M1338.19 1377.45H1382.38M1338.19 1377.45V1420.09M1382.38 1377.45H1426.57M1382.38 1377.45V1420.09M1426.57 1377.45H1472.07M1426.57 1377.45V1420.09M1472.07 1377.45H1516.26M1472.07 1377.45V1420.09M1516.26 1377.45H1560.46M1516.26 1377.45V1420.09M1560.46 1377.45H1604.65M1560.46 1377.45V1420.09M1604.65 1377.45H1650.14M1604.65 1377.45V1420.09M1650.14 1377.45H1694.34M1650.14 1377.45V1420.09M1694.34 1377.45V1420.09M848.15 1420.09H892.344M848.15 1420.09V1463.97M848.15 1420.09H802.656M892.344 1420.09H936.538M892.344 1420.09V1463.97M936.538 1420.09H982.032M936.538 1420.09V1463.97M982.032 1420.09H1026.23M982.032 1420.09V1463.97M1026.23 1420.09H1070.42M1026.23 1420.09V1463.97M1070.42 1420.09H1114.61M1070.42 1420.09V1463.97M1114.61 1420.09H1160.11M1114.61 1420.09V1463.97M1160.11 1420.09H1204.3M1160.11 1420.09V1463.97M1204.3 1420.09H1248.5M1204.3 1420.09V1463.97M1248.5 1420.09H1293.99M1248.5 1420.09V1463.97M1293.99 1420.09H1338.19M1293.99 1420.09V1463.97M1338.19 1420.09H1382.38M1338.19 1420.09V1463.97M1382.38 1420.09H1426.57M1382.38 1420.09V1463.97M1426.57 1420.09H1472.07M1426.57 1420.09V1463.97M1472.07 1420.09H1516.26M1472.07 1420.09V1463.97M1516.26 1420.09H1560.46M1516.26 1420.09V1463.97M1560.46 1420.09H1604.65M1560.46 1420.09V1463.97M1604.65 1420.09H1650.14M1604.65 1420.09V1463.97M1650.14 1420.09H1694.34M1650.14 1420.09V1463.97M1694.34 1420.09V1463.97M848.15 1463.97H892.344M848.15 1463.97V1506.61M848.15 1463.97H802.656M892.344 1463.97H936.538M892.344 1463.97V1506.61M936.538 1463.97H982.032M936.538 1463.97V1506.61M982.032 1463.97H1026.23M982.032 1463.97V1506.61M1026.23 1463.97H1070.42M1026.23 1463.97V1506.61M1070.42 1463.97H1114.61M1070.42 1463.97V1506.61M1114.61 1463.97H1160.11M1114.61 1463.97V1506.61M1160.11 1463.97H1204.3M1160.11 1463.97V1506.61M1204.3 1463.97H1248.5M1204.3 1463.97V1506.61M1248.5 1463.97H1293.99M1248.5 1463.97V1506.61M1293.99 1463.97H1338.19M1293.99 1463.97V1506.61M1338.19 1463.97H1382.38M1338.19 1463.97V1506.61M1382.38 1463.97H1426.57M1382.38 1463.97V1506.61M1426.57 1463.97H1472.07M1426.57 1463.97V1506.61M1472.07 1463.97H1516.26M1472.07 1463.97V1506.61M1516.26 1463.97H1560.46M1516.26 1463.97V1506.61M1560.46 1463.97H1604.65M1560.46 1463.97V1506.61M1604.65 1463.97H1650.14M1604.65 1463.97V1506.61M1650.14 1463.97H1694.34M1650.14 1463.97V1506.61M1694.34 1463.97V1506.61M848.15 1506.61H892.344M848.15 1506.61V1549.24M848.15 1506.61H802.656M892.344 1506.61H936.538M892.344 1506.61V1549.24M936.538 1506.61H982.032M936.538 1506.61V1549.24M982.032 1506.61H1026.23M982.032 1506.61V1549.24M1026.23 1506.61H1070.42M1026.23 1506.61V1549.24M1070.42 1506.61H1114.61M1070.42 1506.61V1549.24M1114.61 1506.61H1160.11M1114.61 1506.61V1549.24M1160.11 1506.61H1204.3M1160.11 1506.61V1549.24M1204.3 1506.61H1248.5M1204.3 1506.61V1549.24M1248.5 1506.61H1293.99M1248.5 1506.61V1549.24M1293.99 1506.61H1338.19M1293.99 1506.61V1549.24M1338.19 1506.61H1382.38M1338.19 1506.61V1549.24M1382.38 1506.61H1426.57M1382.38 1506.61V1549.24M1426.57 1506.61H1472.07M1426.57 1506.61V1549.24M1472.07 1506.61H1516.26M1472.07 1506.61V1549.24M1516.26 1506.61H1560.46M1516.26 1506.61V1549.24M1560.46 1506.61H1604.65M1560.46 1506.61V1549.24M1604.65 1506.61H1650.14M1604.65 1506.61V1549.24M1650.14 1506.61H1694.34M1650.14 1506.61V1549.24M1694.34 1506.61V1549.24M848.15 1549.24H892.344M848.15 1549.24V1591.87M848.15 1549.24H802.656M892.344 1549.24H936.538M892.344 1549.24V1591.87M936.538 1549.24H982.032M936.538 1549.24V1591.87M982.032 1549.24H1026.23M982.032 1549.24V1591.87M1026.23 1549.24H1070.42M1026.23 1549.24V1591.87M1070.42 1549.24H1114.61M1070.42 1549.24V1591.87M1114.61 1549.24H1160.11M1114.61 1549.24V1591.87M1160.11 1549.24H1204.3M1160.11 1549.24V1591.87M1204.3 1549.24H1248.5M1204.3 1549.24V1591.87M1248.5 1549.24H1293.99M1248.5 1549.24V1591.87M1293.99 1549.24H1338.19M1293.99 1549.24V1591.87M1338.19 1549.24H1382.38M1338.19 1549.24V1591.87M1382.38 1549.24H1426.57M1382.38 1549.24V1591.87M1426.57 1549.24H1472.07M1426.57 1549.24V1591.87M1472.07 1549.24H1516.26M1472.07 1549.24V1591.87M1516.26 1549.24H1560.46M1516.26 1549.24V1591.87M1560.46 1549.24H1604.65M1560.46 1549.24V1591.87M1604.65 1549.24H1650.14M1604.65 1549.24V1591.87M1650.14 1549.24H1694.34M1650.14 1549.24V1591.87M1694.34 1549.24V1591.87H1650.14M848.15 1591.87H892.344M848.15 1591.87H802.656M892.344 1591.87H936.538M936.538 1591.87H982.032M982.032 1591.87H1026.23M1026.23 1591.87H1070.42M1070.42 1591.87H1114.61M1114.61 1591.87H1160.11M1160.11 1591.87H1204.3M1204.3 1591.87H1248.5M1248.5 1591.87H1293.99M1293.99 1591.87H1338.19M1338.19 1591.87H1382.38M1382.38 1591.87H1426.57M1426.57 1591.87H1472.07M1472.07 1591.87H1516.26M1516.26 1591.87H1560.46M1560.46 1591.87H1604.65M1604.65 1591.87H1650.14M46.1557 0.661633H0.661755V44.5484M46.1557 0.661633V44.5484M46.1557 0.661633H90.3499M0.661755 44.5484H46.1557M0.661755 44.5484V87.1813M46.1557 44.5484H90.3499M46.1557 44.5484V87.1813M90.3499 0.661633V44.5484M90.3499 0.661633H134.544M90.3499 44.5484H134.544M90.3499 44.5484V87.1813M134.544 0.661633V44.5484M134.544 0.661633H180.038M134.544 44.5484H180.038M134.544 44.5484V87.1813M180.038 0.661633V44.5484M180.038 0.661633H224.232M180.038 44.5484H224.232M180.038 44.5484V87.1813M224.232 0.661633V44.5484M224.232 0.661633H268.426M224.232 44.5484H268.426M224.232 44.5484V87.1813M268.426 0.661633V44.5484M268.426 0.661633H312.621M268.426 44.5484H312.621M268.426 44.5484V87.1813M312.621 0.661633V44.5484M312.621 0.661633H358.115M312.621 44.5484H358.115M312.621 44.5484V87.1813M358.115 0.661633V44.5484M358.115 0.661633H402.309M358.115 44.5484H402.309M358.115 44.5484V87.1813M402.309 0.661633V44.5484M402.309 0.661633H446.503M402.309 44.5484H446.503M402.309 44.5484V87.1813M446.503 0.661633V44.5484M446.503 0.661633H490.697M446.503 44.5484H490.697M446.503 44.5484V87.1813M490.697 0.661633V44.5484M490.697 0.661633H536.191M490.697 44.5484H536.191M490.697 44.5484V87.1813M536.191 0.661633V44.5484M536.191 0.661633H580.385M536.191 44.5484H580.385M536.191 44.5484V87.1813M580.385 0.661633V44.5484M580.385 0.661633H624.579M580.385 44.5484H624.579M580.385 44.5484V87.1813M624.579 0.661633V44.5484M624.579 0.661633H670.073M624.579 44.5484H670.073M624.579 44.5484V87.1813M670.073 0.661633V44.5484M670.073 0.661633H714.268M670.073 44.5484H714.268M670.073 44.5484V87.1813M714.268 0.661633V44.5484M714.268 0.661633H758.462M714.268 44.5484H758.462M714.268 44.5484V87.1813M758.462 0.661633V44.5484M758.462 0.661633H802.656M758.462 44.5484H802.656M758.462 44.5484V87.1813M802.656 0.661633V44.5484M802.656 44.5484V87.1813M0.661755 87.1813H46.1557M0.661755 87.1813V129.814M46.1557 87.1813H90.3499M46.1557 87.1813V129.814M90.3499 87.1813H134.544M90.3499 87.1813V129.814M134.544 87.1813H180.038M134.544 87.1813V129.814M180.038 87.1813H224.232M180.038 87.1813V129.814M224.232 87.1813H268.426M224.232 87.1813V129.814M268.426 87.1813H312.621M268.426 87.1813V129.814M312.621 87.1813H358.115M312.621 87.1813V129.814M358.115 87.1813H402.309M358.115 87.1813V129.814M402.309 87.1813H446.503M402.309 87.1813V129.814M446.503 87.1813H490.697M446.503 87.1813V129.814M490.697 87.1813H536.191M490.697 87.1813V129.814M536.191 87.1813H580.385M536.191 87.1813V129.814M580.385 87.1813H624.579M580.385 87.1813V129.814M624.579 87.1813H670.073M624.579 87.1813V129.814M670.073 87.1813H714.268M670.073 87.1813V129.814M714.268 87.1813H758.462M714.268 87.1813V129.814M758.462 87.1813H802.656M758.462 87.1813V129.814M802.656 87.1813V129.814M0.661755 129.814H46.1557M0.661755 129.814V173.701M46.1557 129.814H90.3499M46.1557 129.814V173.701M90.3499 129.814H134.544M90.3499 129.814V173.701M134.544 129.814H180.038M134.544 129.814V173.701M180.038 129.814H224.232M180.038 129.814V173.701M224.232 129.814H268.426M224.232 129.814V173.701M268.426 129.814H312.621M268.426 129.814V173.701M312.621 129.814H358.115M312.621 129.814V173.701M358.115 129.814H402.309M358.115 129.814V173.701M402.309 129.814H446.503M402.309 129.814V173.701M446.503 129.814H490.697M446.503 129.814V173.701M490.697 129.814H536.191M490.697 129.814V173.701M536.191 129.814H580.385M536.191 129.814V173.701M580.385 129.814H624.579M580.385 129.814V173.701M624.579 129.814H670.073M624.579 129.814V173.701M670.073 129.814H714.268M670.073 129.814V173.701M714.268 129.814H758.462M714.268 129.814V173.701M758.462 129.814H802.656M758.462 129.814V173.701M802.656 129.814V173.701M0.661755 173.701H46.1557M0.661755 173.701V216.334M46.1557 173.701H90.3499M46.1557 173.701V216.334M90.3499 173.701H134.544M90.3499 173.701V216.334M134.544 173.701H180.038M134.544 173.701V216.334M180.038 173.701H224.232M180.038 173.701V216.334M224.232 173.701H268.426M224.232 173.701V216.334M268.426 173.701H312.621M268.426 173.701V216.334M312.621 173.701H358.115M312.621 173.701V216.334M358.115 173.701H402.309M358.115 173.701V216.334M402.309 173.701H446.503M402.309 173.701V216.334M446.503 173.701H490.697M446.503 173.701V216.334M490.697 173.701H536.191M490.697 173.701V216.334M536.191 173.701H580.385M536.191 173.701V216.334M580.385 173.701H624.579M580.385 173.701V216.334M624.579 173.701H670.073M624.579 173.701V216.334M670.073 173.701H714.268M670.073 173.701V216.334M714.268 173.701H758.462M714.268 173.701V216.334M758.462 173.701H802.656M758.462 173.701V216.334M802.656 173.701V216.334M0.661755 216.334H46.1557M0.661755 216.334V258.967M46.1557 216.334H90.3499M46.1557 216.334V258.967M90.3499 216.334H134.544M90.3499 216.334V258.967M134.544 216.334H180.038M134.544 216.334V258.967M180.038 216.334H224.232M180.038 216.334V258.967M224.232 216.334H268.426M224.232 216.334V258.967M268.426 216.334H312.621M268.426 216.334V258.967M312.621 216.334H358.115M312.621 216.334V258.967M358.115 216.334H402.309M358.115 216.334V258.967M402.309 216.334H446.503M402.309 216.334V258.967M446.503 216.334H490.697M446.503 216.334V258.967M490.697 216.334H536.191M490.697 216.334V258.967M536.191 216.334H580.385M536.191 216.334V258.967M580.385 216.334H624.579M580.385 216.334V258.967M624.579 216.334H670.073M624.579 216.334V258.967M670.073 216.334H714.268M670.073 216.334V258.967M714.268 216.334H758.462M714.268 216.334V258.967M758.462 216.334H802.656M758.462 216.334V258.967M802.656 216.334V258.967M0.661755 258.967H46.1557M0.661755 258.967V302.853M46.1557 258.967H90.3499M46.1557 258.967V302.853M90.3499 258.967H134.544M90.3499 258.967V302.853M134.544 258.967H180.038M134.544 258.967V302.853M180.038 258.967H224.232M180.038 258.967V302.853M224.232 258.967H268.426M224.232 258.967V302.853M268.426 258.967H312.621M268.426 258.967V302.853M312.621 258.967H358.115M312.621 258.967V302.853M358.115 258.967H402.309M358.115 258.967V302.853M402.309 258.967H446.503M402.309 258.967V302.853M446.503 258.967H490.697M446.503 258.967V302.853M490.697 258.967H536.191M490.697 258.967V302.853M536.191 258.967H580.385M536.191 258.967V302.853M580.385 258.967H624.579M580.385 258.967V302.853M624.579 258.967H670.073M624.579 258.967V302.853M670.073 258.967H714.268M670.073 258.967V302.853M714.268 258.967H758.462M714.268 258.967V302.853M758.462 258.967H802.656M758.462 258.967V302.853M802.656 258.967V302.853M0.661755 302.853H46.1557M0.661755 302.853V345.486M46.1557 302.853H90.3499M46.1557 302.853V345.486M90.3499 302.853H134.544M90.3499 302.853V345.486M134.544 302.853H180.038M134.544 302.853V345.486M180.038 302.853H224.232M180.038 302.853V345.486M224.232 302.853H268.426M224.232 302.853V345.486M268.426 302.853H312.621M268.426 302.853V345.486M312.621 302.853H358.115M312.621 302.853V345.486M358.115 302.853H402.309M358.115 302.853V345.486M402.309 302.853H446.503M402.309 302.853V345.486M446.503 302.853H490.697M446.503 302.853V345.486M490.697 302.853H536.191M490.697 302.853V345.486M536.191 302.853H580.385M536.191 302.853V345.486M580.385 302.853H624.579M580.385 302.853V345.486M624.579 302.853H670.073M624.579 302.853V345.486M670.073 302.853H714.268M670.073 302.853V345.486M714.268 302.853H758.462M714.268 302.853V345.486M758.462 302.853H802.656M758.462 302.853V345.486M802.656 302.853V345.486M0.661755 345.486H46.1557M0.661755 345.486V388.119M46.1557 345.486H90.3499M46.1557 345.486V388.119M90.3499 345.486H134.544M90.3499 345.486V388.119M134.544 345.486H180.038M134.544 345.486V388.119M180.038 345.486H224.232M180.038 345.486V388.119M224.232 345.486H268.426M224.232 345.486V388.119M268.426 345.486H312.621M268.426 345.486V388.119M312.621 345.486H358.115M312.621 345.486V388.119M358.115 345.486H402.309M358.115 345.486V388.119M402.309 345.486H446.503M402.309 345.486V388.119M446.503 345.486H490.697M446.503 345.486V388.119M490.697 345.486H536.191M490.697 345.486V388.119M536.191 345.486H580.385M536.191 345.486V388.119M580.385 345.486H624.579M580.385 345.486V388.119M624.579 345.486H670.073M624.579 345.486V388.119M670.073 345.486H714.268M670.073 345.486V388.119M714.268 345.486H758.462M714.268 345.486V388.119M758.462 345.486H802.656M758.462 345.486V388.119M802.656 345.486V388.119M0.661755 388.119H46.1557M0.661755 388.119V430.752M46.1557 388.119H90.3499M46.1557 388.119V430.752M90.3499 388.119H134.544M90.3499 388.119V430.752M134.544 388.119H180.038M134.544 388.119V430.752M180.038 388.119H224.232M180.038 388.119V430.752M224.232 388.119H268.426M224.232 388.119V430.752M268.426 388.119H312.621M268.426 388.119V430.752M312.621 388.119H358.115M312.621 388.119V430.752M358.115 388.119H402.309M358.115 388.119V430.752M402.309 388.119H446.503M402.309 388.119V430.752M446.503 388.119H490.697M446.503 388.119V430.752M490.697 388.119H536.191M490.697 388.119V430.752M536.191 388.119H580.385M536.191 388.119V430.752M580.385 388.119H624.579M580.385 388.119V430.752M624.579 388.119H670.073M624.579 388.119V430.752M670.073 388.119H714.268M670.073 388.119V430.752M714.268 388.119H758.462M714.268 388.119V430.752M758.462 388.119H802.656M758.462 388.119V430.752M802.656 388.119V430.752M0.661755 430.752H46.1557M0.661755 430.752V474.639M46.1557 430.752H90.3499M46.1557 430.752V474.639M90.3499 430.752H134.544M90.3499 430.752V474.639M134.544 430.752H180.038M134.544 430.752V474.639M180.038 430.752H224.232M180.038 430.752V474.639M224.232 430.752H268.426M224.232 430.752V474.639M268.426 430.752H312.621M268.426 430.752V474.639M312.621 430.752H358.115M312.621 430.752V474.639M358.115 430.752H402.309M358.115 430.752V474.639M402.309 430.752H446.503M402.309 430.752V474.639M446.503 430.752H490.697M446.503 430.752V474.639M490.697 430.752H536.191M490.697 430.752V474.639M536.191 430.752H580.385M536.191 430.752V474.639M580.385 430.752H624.579M580.385 430.752V474.639M624.579 430.752H670.073M624.579 430.752V474.639M670.073 430.752H714.268M670.073 430.752V474.639M714.268 430.752H758.462M714.268 430.752V474.639M758.462 430.752H802.656M758.462 430.752V474.639M802.656 430.752V474.639M0.661755 474.639H46.1557M0.661755 474.639V517.272M46.1557 474.639H90.3499M46.1557 474.639V517.272M90.3499 474.639H134.544M90.3499 474.639V517.272M134.544 474.639H180.038M134.544 474.639V517.272M180.038 474.639H224.232M180.038 474.639V517.272M224.232 474.639H268.426M224.232 474.639V517.272M268.426 474.639H312.621M268.426 474.639V517.272M312.621 474.639H358.115M312.621 474.639V517.272M358.115 474.639H402.309M358.115 474.639V517.272M402.309 474.639H446.503M402.309 474.639V517.272M446.503 474.639H490.697M446.503 474.639V517.272M490.697 474.639H536.191M490.697 474.639V517.272M536.191 474.639H580.385M536.191 474.639V517.272M580.385 474.639H624.579M580.385 474.639V517.272M624.579 474.639H670.073M624.579 474.639V517.272M670.073 474.639H714.268M670.073 474.639V517.272M714.268 474.639H758.462M714.268 474.639V517.272M758.462 474.639H802.656M758.462 474.639V517.272M802.656 474.639V517.272M0.661755 517.272H46.1557M0.661755 517.272V559.905M46.1557 517.272H90.3499M46.1557 517.272V559.905M90.3499 517.272H134.544M90.3499 517.272V559.905M134.544 517.272H180.038M134.544 517.272V559.905M180.038 517.272H224.232M180.038 517.272V559.905M224.232 517.272H268.426M224.232 517.272V559.905M268.426 517.272H312.621M268.426 517.272V559.905M312.621 517.272H358.115M312.621 517.272V559.905M358.115 517.272H402.309M358.115 517.272V559.905M402.309 517.272H446.503M402.309 517.272V559.905M446.503 517.272H490.697M446.503 517.272V559.905M490.697 517.272H536.191M490.697 517.272V559.905M536.191 517.272H580.385M536.191 517.272V559.905M580.385 517.272H624.579M580.385 517.272V559.905M624.579 517.272H670.073M624.579 517.272V559.905M670.073 517.272H714.268M670.073 517.272V559.905M714.268 517.272H758.462M714.268 517.272V559.905M758.462 517.272H802.656M758.462 517.272V559.905M802.656 517.272V559.905M0.661755 559.905H46.1557M0.661755 559.905V603.791M46.1557 559.905H90.3499M46.1557 559.905V603.791M90.3499 559.905H134.544M90.3499 559.905V603.791M134.544 559.905H180.038M134.544 559.905V603.791M180.038 559.905H224.232M180.038 559.905V603.791M224.232 559.905H268.426M224.232 559.905V603.791M268.426 559.905H312.621M268.426 559.905V603.791M312.621 559.905H358.115M312.621 559.905V603.791M358.115 559.905H402.309M358.115 559.905V603.791M402.309 559.905H446.503M402.309 559.905V603.791M446.503 559.905H490.697M446.503 559.905V603.791M490.697 559.905H536.191M490.697 559.905V603.791M536.191 559.905H580.385M536.191 559.905V603.791M580.385 559.905H624.579M580.385 559.905V603.791M624.579 559.905H670.073M624.579 559.905V603.791M670.073 559.905H714.268M670.073 559.905V603.791M714.268 559.905H758.462M714.268 559.905V603.791M758.462 559.905H802.656M758.462 559.905V603.791M802.656 559.905V603.791M0.661755 603.791H46.1557M0.661755 603.791V646.424M46.1557 603.791H90.3499M46.1557 603.791V646.424M90.3499 603.791H134.544M90.3499 603.791V646.424M134.544 603.791H180.038M134.544 603.791V646.424M180.038 603.791H224.232M180.038 603.791V646.424M224.232 603.791H268.426M224.232 603.791V646.424M268.426 603.791H312.621M268.426 603.791V646.424M312.621 603.791H358.115M312.621 603.791V646.424M358.115 603.791H402.309M358.115 603.791V646.424M402.309 603.791H446.503M402.309 603.791V646.424M446.503 603.791H490.697M446.503 603.791V646.424M490.697 603.791H536.191M490.697 603.791V646.424M536.191 603.791H580.385M536.191 603.791V646.424M580.385 603.791H624.579M580.385 603.791V646.424M624.579 603.791H670.073M624.579 603.791V646.424M670.073 603.791H714.268M670.073 603.791V646.424M714.268 603.791H758.462M714.268 603.791V646.424M758.462 603.791H802.656M758.462 603.791V646.424M802.656 603.791V646.424M0.661755 646.424H46.1557M0.661755 646.424V689.057M46.1557 646.424H90.3499M46.1557 646.424V689.057M90.3499 646.424H134.544M90.3499 646.424V689.057M134.544 646.424H180.038M134.544 646.424V689.057M180.038 646.424H224.232M180.038 646.424V689.057M224.232 646.424H268.426M224.232 646.424V689.057M268.426 646.424H312.621M268.426 646.424V689.057M312.621 646.424H358.115M312.621 646.424V689.057M358.115 646.424H402.309M358.115 646.424V689.057M402.309 646.424H446.503M402.309 646.424V689.057M446.503 646.424H490.697M446.503 646.424V689.057M490.697 646.424H536.191M490.697 646.424V689.057M536.191 646.424H580.385M536.191 646.424V689.057M580.385 646.424H624.579M580.385 646.424V689.057M624.579 646.424H670.073M624.579 646.424V689.057M670.073 646.424H714.268M670.073 646.424V689.057M714.268 646.424H758.462M714.268 646.424V689.057M758.462 646.424H802.656M758.462 646.424V689.057M802.656 646.424V689.057M0.661755 689.057H46.1557M0.661755 689.057V731.69M46.1557 689.057H90.3499M46.1557 689.057V731.69M90.3499 689.057H134.544M90.3499 689.057V731.69M134.544 689.057H180.038M134.544 689.057V731.69M180.038 689.057H224.232M180.038 689.057V731.69M224.232 689.057H268.426M224.232 689.057V731.69M268.426 689.057H312.621M268.426 689.057V731.69M312.621 689.057H358.115M312.621 689.057V731.69M358.115 689.057H402.309M358.115 689.057V731.69M402.309 689.057H446.503M402.309 689.057V731.69M446.503 689.057H490.697M446.503 689.057V731.69M490.697 689.057H536.191M490.697 689.057V731.69M536.191 689.057H580.385M536.191 689.057V731.69M580.385 689.057H624.579M580.385 689.057V731.69M624.579 689.057H670.073M624.579 689.057V731.69M670.073 689.057H714.268M670.073 689.057V731.69M714.268 689.057H758.462M714.268 689.057V731.69M758.462 689.057H802.656M758.462 689.057V731.69M802.656 689.057V731.69M0.661755 731.69H46.1557M0.661755 731.69V775.577M46.1557 731.69H90.3499M46.1557 731.69V775.577M90.3499 731.69H134.544M90.3499 731.69V775.577M134.544 731.69H180.038M134.544 731.69V775.577M180.038 731.69H224.232M180.038 731.69V775.577M224.232 731.69H268.426M224.232 731.69V775.577M268.426 731.69H312.621M268.426 731.69V775.577M312.621 731.69H358.115M312.621 731.69V775.577M358.115 731.69H402.309M358.115 731.69V775.577M402.309 731.69H446.503M402.309 731.69V775.577M446.503 731.69H490.697M446.503 731.69V775.577M490.697 731.69H536.191M490.697 731.69V775.577M536.191 731.69H580.385M536.191 731.69V775.577M580.385 731.69H624.579M580.385 731.69V775.577M624.579 731.69H670.073M624.579 731.69V775.577M670.073 731.69H714.268M670.073 731.69V775.577M714.268 731.69H758.462M714.268 731.69V775.577M758.462 731.69H802.656M758.462 731.69V775.577M802.656 731.69V775.577M0.661755 775.577H46.1557M0.661755 775.577V818.21M46.1557 775.577H90.3499M46.1557 775.577V818.21M90.3499 775.577H134.544M90.3499 775.577V818.21M134.544 775.577H180.038M134.544 775.577V818.21M180.038 775.577H224.232M180.038 775.577V818.21M224.232 775.577H268.426M224.232 775.577V818.21M268.426 775.577H312.621M268.426 775.577V818.21M312.621 775.577H358.115M312.621 775.577V818.21M358.115 775.577H402.309M358.115 775.577V818.21M402.309 775.577H446.503M402.309 775.577V818.21M446.503 775.577H490.697M446.503 775.577V818.21M490.697 775.577H536.191M490.697 775.577V818.21M536.191 775.577H580.385M536.191 775.577V818.21M580.385 775.577H624.579M580.385 775.577V818.21M624.579 775.577H670.073M624.579 775.577V818.21M670.073 775.577H714.268M670.073 775.577V818.21M714.268 775.577H758.462M714.268 775.577V818.21M758.462 775.577H802.656M758.462 775.577V818.21M802.656 775.577V818.21M0.661755 818.21H46.1557M0.661755 818.21V860.842M46.1557 818.21H90.3499M46.1557 818.21V860.842M90.3499 818.21H134.544M90.3499 818.21V860.842M134.544 818.21H180.038M134.544 818.21V860.842M180.038 818.21H224.232M180.038 818.21V860.842M224.232 818.21H268.426M224.232 818.21V860.842M268.426 818.21H312.621M268.426 818.21V860.842M312.621 818.21H358.115M312.621 818.21V860.842M358.115 818.21H402.309M358.115 818.21V860.842M402.309 818.21H446.503M402.309 818.21V860.842M446.503 818.21H490.697M446.503 818.21V860.842M490.697 818.21H536.191M490.697 818.21V860.842M536.191 818.21H580.385M536.191 818.21V860.842M580.385 818.21H624.579M580.385 818.21V860.842M624.579 818.21H670.073M624.579 818.21V860.842M670.073 818.21H714.268M670.073 818.21V860.842M714.268 818.21H758.462M714.268 818.21V860.842M758.462 818.21H802.656M758.462 818.21V860.842M802.656 818.21V860.842M0.661755 860.842H46.1557M0.661755 860.842V904.729M46.1557 860.842H90.3499M46.1557 860.842V904.729M90.3499 860.842H134.544M90.3499 860.842V904.729M134.544 860.842H180.038M134.544 860.842V904.729M180.038 860.842H224.232M180.038 860.842V904.729M224.232 860.842H268.426M224.232 860.842V904.729M268.426 860.842H312.621M268.426 860.842V904.729M312.621 860.842H358.115M312.621 860.842V904.729M358.115 860.842H402.309M358.115 860.842V904.729M402.309 860.842H446.503M402.309 860.842V904.729M446.503 860.842H490.697M446.503 860.842V904.729M490.697 860.842H536.191M490.697 860.842V904.729M536.191 860.842H580.385M536.191 860.842V904.729M580.385 860.842H624.579M580.385 860.842V904.729M624.579 860.842H670.073M624.579 860.842V904.729M670.073 860.842H714.268M670.073 860.842V904.729M714.268 860.842H758.462M714.268 860.842V904.729M758.462 860.842H802.656M758.462 860.842V904.729M802.656 860.842V904.729M0.661755 904.729H46.1557M0.661755 904.729V947.362M46.1557 904.729H90.3499M46.1557 904.729V947.362M90.3499 904.729H134.544M90.3499 904.729V947.362M134.544 904.729H180.038M134.544 904.729V947.362M180.038 904.729H224.232M180.038 904.729V947.362M224.232 904.729H268.426M224.232 904.729V947.362M268.426 904.729H312.621M268.426 904.729V947.362M312.621 904.729H358.115M312.621 904.729V947.362M358.115 904.729H402.309M358.115 904.729V947.362M402.309 904.729H446.503M402.309 904.729V947.362M446.503 904.729H490.697M446.503 904.729V947.362M490.697 904.729H536.191M490.697 904.729V947.362M536.191 904.729H580.385M536.191 904.729V947.362M580.385 904.729H624.579M580.385 904.729V947.362M624.579 904.729H670.073M624.579 904.729V947.362M670.073 904.729H714.268M670.073 904.729V947.362M714.268 904.729H758.462M714.268 904.729V947.362M758.462 904.729H802.656M758.462 904.729V947.362M802.656 904.729V947.362M0.661755 947.362H46.1557M0.661755 947.362V989.995M46.1557 947.362H90.3499M46.1557 947.362V989.995M90.3499 947.362H134.544M90.3499 947.362V989.995M134.544 947.362H180.038M134.544 947.362V989.995M180.038 947.362H224.232M180.038 947.362V989.995M224.232 947.362H268.426M224.232 947.362V989.995M268.426 947.362H312.621M268.426 947.362V989.995M312.621 947.362H358.115M312.621 947.362V989.995M358.115 947.362H402.309M358.115 947.362V989.995M402.309 947.362H446.503M402.309 947.362V989.995M446.503 947.362H490.697M446.503 947.362V989.995M490.697 947.362H536.191M490.697 947.362V989.995M536.191 947.362H580.385M536.191 947.362V989.995M580.385 947.362H624.579M580.385 947.362V989.995M624.579 947.362H670.073M624.579 947.362V989.995M670.073 947.362H714.268M670.073 947.362V989.995M714.268 947.362H758.462M714.268 947.362V989.995M758.462 947.362H802.656M758.462 947.362V989.995M802.656 947.362V989.995M0.661755 989.995H46.1557M0.661755 989.995V1033.88M46.1557 989.995H90.3499M46.1557 989.995V1033.88M90.3499 989.995H134.544M90.3499 989.995V1033.88M134.544 989.995H180.038M134.544 989.995V1033.88M180.038 989.995H224.232M180.038 989.995V1033.88M224.232 989.995H268.426M224.232 989.995V1033.88M268.426 989.995H312.621M268.426 989.995V1033.88M312.621 989.995H358.115M312.621 989.995V1033.88M358.115 989.995H402.309M358.115 989.995V1033.88M402.309 989.995H446.503M402.309 989.995V1033.88M446.503 989.995H490.697M446.503 989.995V1033.88M490.697 989.995H536.191M490.697 989.995V1033.88M536.191 989.995H580.385M536.191 989.995V1033.88M580.385 989.995H624.579M580.385 989.995V1033.88M624.579 989.995H670.073M624.579 989.995V1033.88M670.073 989.995H714.268M670.073 989.995V1033.88M714.268 989.995H758.462M714.268 989.995V1033.88M758.462 989.995H802.656M758.462 989.995V1033.88M802.656 989.995V1033.88M0.661755 1033.88H46.1557M0.661755 1033.88V1076.51M46.1557 1033.88H90.3499M46.1557 1033.88V1076.51M90.3499 1033.88H134.544M90.3499 1033.88V1076.51M134.544 1033.88H180.038M134.544 1033.88V1076.51M180.038 1033.88H224.232M180.038 1033.88V1076.51M224.232 1033.88H268.426M224.232 1033.88V1076.51M268.426 1033.88H312.621M268.426 1033.88V1076.51M312.621 1033.88H358.115M312.621 1033.88V1076.51M358.115 1033.88H402.309M358.115 1033.88V1076.51M402.309 1033.88H446.503M402.309 1033.88V1076.51M446.503 1033.88H490.697M446.503 1033.88V1076.51M490.697 1033.88H536.191M490.697 1033.88V1076.51M536.191 1033.88H580.385M536.191 1033.88V1076.51M580.385 1033.88H624.579M580.385 1033.88V1076.51M624.579 1033.88H670.073M624.579 1033.88V1076.51M670.073 1033.88H714.268M670.073 1033.88V1076.51M714.268 1033.88H758.462M714.268 1033.88V1076.51M758.462 1033.88H802.656M758.462 1033.88V1076.51M802.656 1033.88V1076.51M0.661755 1076.51H46.1557M0.661755 1076.51V1119.15M46.1557 1076.51H90.3499M46.1557 1076.51V1119.15M90.3499 1076.51H134.544M90.3499 1076.51V1119.15M134.544 1076.51H180.038M134.544 1076.51V1119.15M180.038 1076.51H224.232M180.038 1076.51V1119.15M224.232 1076.51H268.426M224.232 1076.51V1119.15M268.426 1076.51H312.621M268.426 1076.51V1119.15M312.621 1076.51H358.115M312.621 1076.51V1119.15M358.115 1076.51H402.309M358.115 1076.51V1119.15M402.309 1076.51H446.503M402.309 1076.51V1119.15M446.503 1076.51H490.697M446.503 1076.51V1119.15M490.697 1076.51H536.191M490.697 1076.51V1119.15M536.191 1076.51H580.385M536.191 1076.51V1119.15M580.385 1076.51H624.579M580.385 1076.51V1119.15M624.579 1076.51H670.073M624.579 1076.51V1119.15M670.073 1076.51H714.268M670.073 1076.51V1119.15M714.268 1076.51H758.462M714.268 1076.51V1119.15M758.462 1076.51H802.656M758.462 1076.51V1119.15M802.656 1076.51V1119.15M0.661755 1119.15H46.1557M0.661755 1119.15V1161.78M46.1557 1119.15H90.3499M46.1557 1119.15V1161.78M90.3499 1119.15H134.544M90.3499 1119.15V1161.78M134.544 1119.15H180.038M134.544 1119.15V1161.78M180.038 1119.15H224.232M180.038 1119.15V1161.78M224.232 1119.15H268.426M224.232 1119.15V1161.78M268.426 1119.15H312.621M268.426 1119.15V1161.78M312.621 1119.15H358.115M312.621 1119.15V1161.78M358.115 1119.15H402.309M358.115 1119.15V1161.78M402.309 1119.15H446.503M402.309 1119.15V1161.78M446.503 1119.15H490.697M446.503 1119.15V1161.78M490.697 1119.15H536.191M490.697 1119.15V1161.78M536.191 1119.15H580.385M536.191 1119.15V1161.78M580.385 1119.15H624.579M580.385 1119.15V1161.78M624.579 1119.15H670.073M624.579 1119.15V1161.78M670.073 1119.15H714.268M670.073 1119.15V1161.78M714.268 1119.15H758.462M714.268 1119.15V1161.78M758.462 1119.15H802.656M758.462 1119.15V1161.78M802.656 1119.15V1161.78M0.661755 1161.78H46.1557M0.661755 1161.78V1205.67M46.1557 1161.78H90.3499M46.1557 1161.78V1205.67M90.3499 1161.78H134.544M90.3499 1161.78V1205.67M134.544 1161.78H180.038M134.544 1161.78V1205.67M180.038 1161.78H224.232M180.038 1161.78V1205.67M224.232 1161.78H268.426M224.232 1161.78V1205.67M268.426 1161.78H312.621M268.426 1161.78V1205.67M312.621 1161.78H358.115M312.621 1161.78V1205.67M358.115 1161.78H402.309M358.115 1161.78V1205.67M402.309 1161.78H446.503M402.309 1161.78V1205.67M446.503 1161.78H490.697M446.503 1161.78V1205.67M490.697 1161.78H536.191M490.697 1161.78V1205.67M536.191 1161.78H580.385M536.191 1161.78V1205.67M580.385 1161.78H624.579M580.385 1161.78V1205.67M624.579 1161.78H670.073M624.579 1161.78V1205.67M670.073 1161.78H714.268M670.073 1161.78V1205.67M714.268 1161.78H758.462M714.268 1161.78V1205.67M758.462 1161.78H802.656M758.462 1161.78V1205.67M802.656 1161.78V1205.67M0.661755 1205.67H46.1557M0.661755 1205.67V1248.3M46.1557 1205.67H90.3499M46.1557 1205.67V1248.3M90.3499 1205.67H134.544M90.3499 1205.67V1248.3M134.544 1205.67H180.038M134.544 1205.67V1248.3M180.038 1205.67H224.232M180.038 1205.67V1248.3M224.232 1205.67H268.426M224.232 1205.67V1248.3M268.426 1205.67H312.621M268.426 1205.67V1248.3M312.621 1205.67H358.115M312.621 1205.67V1248.3M358.115 1205.67H402.309M358.115 1205.67V1248.3M402.309 1205.67H446.503M402.309 1205.67V1248.3M446.503 1205.67H490.697M446.503 1205.67V1248.3M490.697 1205.67H536.191M490.697 1205.67V1248.3M536.191 1205.67H580.385M536.191 1205.67V1248.3M580.385 1205.67H624.579M580.385 1205.67V1248.3M624.579 1205.67H670.073M624.579 1205.67V1248.3M670.073 1205.67H714.268M670.073 1205.67V1248.3M714.268 1205.67H758.462M714.268 1205.67V1248.3M758.462 1205.67H802.656M758.462 1205.67V1248.3M802.656 1205.67V1248.3M0.661755 1248.3H46.1557M0.661755 1248.3V1290.93M46.1557 1248.3H90.3499M46.1557 1248.3V1290.93M90.3499 1248.3H134.544M90.3499 1248.3V1290.93M134.544 1248.3H180.038M134.544 1248.3V1290.93M180.038 1248.3H224.232M180.038 1248.3V1290.93M224.232 1248.3H268.426M224.232 1248.3V1290.93M268.426 1248.3H312.621M268.426 1248.3V1290.93M312.621 1248.3H358.115M312.621 1248.3V1290.93M358.115 1248.3H402.309M358.115 1248.3V1290.93M402.309 1248.3H446.503M402.309 1248.3V1290.93M446.503 1248.3H490.697M446.503 1248.3V1290.93M490.697 1248.3H536.191M490.697 1248.3V1290.93M536.191 1248.3H580.385M536.191 1248.3V1290.93M580.385 1248.3H624.579M580.385 1248.3V1290.93M624.579 1248.3H670.073M624.579 1248.3V1290.93M670.073 1248.3H714.268M670.073 1248.3V1290.93M714.268 1248.3H758.462M714.268 1248.3V1290.93M758.462 1248.3H802.656M758.462 1248.3V1290.93M802.656 1248.3V1290.93M0.661755 1290.93H46.1557M0.661755 1290.93V1334.82M46.1557 1290.93H90.3499M46.1557 1290.93V1334.82M90.3499 1290.93H134.544M90.3499 1290.93V1334.82M134.544 1290.93H180.038M134.544 1290.93V1334.82M180.038 1290.93H224.232M180.038 1290.93V1334.82M224.232 1290.93H268.426M224.232 1290.93V1334.82M268.426 1290.93H312.621M268.426 1290.93V1334.82M312.621 1290.93H358.115M312.621 1290.93V1334.82M358.115 1290.93H402.309M358.115 1290.93V1334.82M402.309 1290.93H446.503M402.309 1290.93V1334.82M446.503 1290.93H490.697M446.503 1290.93V1334.82M490.697 1290.93H536.191M490.697 1290.93V1334.82M536.191 1290.93H580.385M536.191 1290.93V1334.82M580.385 1290.93H624.579M580.385 1290.93V1334.82M624.579 1290.93H670.073M624.579 1290.93V1334.82M670.073 1290.93H714.268M670.073 1290.93V1334.82M714.268 1290.93H758.462M714.268 1290.93V1334.82M758.462 1290.93H802.656M758.462 1290.93V1334.82M802.656 1290.93V1334.82M0.661755 1334.82H46.1557M0.661755 1334.82V1377.45M46.1557 1334.82H90.3499M46.1557 1334.82V1377.45M90.3499 1334.82H134.544M90.3499 1334.82V1377.45M134.544 1334.82H180.038M134.544 1334.82V1377.45M180.038 1334.82H224.232M180.038 1334.82V1377.45M224.232 1334.82H268.426M224.232 1334.82V1377.45M268.426 1334.82H312.621M268.426 1334.82V1377.45M312.621 1334.82H358.115M312.621 1334.82V1377.45M358.115 1334.82H402.309M358.115 1334.82V1377.45M402.309 1334.82H446.503M402.309 1334.82V1377.45M446.503 1334.82H490.697M446.503 1334.82V1377.45M490.697 1334.82H536.191M490.697 1334.82V1377.45M536.191 1334.82H580.385M536.191 1334.82V1377.45M580.385 1334.82H624.579M580.385 1334.82V1377.45M624.579 1334.82H670.073M624.579 1334.82V1377.45M670.073 1334.82H714.268M670.073 1334.82V1377.45M714.268 1334.82H758.462M714.268 1334.82V1377.45M758.462 1334.82H802.656M758.462 1334.82V1377.45M802.656 1334.82V1377.45M0.661755 1377.45H46.1557M0.661755 1377.45V1420.09M46.1557 1377.45H90.3499M46.1557 1377.45V1420.09M90.3499 1377.45H134.544M90.3499 1377.45V1420.09M134.544 1377.45H180.038M134.544 1377.45V1420.09M180.038 1377.45H224.232M180.038 1377.45V1420.09M224.232 1377.45H268.426M224.232 1377.45V1420.09M268.426 1377.45H312.621M268.426 1377.45V1420.09M312.621 1377.45H358.115M312.621 1377.45V1420.09M358.115 1377.45H402.309M358.115 1377.45V1420.09M402.309 1377.45H446.503M402.309 1377.45V1420.09M446.503 1377.45H490.697M446.503 1377.45V1420.09M490.697 1377.45H536.191M490.697 1377.45V1420.09M536.191 1377.45H580.385M536.191 1377.45V1420.09M580.385 1377.45H624.579M580.385 1377.45V1420.09M624.579 1377.45H670.073M624.579 1377.45V1420.09M670.073 1377.45H714.268M670.073 1377.45V1420.09M714.268 1377.45H758.462M714.268 1377.45V1420.09M758.462 1377.45H802.656M758.462 1377.45V1420.09M802.656 1377.45V1420.09M0.661755 1420.09H46.1557M0.661755 1420.09V1463.97M46.1557 1420.09H90.3499M46.1557 1420.09V1463.97M90.3499 1420.09H134.544M90.3499 1420.09V1463.97M134.544 1420.09H180.038M134.544 1420.09V1463.97M180.038 1420.09H224.232M180.038 1420.09V1463.97M224.232 1420.09H268.426M224.232 1420.09V1463.97M268.426 1420.09H312.621M268.426 1420.09V1463.97M312.621 1420.09H358.115M312.621 1420.09V1463.97M358.115 1420.09H402.309M358.115 1420.09V1463.97M402.309 1420.09H446.503M402.309 1420.09V1463.97M446.503 1420.09H490.697M446.503 1420.09V1463.97M490.697 1420.09H536.191M490.697 1420.09V1463.97M536.191 1420.09H580.385M536.191 1420.09V1463.97M580.385 1420.09H624.579M580.385 1420.09V1463.97M624.579 1420.09H670.073M624.579 1420.09V1463.97M670.073 1420.09H714.268M670.073 1420.09V1463.97M714.268 1420.09H758.462M714.268 1420.09V1463.97M758.462 1420.09H802.656M758.462 1420.09V1463.97M802.656 1420.09V1463.97M0.661755 1463.97H46.1557M0.661755 1463.97V1506.61M46.1557 1463.97H90.3499M46.1557 1463.97V1506.61M90.3499 1463.97H134.544M90.3499 1463.97V1506.61M134.544 1463.97H180.038M134.544 1463.97V1506.61M180.038 1463.97H224.232M180.038 1463.97V1506.61M224.232 1463.97H268.426M224.232 1463.97V1506.61M268.426 1463.97H312.621M268.426 1463.97V1506.61M312.621 1463.97H358.115M312.621 1463.97V1506.61M358.115 1463.97H402.309M358.115 1463.97V1506.61M402.309 1463.97H446.503M402.309 1463.97V1506.61M446.503 1463.97H490.697M446.503 1463.97V1506.61M490.697 1463.97H536.191M490.697 1463.97V1506.61M536.191 1463.97H580.385M536.191 1463.97V1506.61M580.385 1463.97H624.579M580.385 1463.97V1506.61M624.579 1463.97H670.073M624.579 1463.97V1506.61M670.073 1463.97H714.268M670.073 1463.97V1506.61M714.268 1463.97H758.462M714.268 1463.97V1506.61M758.462 1463.97H802.656M758.462 1463.97V1506.61M802.656 1463.97V1506.61M0.661755 1506.61H46.1557M0.661755 1506.61V1549.24M46.1557 1506.61H90.3499M46.1557 1506.61V1549.24M90.3499 1506.61H134.544M90.3499 1506.61V1549.24M134.544 1506.61H180.038M134.544 1506.61V1549.24M180.038 1506.61H224.232M180.038 1506.61V1549.24M224.232 1506.61H268.426M224.232 1506.61V1549.24M268.426 1506.61H312.621M268.426 1506.61V1549.24M312.621 1506.61H358.115M312.621 1506.61V1549.24M358.115 1506.61H402.309M358.115 1506.61V1549.24M402.309 1506.61H446.503M402.309 1506.61V1549.24M446.503 1506.61H490.697M446.503 1506.61V1549.24M490.697 1506.61H536.191M490.697 1506.61V1549.24M536.191 1506.61H580.385M536.191 1506.61V1549.24M580.385 1506.61H624.579M580.385 1506.61V1549.24M624.579 1506.61H670.073M624.579 1506.61V1549.24M670.073 1506.61H714.268M670.073 1506.61V1549.24M714.268 1506.61H758.462M714.268 1506.61V1549.24M758.462 1506.61H802.656M758.462 1506.61V1549.24M802.656 1506.61V1549.24M0.661755 1549.24H46.1557M0.661755 1549.24V1591.87H46.1557M46.1557 1549.24H90.3499M46.1557 1549.24V1591.87M90.3499 1549.24H134.544M90.3499 1549.24V1591.87M134.544 1549.24H180.038M134.544 1549.24V1591.87M180.038 1549.24H224.232M180.038 1549.24V1591.87M224.232 1549.24H268.426M224.232 1549.24V1591.87M268.426 1549.24H312.621M268.426 1549.24V1591.87M312.621 1549.24H358.115M312.621 1549.24V1591.87M358.115 1549.24H402.309M358.115 1549.24V1591.87M402.309 1549.24H446.503M402.309 1549.24V1591.87M446.503 1549.24H490.697M446.503 1549.24V1591.87M490.697 1549.24H536.191M490.697 1549.24V1591.87M536.191 1549.24H580.385M536.191 1549.24V1591.87M580.385 1549.24H624.579M580.385 1549.24V1591.87M624.579 1549.24H670.073M624.579 1549.24V1591.87M670.073 1549.24H714.268M670.073 1549.24V1591.87M714.268 1549.24H758.462M714.268 1549.24V1591.87M758.462 1549.24H802.656M758.462 1549.24V1591.87M802.656 1549.24V1591.87M46.1557 1591.87H90.3499M90.3499 1591.87H134.544M134.544 1591.87H180.038M180.038 1591.87H224.232M224.232 1591.87H268.426M268.426 1591.87H312.621M312.621 1591.87H358.115M358.115 1591.87H402.309M402.309 1591.87H446.503M446.503 1591.87H490.697M490.697 1591.87H536.191M536.191 1591.87H580.385M580.385 1591.87H624.579M624.579 1591.87H670.073M670.073 1591.87H714.268M714.268 1591.87H758.462M758.462 1591.87H802.656" stroke="url(#paint0_radial_6019_134)" stroke-opacity="0.4" stroke-width="1.32292"/>
<defs>
<radialGradient id="paint0_radial_6019_134" cx="0" cy="0" r="1" gradientUnits="userSpaceOnUse" gradientTransform="translate(732.81 276.217) rotate(62.8149) scale(585.335 620.852)">
<stop stop-opacity="0"/>
<stop offset="0.1" stop-color="white" stop-opacity="0.15"/>
<stop offset="1" stop-opacity="0"/>
</radialGradient>
</defs>
</svg>
