<svg width="32" height="32" viewBox="0 0 32 32" fill="none" xmlns="http://www.w3.org/2000/svg">
<path opacity="0.4" d="M16.0003 29.24C9.28029 29.24 3.80029 23.7733 3.80029 17.04V14.5333C3.80029 14.0133 4.22696 13.6 4.73363 13.6C5.24029 13.6 5.66696 14.0266 5.66696 14.5333V17.04C5.66696 22.7333 10.2936 27.36 15.987 27.36C21.6803 27.36 26.307 22.7333 26.307 17.04V14.5333C26.307 14.0133 26.7336 13.6 27.2403 13.6C27.747 13.6 28.1736 14.0266 28.1736 14.5333V17.04C28.2003 23.7733 22.7203 29.24 16.0003 29.24Z" fill="#96EDD6"/>
<path d="M16 2.66663C11.52 2.66663 7.8667 6.31996 7.8667 10.8V17.0533C7.8667 21.5333 11.52 25.1866 16 25.1866C20.48 25.1866 24.1334 21.5333 24.1334 17.0533V10.8C24.1334 6.31996 20.48 2.66663 16 2.66663ZM18.9067 14.12C18.8134 14.48 18.48 14.72 18.12 14.72C18.0534 14.72 17.9734 14.7066 17.9067 14.6933C16.5467 14.32 15.1067 14.32 13.7467 14.6933C13.3067 14.8133 12.8667 14.56 12.7467 14.12C12.6267 13.6933 12.88 13.24 13.32 13.12C14.96 12.6666 16.6934 12.6666 18.3334 13.12C18.7734 13.24 19.0267 13.68 18.9067 14.12ZM20.04 10.4266C19.92 10.76 19.6134 10.96 19.28 10.96C19.1867 10.96 19.0934 10.9466 19 10.9066C16.96 10.16 14.72 10.16 12.68 10.9066C12.2534 11.0666 11.7867 10.8533 11.6267 10.4266C11.48 10.0133 11.6934 9.54663 12.12 9.38663C14.52 8.51996 17.16 8.51996 19.5467 9.38663C19.9734 9.54663 20.1867 10.0133 20.04 10.4266Z" fill="#96EDD6"/>
</svg>
