<svg width="14" height="14" viewBox="0 0 14 14" fill="none" xmlns="http://www.w3.org/2000/svg">
<path d="M3.90309 0.806671H8.78894C10.3305 0.806671 11.1013 0.806671 11.6901 1.10669C12.2081 1.37059 12.6292 1.79168 12.8931 2.30961C13.1931 2.89842 13.1931 3.66922 13.1931 5.21082V10.0967M3.0085 13.1933H8.58249C9.35329 13.1933 9.73869 13.1933 10.0331 13.0433C10.2921 12.9114 10.5026 12.7008 10.6346 12.4419C10.7846 12.1475 10.7846 11.7621 10.7846 10.9913V5.41726C10.7846 4.64646 10.7846 4.26106 10.6346 3.96666C10.5026 3.70769 10.2921 3.49715 10.0331 3.3652C9.73869 3.21519 9.35329 3.21519 8.58249 3.21519H3.0085C2.2377 3.21519 1.8523 3.21519 1.55789 3.3652C1.29893 3.49715 1.08838 3.70769 0.95643 3.96666C0.806423 4.26106 0.806423 4.64646 0.806423 5.41726V10.9913C0.806423 11.7621 0.806423 12.1475 0.95643 12.4419C1.08838 12.7008 1.29893 12.9114 1.55789 13.0433C1.8523 13.1933 2.2377 13.1933 3.0085 13.1933Z" stroke="white" stroke-width="1.56298" stroke-linecap="round" stroke-linejoin="round"/>
</svg>
