<svg width="16" height="16" viewBox="0 0 16 16" fill="none" xmlns="http://www.w3.org/2000/svg">
<path d="M5 1.99999H9.73333C11.2268 1.99999 11.9735 1.99999 12.544 2.29064C13.0457 2.5463 13.4537 2.95425 13.7094 3.45602C14 4.02645 14 4.77319 14 6.26666V11M4.13333 14H9.53333C10.2801 14 10.6534 14 10.9387 13.8547C11.1895 13.7268 11.3935 13.5229 11.5213 13.272C11.6667 12.9868 11.6667 12.6134 11.6667 11.8667V6.46666C11.6667 5.71992 11.6667 5.34655 11.5213 5.06134C11.3935 4.81046 11.1895 4.60648 10.9387 4.47865C10.6534 4.33333 10.2801 4.33333 9.53333 4.33333H4.13333C3.3866 4.33333 3.01323 4.33333 2.72801 4.47865C2.47713 4.60648 2.27316 4.81046 2.14532 5.06134C2 5.34655 2 5.71992 2 6.46666V11.8667C2 12.6134 2 12.9868 2.14532 13.272C2.27316 13.5229 2.47713 13.7268 2.72801 13.8547C3.01323 14 3.3866 14 4.13333 14Z" stroke="white" stroke-width="1.56298" stroke-linecap="round" stroke-linejoin="round"/>
</svg>
