<svg width="18" height="18" viewBox="0 0 18 18" fill="none" xmlns="http://www.w3.org/2000/svg">
<path d="M5.625 2.25003H10.95C12.6302 2.25003 13.4702 2.25003 14.112 2.57701C14.6765 2.86463 15.1354 3.32357 15.423 3.88806C15.75 4.52979 15.75 5.36987 15.75 7.05003V12.375M4.65 15.75H10.725C11.5651 15.75 11.9851 15.75 12.306 15.5865C12.5882 15.4427 12.8177 15.2133 12.9615 14.931C13.125 14.6101 13.125 14.1901 13.125 13.35V7.27503C13.125 6.43495 13.125 6.01491 12.9615 5.69404C12.8177 5.4118 12.5882 5.18233 12.306 5.03852C11.9851 4.87503 11.5651 4.87503 10.725 4.87503H4.65C3.80992 4.87503 3.38988 4.87503 3.06901 5.03852C2.78677 5.18233 2.5573 5.4118 2.41349 5.69404C2.25 6.01491 2.25 6.43495 2.25 7.27503V13.35C2.25 14.1901 2.25 14.6101 2.41349 14.931C2.5573 15.2133 2.78677 15.4427 3.06901 15.5865C3.38988 15.75 3.80992 15.75 4.65 15.75Z" stroke="white" stroke-width="1.80356" stroke-linecap="round" stroke-linejoin="round"/>
</svg>
