<svg width="980" height="814" viewBox="0 0 980 814" fill="none" xmlns="http://www.w3.org/2000/svg">
<path d="M515.93 0.338125H490.376M515.93 0.338125V22.7687M515.93 0.338125H541.484M490.376 0.338125V22.7687M490.376 0.338125H464.07M490.376 22.7687H515.93M490.376 22.7687V44.5584M490.376 22.7687H464.07M515.93 22.7687H541.484M515.93 22.7687V44.5584M541.484 0.338125V22.7687M541.484 0.338125H567.79M541.484 22.7687H567.79M541.484 22.7687V44.5584M567.79 0.338125V22.7687M567.79 0.338125H593.344M567.79 22.7687H593.344M567.79 22.7687V44.5584M593.344 0.338125V22.7687M593.344 0.338125H618.898M593.344 22.7687H618.898M593.344 22.7687V44.5584M618.898 0.338125V22.7687M618.898 0.338125H644.452M618.898 22.7687H644.452M618.898 22.7687V44.5584M644.452 0.338125V22.7687M644.452 0.338125H670.758M644.452 22.7687H670.758M644.452 22.7687V44.5584M670.758 0.338125V22.7687M670.758 0.338125H696.312M670.758 22.7687H696.312M670.758 22.7687V44.5584M696.312 0.338125V22.7687M696.312 0.338125H721.866M696.312 22.7687H721.866M696.312 22.7687V44.5584M721.866 0.338125V22.7687M721.866 0.338125H748.172M721.866 22.7687H748.172M721.866 22.7687V44.5584M748.172 0.338125V22.7687M748.172 0.338125H773.726M748.172 22.7687H773.726M748.172 22.7687V44.5584M773.726 0.338125V22.7687M773.726 0.338125H799.28M773.726 22.7687H799.28M773.726 22.7687V44.5584M799.28 0.338125V22.7687M799.28 0.338125H824.834M799.28 22.7687H824.834M799.28 22.7687V44.5584M824.834 0.338125V22.7687M824.834 0.338125H851.14M824.834 22.7687H851.14M824.834 22.7687V44.5584M851.14 0.338125V22.7687M851.14 0.338125H876.694M851.14 22.7687H876.694M851.14 22.7687V44.5584M876.694 0.338125V22.7687M876.694 0.338125H902.248M876.694 22.7687H902.248M876.694 22.7687V44.5584M902.248 0.338125V22.7687M902.248 0.338125H927.802M902.248 22.7687H927.802M902.248 22.7687V44.5584M927.802 0.338125V22.7687M927.802 0.338125H954.108M927.802 22.7687H954.108M927.802 22.7687V44.5584M954.108 0.338125V22.7687M954.108 0.338125H979.662V22.7687M954.108 22.7687H979.662M954.108 22.7687V44.5584M979.662 22.7687V44.5584M490.376 44.5584H515.93M490.376 44.5584V66.3481M490.376 44.5584H464.07M515.93 44.5584H541.484M515.93 44.5584V66.3481M541.484 44.5584H567.79M541.484 44.5584V66.3481M567.79 44.5584H593.344M567.79 44.5584V66.3481M593.344 44.5584H618.898M593.344 44.5584V66.3481M618.898 44.5584H644.452M618.898 44.5584V66.3481M644.452 44.5584H670.758M644.452 44.5584V66.3481M670.758 44.5584H696.312M670.758 44.5584V66.3481M696.312 44.5584H721.866M696.312 44.5584V66.3481M721.866 44.5584H748.172M721.866 44.5584V66.3481M748.172 44.5584H773.726M748.172 44.5584V66.3481M773.726 44.5584H799.28M773.726 44.5584V66.3481M799.28 44.5584H824.834M799.28 44.5584V66.3481M824.834 44.5584H851.14M824.834 44.5584V66.3481M851.14 44.5584H876.694M851.14 44.5584V66.3481M876.694 44.5584H902.248M876.694 44.5584V66.3481M902.248 44.5584H927.802M902.248 44.5584V66.3481M927.802 44.5584H954.108M927.802 44.5584V66.3481M954.108 44.5584H979.662M954.108 44.5584V66.3481M979.662 44.5584V66.3481M490.376 66.3481H515.93M490.376 66.3481V88.7787M490.376 66.3481H464.07M515.93 66.3481H541.484M515.93 66.3481V88.7787M541.484 66.3481H567.79M541.484 66.3481V88.7787M567.79 66.3481H593.344M567.79 66.3481V88.7787M593.344 66.3481H618.898M593.344 66.3481V88.7787M618.898 66.3481H644.452M618.898 66.3481V88.7787M644.452 66.3481H670.758M644.452 66.3481V88.7787M670.758 66.3481H696.312M670.758 66.3481V88.7787M696.312 66.3481H721.866M696.312 66.3481V88.7787M721.866 66.3481H748.172M721.866 66.3481V88.7787M748.172 66.3481H773.726M748.172 66.3481V88.7787M773.726 66.3481H799.28M773.726 66.3481V88.7787M799.28 66.3481H824.834M799.28 66.3481V88.7787M824.834 66.3481H851.14M824.834 66.3481V88.7787M851.14 66.3481H876.694M851.14 66.3481V88.7787M876.694 66.3481H902.248M876.694 66.3481V88.7787M902.248 66.3481H927.802M902.248 66.3481V88.7787M927.802 66.3481H954.108M927.802 66.3481V88.7787M954.108 66.3481H979.662M954.108 66.3481V88.7787M979.662 66.3481V88.7787M490.376 88.7787H515.93M490.376 88.7787V110.568M490.376 88.7787H464.07M515.93 88.7787H541.484M515.93 88.7787V110.568M541.484 88.7787H567.79M541.484 88.7787V110.568M567.79 88.7787H593.344M567.79 88.7787V110.568M593.344 88.7787H618.898M593.344 88.7787V110.568M618.898 88.7787H644.452M618.898 88.7787V110.568M644.452 88.7787H670.758M644.452 88.7787V110.568M670.758 88.7787H696.312M670.758 88.7787V110.568M696.312 88.7787H721.866M696.312 88.7787V110.568M721.866 88.7787H748.172M721.866 88.7787V110.568M748.172 88.7787H773.726M748.172 88.7787V110.568M773.726 88.7787H799.28M773.726 88.7787V110.568M799.28 88.7787H824.834M799.28 88.7787V110.568M824.834 88.7787H851.14M824.834 88.7787V110.568M851.14 88.7787H876.694M851.14 88.7787V110.568M876.694 88.7787H902.248M876.694 88.7787V110.568M902.248 88.7787H927.802M902.248 88.7787V110.568M927.802 88.7787H954.108M927.802 88.7787V110.568M954.108 88.7787H979.662M954.108 88.7787V110.568M979.662 88.7787V110.568M490.376 110.568H515.93M490.376 110.568V132.358M490.376 110.568H464.07M515.93 110.568H541.484M515.93 110.568V132.358M541.484 110.568H567.79M541.484 110.568V132.358M567.79 110.568H593.344M567.79 110.568V132.358M593.344 110.568H618.898M593.344 110.568V132.358M618.898 110.568H644.452M618.898 110.568V132.358M644.452 110.568H670.758M644.452 110.568V132.358M670.758 110.568H696.312M670.758 110.568V132.358M696.312 110.568H721.866M696.312 110.568V132.358M721.866 110.568H748.172M721.866 110.568V132.358M748.172 110.568H773.726M748.172 110.568V132.358M773.726 110.568H799.28M773.726 110.568V132.358M799.28 110.568H824.834M799.28 110.568V132.358M824.834 110.568H851.14M824.834 110.568V132.358M851.14 110.568H876.694M851.14 110.568V132.358M876.694 110.568H902.248M876.694 110.568V132.358M902.248 110.568H927.802M902.248 110.568V132.358M927.802 110.568H954.108M927.802 110.568V132.358M954.108 110.568H979.662M954.108 110.568V132.358M979.662 110.568V132.358M490.376 132.358H515.93M490.376 132.358V154.789M490.376 132.358H464.07M515.93 132.358H541.484M515.93 132.358V154.789M541.484 132.358H567.79M541.484 132.358V154.789M567.79 132.358H593.344M567.79 132.358V154.789M593.344 132.358H618.898M593.344 132.358V154.789M618.898 132.358H644.452M618.898 132.358V154.789M644.452 132.358H670.758M644.452 132.358V154.789M670.758 132.358H696.312M670.758 132.358V154.789M696.312 132.358H721.866M696.312 132.358V154.789M721.866 132.358H748.172M721.866 132.358V154.789M748.172 132.358H773.726M748.172 132.358V154.789M773.726 132.358H799.28M773.726 132.358V154.789M799.28 132.358H824.834M799.28 132.358V154.789M824.834 132.358H851.14M824.834 132.358V154.789M851.14 132.358H876.694M851.14 132.358V154.789M876.694 132.358H902.248M876.694 132.358V154.789M902.248 132.358H927.802M902.248 132.358V154.789M927.802 132.358H954.108M927.802 132.358V154.789M954.108 132.358H979.662M954.108 132.358V154.789M979.662 132.358V154.789M490.376 154.789H515.93M490.376 154.789V176.578M490.376 154.789H464.07M515.93 154.789H541.484M515.93 154.789V176.578M541.484 154.789H567.79M541.484 154.789V176.578M567.79 154.789H593.344M567.79 154.789V176.578M593.344 154.789H618.898M593.344 154.789V176.578M618.898 154.789H644.452M618.898 154.789V176.578M644.452 154.789H670.758M644.452 154.789V176.578M670.758 154.789H696.312M670.758 154.789V176.578M696.312 154.789H721.866M696.312 154.789V176.578M721.866 154.789H748.172M721.866 154.789V176.578M748.172 154.789H773.726M748.172 154.789V176.578M773.726 154.789H799.28M773.726 154.789V176.578M799.28 154.789H824.834M799.28 154.789V176.578M824.834 154.789H851.14M824.834 154.789V176.578M851.14 154.789H876.694M851.14 154.789V176.578M876.694 154.789H902.248M876.694 154.789V176.578M902.248 154.789H927.802M902.248 154.789V176.578M927.802 154.789H954.108M927.802 154.789V176.578M954.108 154.789H979.662M954.108 154.789V176.578M979.662 154.789V176.578M490.376 176.578H515.93M490.376 176.578V198.368M490.376 176.578H464.07M515.93 176.578H541.484M515.93 176.578V198.368M541.484 176.578H567.79M541.484 176.578V198.368M567.79 176.578H593.344M567.79 176.578V198.368M593.344 176.578H618.898M593.344 176.578V198.368M618.898 176.578H644.452M618.898 176.578V198.368M644.452 176.578H670.758M644.452 176.578V198.368M670.758 176.578H696.312M670.758 176.578V198.368M696.312 176.578H721.866M696.312 176.578V198.368M721.866 176.578H748.172M721.866 176.578V198.368M748.172 176.578H773.726M748.172 176.578V198.368M773.726 176.578H799.28M773.726 176.578V198.368M799.28 176.578H824.834M799.28 176.578V198.368M824.834 176.578H851.14M824.834 176.578V198.368M851.14 176.578H876.694M851.14 176.578V198.368M876.694 176.578H902.248M876.694 176.578V198.368M902.248 176.578H927.802M902.248 176.578V198.368M927.802 176.578H954.108M927.802 176.578V198.368M954.108 176.578H979.662M954.108 176.578V198.368M979.662 176.578V198.368M490.376 198.368H515.93M490.376 198.368V220.158M490.376 198.368H464.07M515.93 198.368H541.484M515.93 198.368V220.158M541.484 198.368H567.79M541.484 198.368V220.158M567.79 198.368H593.344M567.79 198.368V220.158M593.344 198.368H618.898M593.344 198.368V220.158M618.898 198.368H644.452M618.898 198.368V220.158M644.452 198.368H670.758M644.452 198.368V220.158M670.758 198.368H696.312M670.758 198.368V220.158M696.312 198.368H721.866M696.312 198.368V220.158M721.866 198.368H748.172M721.866 198.368V220.158M748.172 198.368H773.726M748.172 198.368V220.158M773.726 198.368H799.28M773.726 198.368V220.158M799.28 198.368H824.834M799.28 198.368V220.158M824.834 198.368H851.14M824.834 198.368V220.158M851.14 198.368H876.694M851.14 198.368V220.158M876.694 198.368H902.248M876.694 198.368V220.158M902.248 198.368H927.802M902.248 198.368V220.158M927.802 198.368H954.108M927.802 198.368V220.158M954.108 198.368H979.662M954.108 198.368V220.158M979.662 198.368V220.158M490.376 220.158H515.93M490.376 220.158V242.588M490.376 220.158H464.07M515.93 220.158H541.484M515.93 220.158V242.588M541.484 220.158H567.79M541.484 220.158V242.588M567.79 220.158H593.344M567.79 220.158V242.588M593.344 220.158H618.898M593.344 220.158V242.588M618.898 220.158H644.452M618.898 220.158V242.588M644.452 220.158H670.758M644.452 220.158V242.588M670.758 220.158H696.312M670.758 220.158V242.588M696.312 220.158H721.866M696.312 220.158V242.588M721.866 220.158H748.172M721.866 220.158V242.588M748.172 220.158H773.726M748.172 220.158V242.588M773.726 220.158H799.28M773.726 220.158V242.588M799.28 220.158H824.834M799.28 220.158V242.588M824.834 220.158H851.14M824.834 220.158V242.588M851.14 220.158H876.694M851.14 220.158V242.588M876.694 220.158H902.248M876.694 220.158V242.588M902.248 220.158H927.802M902.248 220.158V242.588M927.802 220.158H954.108M927.802 220.158V242.588M954.108 220.158H979.662M954.108 220.158V242.588M979.662 220.158V242.588M490.376 242.588H515.93M490.376 242.588V264.378M490.376 242.588H464.07M515.93 242.588H541.484M515.93 242.588V264.378M541.484 242.588H567.79M541.484 242.588V264.378M567.79 242.588H593.344M567.79 242.588V264.378M593.344 242.588H618.898M593.344 242.588V264.378M618.898 242.588H644.452M618.898 242.588V264.378M644.452 242.588H670.758M644.452 242.588V264.378M670.758 242.588H696.312M670.758 242.588V264.378M696.312 242.588H721.866M696.312 242.588V264.378M721.866 242.588H748.172M721.866 242.588V264.378M748.172 242.588H773.726M748.172 242.588V264.378M773.726 242.588H799.28M773.726 242.588V264.378M799.28 242.588H824.834M799.28 242.588V264.378M824.834 242.588H851.14M824.834 242.588V264.378M851.14 242.588H876.694M851.14 242.588V264.378M876.694 242.588H902.248M876.694 242.588V264.378M902.248 242.588H927.802M902.248 242.588V264.378M927.802 242.588H954.108M927.802 242.588V264.378M954.108 242.588H979.662M954.108 242.588V264.378M979.662 242.588V264.378M490.376 264.378H515.93M490.376 264.378V286.168M490.376 264.378H464.07M515.93 264.378H541.484M515.93 264.378V286.168M541.484 264.378H567.79M541.484 264.378V286.168M567.79 264.378H593.344M567.79 264.378V286.168M593.344 264.378H618.898M593.344 264.378V286.168M618.898 264.378H644.452M618.898 264.378V286.168M644.452 264.378H670.758M644.452 264.378V286.168M670.758 264.378H696.312M670.758 264.378V286.168M696.312 264.378H721.866M696.312 264.378V286.168M721.866 264.378H748.172M721.866 264.378V286.168M748.172 264.378H773.726M748.172 264.378V286.168M773.726 264.378H799.28M773.726 264.378V286.168M799.28 264.378H824.834M799.28 264.378V286.168M824.834 264.378H851.14M824.834 264.378V286.168M851.14 264.378H876.694M851.14 264.378V286.168M876.694 264.378H902.248M876.694 264.378V286.168M902.248 264.378H927.802M902.248 264.378V286.168M927.802 264.378H954.108M927.802 264.378V286.168M954.108 264.378H979.662M954.108 264.378V286.168M979.662 264.378V286.168M490.376 286.168H515.93M490.376 286.168V308.598M490.376 286.168H464.07M515.93 286.168H541.484M515.93 286.168V308.598M541.484 286.168H567.79M541.484 286.168V308.598M567.79 286.168H593.344M567.79 286.168V308.598M593.344 286.168H618.898M593.344 286.168V308.598M618.898 286.168H644.452M618.898 286.168V308.598M644.452 286.168H670.758M644.452 286.168V308.598M670.758 286.168H696.312M670.758 286.168V308.598M696.312 286.168H721.866M696.312 286.168V308.598M721.866 286.168H748.172M721.866 286.168V308.598M748.172 286.168H773.726M748.172 286.168V308.598M773.726 286.168H799.28M773.726 286.168V308.598M799.28 286.168H824.834M799.28 286.168V308.598M824.834 286.168H851.14M824.834 286.168V308.598M851.14 286.168H876.694M851.14 286.168V308.598M876.694 286.168H902.248M876.694 286.168V308.598M902.248 286.168H927.802M902.248 286.168V308.598M927.802 286.168H954.108M927.802 286.168V308.598M954.108 286.168H979.662M954.108 286.168V308.598M979.662 286.168V308.598M490.376 308.598H515.93M490.376 308.598V330.388M490.376 308.598H464.07M515.93 308.598H541.484M515.93 308.598V330.388M541.484 308.598H567.79M541.484 308.598V330.388M567.79 308.598H593.344M567.79 308.598V330.388M593.344 308.598H618.898M593.344 308.598V330.388M618.898 308.598H644.452M618.898 308.598V330.388M644.452 308.598H670.758M644.452 308.598V330.388M670.758 308.598H696.312M670.758 308.598V330.388M696.312 308.598H721.866M696.312 308.598V330.388M721.866 308.598H748.172M721.866 308.598V330.388M748.172 308.598H773.726M748.172 308.598V330.388M773.726 308.598H799.28M773.726 308.598V330.388M799.28 308.598H824.834M799.28 308.598V330.388M824.834 308.598H851.14M824.834 308.598V330.388M851.14 308.598H876.694M851.14 308.598V330.388M876.694 308.598H902.248M876.694 308.598V330.388M902.248 308.598H927.802M902.248 308.598V330.388M927.802 308.598H954.108M927.802 308.598V330.388M954.108 308.598H979.662M954.108 308.598V330.388M979.662 308.598V330.388M490.376 330.388H515.93M490.376 330.388V352.178M490.376 330.388H464.07M515.93 330.388H541.484M515.93 330.388V352.178M541.484 330.388H567.79M541.484 330.388V352.178M567.79 330.388H593.344M567.79 330.388V352.178M593.344 330.388H618.898M593.344 330.388V352.178M618.898 330.388H644.452M618.898 330.388V352.178M644.452 330.388H670.758M644.452 330.388V352.178M670.758 330.388H696.312M670.758 330.388V352.178M696.312 330.388H721.866M696.312 330.388V352.178M721.866 330.388H748.172M721.866 330.388V352.178M748.172 330.388H773.726M748.172 330.388V352.178M773.726 330.388H799.28M773.726 330.388V352.178M799.28 330.388H824.834M799.28 330.388V352.178M824.834 330.388H851.14M824.834 330.388V352.178M851.14 330.388H876.694M851.14 330.388V352.178M876.694 330.388H902.248M876.694 330.388V352.178M902.248 330.388H927.802M902.248 330.388V352.178M927.802 330.388H954.108M927.802 330.388V352.178M954.108 330.388H979.662M954.108 330.388V352.178M979.662 330.388V352.178M490.376 352.178H515.93M490.376 352.178V373.968M490.376 352.178H464.07M515.93 352.178H541.484M515.93 352.178V373.968M541.484 352.178H567.79M541.484 352.178V373.968M567.79 352.178H593.344M567.79 352.178V373.968M593.344 352.178H618.898M593.344 352.178V373.968M618.898 352.178H644.452M618.898 352.178V373.968M644.452 352.178H670.758M644.452 352.178V373.968M670.758 352.178H696.312M670.758 352.178V373.968M696.312 352.178H721.866M696.312 352.178V373.968M721.866 352.178H748.172M721.866 352.178V373.968M748.172 352.178H773.726M748.172 352.178V373.968M773.726 352.178H799.28M773.726 352.178V373.968M799.28 352.178H824.834M799.28 352.178V373.968M824.834 352.178H851.14M824.834 352.178V373.968M851.14 352.178H876.694M851.14 352.178V373.968M876.694 352.178H902.248M876.694 352.178V373.968M902.248 352.178H927.802M902.248 352.178V373.968M927.802 352.178H954.108M927.802 352.178V373.968M954.108 352.178H979.662M954.108 352.178V373.968M979.662 352.178V373.968M490.376 373.968H515.93M490.376 373.968V396.398M490.376 373.968H464.07M515.93 373.968H541.484M515.93 373.968V396.398M541.484 373.968H567.79M541.484 373.968V396.398M567.79 373.968H593.344M567.79 373.968V396.398M593.344 373.968H618.898M593.344 373.968V396.398M618.898 373.968H644.452M618.898 373.968V396.398M644.452 373.968H670.758M644.452 373.968V396.398M670.758 373.968H696.312M670.758 373.968V396.398M696.312 373.968H721.866M696.312 373.968V396.398M721.866 373.968H748.172M721.866 373.968V396.398M748.172 373.968H773.726M748.172 373.968V396.398M773.726 373.968H799.28M773.726 373.968V396.398M799.28 373.968H824.834M799.28 373.968V396.398M824.834 373.968H851.14M824.834 373.968V396.398M851.14 373.968H876.694M851.14 373.968V396.398M876.694 373.968H902.248M876.694 373.968V396.398M902.248 373.968H927.802M902.248 373.968V396.398M927.802 373.968H954.108M927.802 373.968V396.398M954.108 373.968H979.662M954.108 373.968V396.398M979.662 373.968V396.398M490.376 396.398H515.93M490.376 396.398V418.188M490.376 396.398H464.07M515.93 396.398H541.484M515.93 396.398V418.188M541.484 396.398H567.79M541.484 396.398V418.188M567.79 396.398H593.344M567.79 396.398V418.188M593.344 396.398H618.898M593.344 396.398V418.188M618.898 396.398H644.452M618.898 396.398V418.188M644.452 396.398H670.758M644.452 396.398V418.188M670.758 396.398H696.312M670.758 396.398V418.188M696.312 396.398H721.866M696.312 396.398V418.188M721.866 396.398H748.172M721.866 396.398V418.188M748.172 396.398H773.726M748.172 396.398V418.188M773.726 396.398H799.28M773.726 396.398V418.188M799.28 396.398H824.834M799.28 396.398V418.188M824.834 396.398H851.14M824.834 396.398V418.188M851.14 396.398H876.694M851.14 396.398V418.188M876.694 396.398H902.248M876.694 396.398V418.188M902.248 396.398H927.802M902.248 396.398V418.188M927.802 396.398H954.108M927.802 396.398V418.188M954.108 396.398H979.662M954.108 396.398V418.188M979.662 396.398V418.188M490.376 418.188H515.93M490.376 418.188V439.978M490.376 418.188H464.07M515.93 418.188H541.484M515.93 418.188V439.978M541.484 418.188H567.79M541.484 418.188V439.978M567.79 418.188H593.344M567.79 418.188V439.978M593.344 418.188H618.898M593.344 418.188V439.978M618.898 418.188H644.452M618.898 418.188V439.978M644.452 418.188H670.758M644.452 418.188V439.978M670.758 418.188H696.312M670.758 418.188V439.978M696.312 418.188H721.866M696.312 418.188V439.978M721.866 418.188H748.172M721.866 418.188V439.978M748.172 418.188H773.726M748.172 418.188V439.978M773.726 418.188H799.28M773.726 418.188V439.978M799.28 418.188H824.834M799.28 418.188V439.978M824.834 418.188H851.14M824.834 418.188V439.978M851.14 418.188H876.694M851.14 418.188V439.978M876.694 418.188H902.248M876.694 418.188V439.978M902.248 418.188H927.802M902.248 418.188V439.978M927.802 418.188H954.108M927.802 418.188V439.978M954.108 418.188H979.662M954.108 418.188V439.978M979.662 418.188V439.978M490.376 439.978H515.93M490.376 439.978V462.408M490.376 439.978H464.07M515.93 439.978H541.484M515.93 439.978V462.408M541.484 439.978H567.79M541.484 439.978V462.408M567.79 439.978H593.344M567.79 439.978V462.408M593.344 439.978H618.898M593.344 439.978V462.408M618.898 439.978H644.452M618.898 439.978V462.408M644.452 439.978H670.758M644.452 439.978V462.408M670.758 439.978H696.312M670.758 439.978V462.408M696.312 439.978H721.866M696.312 439.978V462.408M721.866 439.978H748.172M721.866 439.978V462.408M748.172 439.978H773.726M748.172 439.978V462.408M773.726 439.978H799.28M773.726 439.978V462.408M799.28 439.978H824.834M799.28 439.978V462.408M824.834 439.978H851.14M824.834 439.978V462.408M851.14 439.978H876.694M851.14 439.978V462.408M876.694 439.978H902.248M876.694 439.978V462.408M902.248 439.978H927.802M902.248 439.978V462.408M927.802 439.978H954.108M927.802 439.978V462.408M954.108 439.978H979.662M954.108 439.978V462.408M979.662 439.978V462.408M490.376 462.408H515.93M490.376 462.408V484.198M490.376 462.408H464.07M515.93 462.408H541.484M515.93 462.408V484.198M541.484 462.408H567.79M541.484 462.408V484.198M567.79 462.408H593.344M567.79 462.408V484.198M593.344 462.408H618.898M593.344 462.408V484.198M618.898 462.408H644.452M618.898 462.408V484.198M644.452 462.408H670.758M644.452 462.408V484.198M670.758 462.408H696.312M670.758 462.408V484.198M696.312 462.408H721.866M696.312 462.408V484.198M721.866 462.408H748.172M721.866 462.408V484.198M748.172 462.408H773.726M748.172 462.408V484.198M773.726 462.408H799.28M773.726 462.408V484.198M799.28 462.408H824.834M799.28 462.408V484.198M824.834 462.408H851.14M824.834 462.408V484.198M851.14 462.408H876.694M851.14 462.408V484.198M876.694 462.408H902.248M876.694 462.408V484.198M902.248 462.408H927.802M902.248 462.408V484.198M927.802 462.408H954.108M927.802 462.408V484.198M954.108 462.408H979.662M954.108 462.408V484.198M979.662 462.408V484.198M490.376 484.198H515.93M490.376 484.198V505.988M490.376 484.198H464.07M515.93 484.198H541.484M515.93 484.198V505.988M541.484 484.198H567.79M541.484 484.198V505.988M567.79 484.198H593.344M567.79 484.198V505.988M593.344 484.198H618.898M593.344 484.198V505.988M618.898 484.198H644.452M618.898 484.198V505.988M644.452 484.198H670.758M644.452 484.198V505.988M670.758 484.198H696.312M670.758 484.198V505.988M696.312 484.198H721.866M696.312 484.198V505.988M721.866 484.198H748.172M721.866 484.198V505.988M748.172 484.198H773.726M748.172 484.198V505.988M773.726 484.198H799.28M773.726 484.198V505.988M799.28 484.198H824.834M799.28 484.198V505.988M824.834 484.198H851.14M824.834 484.198V505.988M851.14 484.198H876.694M851.14 484.198V505.988M876.694 484.198H902.248M876.694 484.198V505.988M902.248 484.198H927.802M902.248 484.198V505.988M927.802 484.198H954.108M927.802 484.198V505.988M954.108 484.198H979.662M954.108 484.198V505.988M979.662 484.198V505.988M490.376 505.988H515.93M490.376 505.988V528.418M490.376 505.988H464.07M515.93 505.988H541.484M515.93 505.988V528.418M541.484 505.988H567.79M541.484 505.988V528.418M567.79 505.988H593.344M567.79 505.988V528.418M593.344 505.988H618.898M593.344 505.988V528.418M618.898 505.988H644.452M618.898 505.988V528.418M644.452 505.988H670.758M644.452 505.988V528.418M670.758 505.988H696.312M670.758 505.988V528.418M696.312 505.988H721.866M696.312 505.988V528.418M721.866 505.988H748.172M721.866 505.988V528.418M748.172 505.988H773.726M748.172 505.988V528.418M773.726 505.988H799.28M773.726 505.988V528.418M799.28 505.988H824.834M799.28 505.988V528.418M824.834 505.988H851.14M824.834 505.988V528.418M851.14 505.988H876.694M851.14 505.988V528.418M876.694 505.988H902.248M876.694 505.988V528.418M902.248 505.988H927.802M902.248 505.988V528.418M927.802 505.988H954.108M927.802 505.988V528.418M954.108 505.988H979.662M954.108 505.988V528.418M979.662 505.988V528.418M490.376 528.418H515.93M490.376 528.418V550.208M490.376 528.418H464.07M515.93 528.418H541.484M515.93 528.418V550.208M541.484 528.418H567.79M541.484 528.418V550.208M567.79 528.418H593.344M567.79 528.418V550.208M593.344 528.418H618.898M593.344 528.418V550.208M618.898 528.418H644.452M618.898 528.418V550.208M644.452 528.418H670.758M644.452 528.418V550.208M670.758 528.418H696.312M670.758 528.418V550.208M696.312 528.418H721.866M696.312 528.418V550.208M721.866 528.418H748.172M721.866 528.418V550.208M748.172 528.418H773.726M748.172 528.418V550.208M773.726 528.418H799.28M773.726 528.418V550.208M799.28 528.418H824.834M799.28 528.418V550.208M824.834 528.418H851.14M824.834 528.418V550.208M851.14 528.418H876.694M851.14 528.418V550.208M876.694 528.418H902.248M876.694 528.418V550.208M902.248 528.418H927.802M902.248 528.418V550.208M927.802 528.418H954.108M927.802 528.418V550.208M954.108 528.418H979.662M954.108 528.418V550.208M979.662 528.418V550.208M490.376 550.208H515.93M490.376 550.208V571.998M490.376 550.208H464.07M515.93 550.208H541.484M515.93 550.208V571.998M541.484 550.208H567.79M541.484 550.208V571.998M567.79 550.208H593.344M567.79 550.208V571.998M593.344 550.208H618.898M593.344 550.208V571.998M618.898 550.208H644.452M618.898 550.208V571.998M644.452 550.208H670.758M644.452 550.208V571.998M670.758 550.208H696.312M670.758 550.208V571.998M696.312 550.208H721.866M696.312 550.208V571.998M721.866 550.208H748.172M721.866 550.208V571.998M748.172 550.208H773.726M748.172 550.208V571.998M773.726 550.208H799.28M773.726 550.208V571.998M799.28 550.208H824.834M799.28 550.208V571.998M824.834 550.208H851.14M824.834 550.208V571.998M851.14 550.208H876.694M851.14 550.208V571.998M876.694 550.208H902.248M876.694 550.208V571.998M902.248 550.208H927.802M902.248 550.208V571.998M927.802 550.208H954.108M927.802 550.208V571.998M954.108 550.208H979.662M954.108 550.208V571.998M979.662 550.208V571.998M490.376 571.998H515.93M490.376 571.998V593.787M490.376 571.998H464.07M515.93 571.998H541.484M515.93 571.998V593.787M541.484 571.998H567.79M541.484 571.998V593.787M567.79 571.998H593.344M567.79 571.998V593.787M593.344 571.998H618.898M593.344 571.998V593.787M618.898 571.998H644.452M618.898 571.998V593.787M644.452 571.998H670.758M644.452 571.998V593.787M670.758 571.998H696.312M670.758 571.998V593.787M696.312 571.998H721.866M696.312 571.998V593.787M721.866 571.998H748.172M721.866 571.998V593.787M748.172 571.998H773.726M748.172 571.998V593.787M773.726 571.998H799.28M773.726 571.998V593.787M799.28 571.998H824.834M799.28 571.998V593.787M824.834 571.998H851.14M824.834 571.998V593.787M851.14 571.998H876.694M851.14 571.998V593.787M876.694 571.998H902.248M876.694 571.998V593.787M902.248 571.998H927.802M902.248 571.998V593.787M927.802 571.998H954.108M927.802 571.998V593.787M954.108 571.998H979.662M954.108 571.998V593.787M979.662 571.998V593.787M490.376 593.787H515.93M490.376 593.787V616.218M490.376 593.787H464.07M515.93 593.787H541.484M515.93 593.787V616.218M541.484 593.787H567.79M541.484 593.787V616.218M567.79 593.787H593.344M567.79 593.787V616.218M593.344 593.787H618.898M593.344 593.787V616.218M618.898 593.787H644.452M618.898 593.787V616.218M644.452 593.787H670.758M644.452 593.787V616.218M670.758 593.787H696.312M670.758 593.787V616.218M696.312 593.787H721.866M696.312 593.787V616.218M721.866 593.787H748.172M721.866 593.787V616.218M748.172 593.787H773.726M748.172 593.787V616.218M773.726 593.787H799.28M773.726 593.787V616.218M799.28 593.787H824.834M799.28 593.787V616.218M824.834 593.787H851.14M824.834 593.787V616.218M851.14 593.787H876.694M851.14 593.787V616.218M876.694 593.787H902.248M876.694 593.787V616.218M902.248 593.787H927.802M902.248 593.787V616.218M927.802 593.787H954.108M927.802 593.787V616.218M954.108 593.787H979.662M954.108 593.787V616.218M979.662 593.787V616.218M490.376 616.218H515.93M490.376 616.218V638.008M490.376 616.218H464.07M515.93 616.218H541.484M515.93 616.218V638.008M541.484 616.218H567.79M541.484 616.218V638.008M567.79 616.218H593.344M567.79 616.218V638.008M593.344 616.218H618.898M593.344 616.218V638.008M618.898 616.218H644.452M618.898 616.218V638.008M644.452 616.218H670.758M644.452 616.218V638.008M670.758 616.218H696.312M670.758 616.218V638.008M696.312 616.218H721.866M696.312 616.218V638.008M721.866 616.218H748.172M721.866 616.218V638.008M748.172 616.218H773.726M748.172 616.218V638.008M773.726 616.218H799.28M773.726 616.218V638.008M799.28 616.218H824.834M799.28 616.218V638.008M824.834 616.218H851.14M824.834 616.218V638.008M851.14 616.218H876.694M851.14 616.218V638.008M876.694 616.218H902.248M876.694 616.218V638.008M902.248 616.218H927.802M902.248 616.218V638.008M927.802 616.218H954.108M927.802 616.218V638.008M954.108 616.218H979.662M954.108 616.218V638.008M979.662 616.218V638.008M490.376 638.008H515.93M490.376 638.008V659.797M490.376 638.008H464.07M515.93 638.008H541.484M515.93 638.008V659.797M541.484 638.008H567.79M541.484 638.008V659.797M567.79 638.008H593.344M567.79 638.008V659.797M593.344 638.008H618.898M593.344 638.008V659.797M618.898 638.008H644.452M618.898 638.008V659.797M644.452 638.008H670.758M644.452 638.008V659.797M670.758 638.008H696.312M670.758 638.008V659.797M696.312 638.008H721.866M696.312 638.008V659.797M721.866 638.008H748.172M721.866 638.008V659.797M748.172 638.008H773.726M748.172 638.008V659.797M773.726 638.008H799.28M773.726 638.008V659.797M799.28 638.008H824.834M799.28 638.008V659.797M824.834 638.008H851.14M824.834 638.008V659.797M851.14 638.008H876.694M851.14 638.008V659.797M876.694 638.008H902.248M876.694 638.008V659.797M902.248 638.008H927.802M902.248 638.008V659.797M927.802 638.008H954.108M927.802 638.008V659.797M954.108 638.008H979.662M954.108 638.008V659.797M979.662 638.008V659.797M490.376 659.797H515.93M490.376 659.797V682.228M490.376 659.797H464.07M515.93 659.797H541.484M515.93 659.797V682.228M541.484 659.797H567.79M541.484 659.797V682.228M567.79 659.797H593.344M567.79 659.797V682.228M593.344 659.797H618.898M593.344 659.797V682.228M618.898 659.797H644.452M618.898 659.797V682.228M644.452 659.797H670.758M644.452 659.797V682.228M670.758 659.797H696.312M670.758 659.797V682.228M696.312 659.797H721.866M696.312 659.797V682.228M721.866 659.797H748.172M721.866 659.797V682.228M748.172 659.797H773.726M748.172 659.797V682.228M773.726 659.797H799.28M773.726 659.797V682.228M799.28 659.797H824.834M799.28 659.797V682.228M824.834 659.797H851.14M824.834 659.797V682.228M851.14 659.797H876.694M851.14 659.797V682.228M876.694 659.797H902.248M876.694 659.797V682.228M902.248 659.797H927.802M902.248 659.797V682.228M927.802 659.797H954.108M927.802 659.797V682.228M954.108 659.797H979.662M954.108 659.797V682.228M979.662 659.797V682.228M490.376 682.228H515.93M490.376 682.228V704.018M490.376 682.228H464.07M515.93 682.228H541.484M515.93 682.228V704.018M541.484 682.228H567.79M541.484 682.228V704.018M567.79 682.228H593.344M567.79 682.228V704.018M593.344 682.228H618.898M593.344 682.228V704.018M618.898 682.228H644.452M618.898 682.228V704.018M644.452 682.228H670.758M644.452 682.228V704.018M670.758 682.228H696.312M670.758 682.228V704.018M696.312 682.228H721.866M696.312 682.228V704.018M721.866 682.228H748.172M721.866 682.228V704.018M748.172 682.228H773.726M748.172 682.228V704.018M773.726 682.228H799.28M773.726 682.228V704.018M799.28 682.228H824.834M799.28 682.228V704.018M824.834 682.228H851.14M824.834 682.228V704.018M851.14 682.228H876.694M851.14 682.228V704.018M876.694 682.228H902.248M876.694 682.228V704.018M902.248 682.228H927.802M902.248 682.228V704.018M927.802 682.228H954.108M927.802 682.228V704.018M954.108 682.228H979.662M954.108 682.228V704.018M979.662 682.228V704.018M490.376 704.018H515.93M490.376 704.018V725.807M490.376 704.018H464.07M515.93 704.018H541.484M515.93 704.018V725.807M541.484 704.018H567.79M541.484 704.018V725.807M567.79 704.018H593.344M567.79 704.018V725.807M593.344 704.018H618.898M593.344 704.018V725.807M618.898 704.018H644.452M618.898 704.018V725.807M644.452 704.018H670.758M644.452 704.018V725.807M670.758 704.018H696.312M670.758 704.018V725.807M696.312 704.018H721.866M696.312 704.018V725.807M721.866 704.018H748.172M721.866 704.018V725.807M748.172 704.018H773.726M748.172 704.018V725.807M773.726 704.018H799.28M773.726 704.018V725.807M799.28 704.018H824.834M799.28 704.018V725.807M824.834 704.018H851.14M824.834 704.018V725.807M851.14 704.018H876.694M851.14 704.018V725.807M876.694 704.018H902.248M876.694 704.018V725.807M902.248 704.018H927.802M902.248 704.018V725.807M927.802 704.018H954.108M927.802 704.018V725.807M954.108 704.018H979.662M954.108 704.018V725.807M979.662 704.018V725.807M490.376 725.807H515.93M490.376 725.807V748.238M490.376 725.807H464.07M515.93 725.807H541.484M515.93 725.807V748.238M541.484 725.807H567.79M541.484 725.807V748.238M567.79 725.807H593.344M567.79 725.807V748.238M593.344 725.807H618.898M593.344 725.807V748.238M618.898 725.807H644.452M618.898 725.807V748.238M644.452 725.807H670.758M644.452 725.807V748.238M670.758 725.807H696.312M670.758 725.807V748.238M696.312 725.807H721.866M696.312 725.807V748.238M721.866 725.807H748.172M721.866 725.807V748.238M748.172 725.807H773.726M748.172 725.807V748.238M773.726 725.807H799.28M773.726 725.807V748.238M799.28 725.807H824.834M799.28 725.807V748.238M824.834 725.807H851.14M824.834 725.807V748.238M851.14 725.807H876.694M851.14 725.807V748.238M876.694 725.807H902.248M876.694 725.807V748.238M902.248 725.807H927.802M902.248 725.807V748.238M927.802 725.807H954.108M927.802 725.807V748.238M954.108 725.807H979.662M954.108 725.807V748.238M979.662 725.807V748.238M490.376 748.238H515.93M490.376 748.238V770.028M490.376 748.238H464.07M515.93 748.238H541.484M515.93 748.238V770.028M541.484 748.238H567.79M541.484 748.238V770.028M567.79 748.238H593.344M567.79 748.238V770.028M593.344 748.238H618.898M593.344 748.238V770.028M618.898 748.238H644.452M618.898 748.238V770.028M644.452 748.238H670.758M644.452 748.238V770.028M670.758 748.238H696.312M670.758 748.238V770.028M696.312 748.238H721.866M696.312 748.238V770.028M721.866 748.238H748.172M721.866 748.238V770.028M748.172 748.238H773.726M748.172 748.238V770.028M773.726 748.238H799.28M773.726 748.238V770.028M799.28 748.238H824.834M799.28 748.238V770.028M824.834 748.238H851.14M824.834 748.238V770.028M851.14 748.238H876.694M851.14 748.238V770.028M876.694 748.238H902.248M876.694 748.238V770.028M902.248 748.238H927.802M902.248 748.238V770.028M927.802 748.238H954.108M927.802 748.238V770.028M954.108 748.238H979.662M954.108 748.238V770.028M979.662 748.238V770.028M490.376 770.028H515.93M490.376 770.028V791.817M490.376 770.028H464.07M515.93 770.028H541.484M515.93 770.028V791.817M541.484 770.028H567.79M541.484 770.028V791.817M567.79 770.028H593.344M567.79 770.028V791.817M593.344 770.028H618.898M593.344 770.028V791.817M618.898 770.028H644.452M618.898 770.028V791.817M644.452 770.028H670.758M644.452 770.028V791.817M670.758 770.028H696.312M670.758 770.028V791.817M696.312 770.028H721.866M696.312 770.028V791.817M721.866 770.028H748.172M721.866 770.028V791.817M748.172 770.028H773.726M748.172 770.028V791.817M773.726 770.028H799.28M773.726 770.028V791.817M799.28 770.028H824.834M799.28 770.028V791.817M824.834 770.028H851.14M824.834 770.028V791.817M851.14 770.028H876.694M851.14 770.028V791.817M876.694 770.028H902.248M876.694 770.028V791.817M902.248 770.028H927.802M902.248 770.028V791.817M927.802 770.028H954.108M927.802 770.028V791.817M954.108 770.028H979.662M954.108 770.028V791.817M979.662 770.028V791.817M490.376 791.817H515.93M490.376 791.817V813.607M490.376 791.817H464.07M515.93 791.817H541.484M515.93 791.817V813.607M541.484 791.817H567.79M541.484 791.817V813.607M567.79 791.817H593.344M567.79 791.817V813.607M593.344 791.817H618.898M593.344 791.817V813.607M618.898 791.817H644.452M618.898 791.817V813.607M644.452 791.817H670.758M644.452 791.817V813.607M670.758 791.817H696.312M670.758 791.817V813.607M696.312 791.817H721.866M696.312 791.817V813.607M721.866 791.817H748.172M721.866 791.817V813.607M748.172 791.817H773.726M748.172 791.817V813.607M773.726 791.817H799.28M773.726 791.817V813.607M799.28 791.817H824.834M799.28 791.817V813.607M824.834 791.817H851.14M824.834 791.817V813.607M851.14 791.817H876.694M851.14 791.817V813.607M876.694 791.817H902.248M876.694 791.817V813.607M902.248 791.817H927.802M902.248 791.817V813.607M927.802 791.817H954.108M927.802 791.817V813.607M954.108 791.817H979.662M954.108 791.817V813.607M979.662 791.817V813.607H954.108M490.376 813.607H515.93M490.376 813.607H464.07M515.93 813.607H541.484M541.484 813.607H567.79M567.79 813.607H593.344M593.344 813.607H618.898M618.898 813.607H644.452M644.452 813.607H670.758M670.758 813.607H696.312M696.312 813.607H721.866M721.866 813.607H748.172M748.172 813.607H773.726M773.726 813.607H799.28M799.28 813.607H824.834M824.834 813.607H851.14M851.14 813.607H876.694M876.694 813.607H902.248M902.248 813.607H927.802M927.802 813.607H954.108M26.6437 0.338125H0.338002V22.7687M26.6437 0.338125V22.7687M26.6437 0.338125H52.1978M0.338002 22.7687H26.6437M0.338002 22.7687V44.5584M26.6437 22.7687H52.1978M26.6437 22.7687V44.5584M52.1978 0.338125V22.7687M52.1978 0.338125H77.7519M52.1978 22.7687H77.7519M52.1978 22.7687V44.5584M77.7519 0.338125V22.7687M77.7519 0.338125H104.058M77.7519 22.7687H104.058M77.7519 22.7687V44.5584M104.058 0.338125V22.7687M104.058 0.338125H129.612M104.058 22.7687H129.612M104.058 22.7687V44.5584M129.612 0.338125V22.7687M129.612 0.338125H155.166M129.612 22.7687H155.166M129.612 22.7687V44.5584M155.166 0.338125V22.7687M155.166 0.338125H180.72M155.166 22.7687H180.72M155.166 22.7687V44.5584M180.72 0.338125V22.7687M180.72 0.338125H207.026M180.72 22.7687H207.026M180.72 22.7687V44.5584M207.026 0.338125V22.7687M207.026 0.338125H232.58M207.026 22.7687H232.58M207.026 22.7687V44.5584M232.58 0.338125V22.7687M232.58 0.338125H258.134M232.58 22.7687H258.134M232.58 22.7687V44.5584M258.134 0.338125V22.7687M258.134 0.338125H283.688M258.134 22.7687H283.688M258.134 22.7687V44.5584M283.688 0.338125V22.7687M283.688 0.338125H309.994M283.688 22.7687H309.994M283.688 22.7687V44.5584M309.994 0.338125V22.7687M309.994 0.338125H335.548M309.994 22.7687H335.548M309.994 22.7687V44.5584M335.548 0.338125V22.7687M335.548 0.338125H361.102M335.548 22.7687H361.102M335.548 22.7687V44.5584M361.102 0.338125V22.7687M361.102 0.338125H387.408M361.102 22.7687H387.408M361.102 22.7687V44.5584M387.408 0.338125V22.7687M387.408 0.338125H412.962M387.408 22.7687H412.962M387.408 22.7687V44.5584M412.962 0.338125V22.7687M412.962 0.338125H438.516M412.962 22.7687H438.516M412.962 22.7687V44.5584M438.516 0.338125V22.7687M438.516 0.338125H464.07M438.516 22.7687H464.07M438.516 22.7687V44.5584M464.07 0.338125V22.7687M464.07 22.7687V44.5584M0.338002 44.5584H26.6437M0.338002 44.5584V66.3481M26.6437 44.5584H52.1978M26.6437 44.5584V66.3481M52.1978 44.5584H77.7519M52.1978 44.5584V66.3481M77.7519 44.5584H104.058M77.7519 44.5584V66.3481M104.058 44.5584H129.612M104.058 44.5584V66.3481M129.612 44.5584H155.166M129.612 44.5584V66.3481M155.166 44.5584H180.72M155.166 44.5584V66.3481M180.72 44.5584H207.026M180.72 44.5584V66.3481M207.026 44.5584H232.58M207.026 44.5584V66.3481M232.58 44.5584H258.134M232.58 44.5584V66.3481M258.134 44.5584H283.688M258.134 44.5584V66.3481M283.688 44.5584H309.994M283.688 44.5584V66.3481M309.994 44.5584H335.548M309.994 44.5584V66.3481M335.548 44.5584H361.102M335.548 44.5584V66.3481M361.102 44.5584H387.408M361.102 44.5584V66.3481M387.408 44.5584H412.962M387.408 44.5584V66.3481M412.962 44.5584H438.516M412.962 44.5584V66.3481M438.516 44.5584H464.07M438.516 44.5584V66.3481M464.07 44.5584V66.3481M0.338002 66.3481H26.6437M0.338002 66.3481V88.7787M26.6437 66.3481H52.1978M26.6437 66.3481V88.7787M52.1978 66.3481H77.7519M52.1978 66.3481V88.7787M77.7519 66.3481H104.058M77.7519 66.3481V88.7787M104.058 66.3481H129.612M104.058 66.3481V88.7787M129.612 66.3481H155.166M129.612 66.3481V88.7787M155.166 66.3481H180.72M155.166 66.3481V88.7787M180.72 66.3481H207.026M180.72 66.3481V88.7787M207.026 66.3481H232.58M207.026 66.3481V88.7787M232.58 66.3481H258.134M232.58 66.3481V88.7787M258.134 66.3481H283.688M258.134 66.3481V88.7787M283.688 66.3481H309.994M283.688 66.3481V88.7787M309.994 66.3481H335.548M309.994 66.3481V88.7787M335.548 66.3481H361.102M335.548 66.3481V88.7787M361.102 66.3481H387.408M361.102 66.3481V88.7787M387.408 66.3481H412.962M387.408 66.3481V88.7787M412.962 66.3481H438.516M412.962 66.3481V88.7787M438.516 66.3481H464.07M438.516 66.3481V88.7787M464.07 66.3481V88.7787M0.338002 88.7787H26.6437M0.338002 88.7787V110.568M26.6437 88.7787H52.1978M26.6437 88.7787V110.568M52.1978 88.7787H77.7519M52.1978 88.7787V110.568M77.7519 88.7787H104.058M77.7519 88.7787V110.568M104.058 88.7787H129.612M104.058 88.7787V110.568M129.612 88.7787H155.166M129.612 88.7787V110.568M155.166 88.7787H180.72M155.166 88.7787V110.568M180.72 88.7787H207.026M180.72 88.7787V110.568M207.026 88.7787H232.58M207.026 88.7787V110.568M232.58 88.7787H258.134M232.58 88.7787V110.568M258.134 88.7787H283.688M258.134 88.7787V110.568M283.688 88.7787H309.994M283.688 88.7787V110.568M309.994 88.7787H335.548M309.994 88.7787V110.568M335.548 88.7787H361.102M335.548 88.7787V110.568M361.102 88.7787H387.408M361.102 88.7787V110.568M387.408 88.7787H412.962M387.408 88.7787V110.568M412.962 88.7787H438.516M412.962 88.7787V110.568M438.516 88.7787H464.07M438.516 88.7787V110.568M464.07 88.7787V110.568M0.338002 110.568H26.6437M0.338002 110.568V132.358M26.6437 110.568H52.1978M26.6437 110.568V132.358M52.1978 110.568H77.7519M52.1978 110.568V132.358M77.7519 110.568H104.058M77.7519 110.568V132.358M104.058 110.568H129.612M104.058 110.568V132.358M129.612 110.568H155.166M129.612 110.568V132.358M155.166 110.568H180.72M155.166 110.568V132.358M180.72 110.568H207.026M180.72 110.568V132.358M207.026 110.568H232.58M207.026 110.568V132.358M232.58 110.568H258.134M232.58 110.568V132.358M258.134 110.568H283.688M258.134 110.568V132.358M283.688 110.568H309.994M283.688 110.568V132.358M309.994 110.568H335.548M309.994 110.568V132.358M335.548 110.568H361.102M335.548 110.568V132.358M361.102 110.568H387.408M361.102 110.568V132.358M387.408 110.568H412.962M387.408 110.568V132.358M412.962 110.568H438.516M412.962 110.568V132.358M438.516 110.568H464.07M438.516 110.568V132.358M464.07 110.568V132.358M0.338002 132.358H26.6437M0.338002 132.358V154.789M26.6437 132.358H52.1978M26.6437 132.358V154.789M52.1978 132.358H77.7519M52.1978 132.358V154.789M77.7519 132.358H104.058M77.7519 132.358V154.789M104.058 132.358H129.612M104.058 132.358V154.789M129.612 132.358H155.166M129.612 132.358V154.789M155.166 132.358H180.72M155.166 132.358V154.789M180.72 132.358H207.026M180.72 132.358V154.789M207.026 132.358H232.58M207.026 132.358V154.789M232.58 132.358H258.134M232.58 132.358V154.789M258.134 132.358H283.688M258.134 132.358V154.789M283.688 132.358H309.994M283.688 132.358V154.789M309.994 132.358H335.548M309.994 132.358V154.789M335.548 132.358H361.102M335.548 132.358V154.789M361.102 132.358H387.408M361.102 132.358V154.789M387.408 132.358H412.962M387.408 132.358V154.789M412.962 132.358H438.516M412.962 132.358V154.789M438.516 132.358H464.07M438.516 132.358V154.789M464.07 132.358V154.789M0.338002 154.789H26.6437M0.338002 154.789V176.578M26.6437 154.789H52.1978M26.6437 154.789V176.578M52.1978 154.789H77.7519M52.1978 154.789V176.578M77.7519 154.789H104.058M77.7519 154.789V176.578M104.058 154.789H129.612M104.058 154.789V176.578M129.612 154.789H155.166M129.612 154.789V176.578M155.166 154.789H180.72M155.166 154.789V176.578M180.72 154.789H207.026M180.72 154.789V176.578M207.026 154.789H232.58M207.026 154.789V176.578M232.58 154.789H258.134M232.58 154.789V176.578M258.134 154.789H283.688M258.134 154.789V176.578M283.688 154.789H309.994M283.688 154.789V176.578M309.994 154.789H335.548M309.994 154.789V176.578M335.548 154.789H361.102M335.548 154.789V176.578M361.102 154.789H387.408M361.102 154.789V176.578M387.408 154.789H412.962M387.408 154.789V176.578M412.962 154.789H438.516M412.962 154.789V176.578M438.516 154.789H464.07M438.516 154.789V176.578M464.07 154.789V176.578M0.338002 176.578H26.6437M0.338002 176.578V198.368M26.6437 176.578H52.1978M26.6437 176.578V198.368M52.1978 176.578H77.7519M52.1978 176.578V198.368M77.7519 176.578H104.058M77.7519 176.578V198.368M104.058 176.578H129.612M104.058 176.578V198.368M129.612 176.578H155.166M129.612 176.578V198.368M155.166 176.578H180.72M155.166 176.578V198.368M180.72 176.578H207.026M180.72 176.578V198.368M207.026 176.578H232.58M207.026 176.578V198.368M232.58 176.578H258.134M232.58 176.578V198.368M258.134 176.578H283.688M258.134 176.578V198.368M283.688 176.578H309.994M283.688 176.578V198.368M309.994 176.578H335.548M309.994 176.578V198.368M335.548 176.578H361.102M335.548 176.578V198.368M361.102 176.578H387.408M361.102 176.578V198.368M387.408 176.578H412.962M387.408 176.578V198.368M412.962 176.578H438.516M412.962 176.578V198.368M438.516 176.578H464.07M438.516 176.578V198.368M464.07 176.578V198.368M0.338002 198.368H26.6437M0.338002 198.368V220.158M26.6437 198.368H52.1978M26.6437 198.368V220.158M52.1978 198.368H77.7519M52.1978 198.368V220.158M77.7519 198.368H104.058M77.7519 198.368V220.158M104.058 198.368H129.612M104.058 198.368V220.158M129.612 198.368H155.166M129.612 198.368V220.158M155.166 198.368H180.72M155.166 198.368V220.158M180.72 198.368H207.026M180.72 198.368V220.158M207.026 198.368H232.58M207.026 198.368V220.158M232.58 198.368H258.134M232.58 198.368V220.158M258.134 198.368H283.688M258.134 198.368V220.158M283.688 198.368H309.994M283.688 198.368V220.158M309.994 198.368H335.548M309.994 198.368V220.158M335.548 198.368H361.102M335.548 198.368V220.158M361.102 198.368H387.408M361.102 198.368V220.158M387.408 198.368H412.962M387.408 198.368V220.158M412.962 198.368H438.516M412.962 198.368V220.158M438.516 198.368H464.07M438.516 198.368V220.158M464.07 198.368V220.158M0.338002 220.158H26.6437M0.338002 220.158V242.588M26.6437 220.158H52.1978M26.6437 220.158V242.588M52.1978 220.158H77.7519M52.1978 220.158V242.588M77.7519 220.158H104.058M77.7519 220.158V242.588M104.058 220.158H129.612M104.058 220.158V242.588M129.612 220.158H155.166M129.612 220.158V242.588M155.166 220.158H180.72M155.166 220.158V242.588M180.72 220.158H207.026M180.72 220.158V242.588M207.026 220.158H232.58M207.026 220.158V242.588M232.58 220.158H258.134M232.58 220.158V242.588M258.134 220.158H283.688M258.134 220.158V242.588M283.688 220.158H309.994M283.688 220.158V242.588M309.994 220.158H335.548M309.994 220.158V242.588M335.548 220.158H361.102M335.548 220.158V242.588M361.102 220.158H387.408M361.102 220.158V242.588M387.408 220.158H412.962M387.408 220.158V242.588M412.962 220.158H438.516M412.962 220.158V242.588M438.516 220.158H464.07M438.516 220.158V242.588M464.07 220.158V242.588M0.338002 242.588H26.6437M0.338002 242.588V264.378M26.6437 242.588H52.1978M26.6437 242.588V264.378M52.1978 242.588H77.7519M52.1978 242.588V264.378M77.7519 242.588H104.058M77.7519 242.588V264.378M104.058 242.588H129.612M104.058 242.588V264.378M129.612 242.588H155.166M129.612 242.588V264.378M155.166 242.588H180.72M155.166 242.588V264.378M180.72 242.588H207.026M180.72 242.588V264.378M207.026 242.588H232.58M207.026 242.588V264.378M232.58 242.588H258.134M232.58 242.588V264.378M258.134 242.588H283.688M258.134 242.588V264.378M283.688 242.588H309.994M283.688 242.588V264.378M309.994 242.588H335.548M309.994 242.588V264.378M335.548 242.588H361.102M335.548 242.588V264.378M361.102 242.588H387.408M361.102 242.588V264.378M387.408 242.588H412.962M387.408 242.588V264.378M412.962 242.588H438.516M412.962 242.588V264.378M438.516 242.588H464.07M438.516 242.588V264.378M464.07 242.588V264.378M0.338002 264.378H26.6437M0.338002 264.378V286.168M26.6437 264.378H52.1978M26.6437 264.378V286.168M52.1978 264.378H77.7519M52.1978 264.378V286.168M77.7519 264.378H104.058M77.7519 264.378V286.168M104.058 264.378H129.612M104.058 264.378V286.168M129.612 264.378H155.166M129.612 264.378V286.168M155.166 264.378H180.72M155.166 264.378V286.168M180.72 264.378H207.026M180.72 264.378V286.168M207.026 264.378H232.58M207.026 264.378V286.168M232.58 264.378H258.134M232.58 264.378V286.168M258.134 264.378H283.688M258.134 264.378V286.168M283.688 264.378H309.994M283.688 264.378V286.168M309.994 264.378H335.548M309.994 264.378V286.168M335.548 264.378H361.102M335.548 264.378V286.168M361.102 264.378H387.408M361.102 264.378V286.168M387.408 264.378H412.962M387.408 264.378V286.168M412.962 264.378H438.516M412.962 264.378V286.168M438.516 264.378H464.07M438.516 264.378V286.168M464.07 264.378V286.168M0.338002 286.168H26.6437M0.338002 286.168V308.598M26.6437 286.168H52.1978M26.6437 286.168V308.598M52.1978 286.168H77.7519M52.1978 286.168V308.598M77.7519 286.168H104.058M77.7519 286.168V308.598M104.058 286.168H129.612M104.058 286.168V308.598M129.612 286.168H155.166M129.612 286.168V308.598M155.166 286.168H180.72M155.166 286.168V308.598M180.72 286.168H207.026M180.72 286.168V308.598M207.026 286.168H232.58M207.026 286.168V308.598M232.58 286.168H258.134M232.58 286.168V308.598M258.134 286.168H283.688M258.134 286.168V308.598M283.688 286.168H309.994M283.688 286.168V308.598M309.994 286.168H335.548M309.994 286.168V308.598M335.548 286.168H361.102M335.548 286.168V308.598M361.102 286.168H387.408M361.102 286.168V308.598M387.408 286.168H412.962M387.408 286.168V308.598M412.962 286.168H438.516M412.962 286.168V308.598M438.516 286.168H464.07M438.516 286.168V308.598M464.07 286.168V308.598M0.338002 308.598H26.6437M0.338002 308.598V330.388M26.6437 308.598H52.1978M26.6437 308.598V330.388M52.1978 308.598H77.7519M52.1978 308.598V330.388M77.7519 308.598H104.058M77.7519 308.598V330.388M104.058 308.598H129.612M104.058 308.598V330.388M129.612 308.598H155.166M129.612 308.598V330.388M155.166 308.598H180.72M155.166 308.598V330.388M180.72 308.598H207.026M180.72 308.598V330.388M207.026 308.598H232.58M207.026 308.598V330.388M232.58 308.598H258.134M232.58 308.598V330.388M258.134 308.598H283.688M258.134 308.598V330.388M283.688 308.598H309.994M283.688 308.598V330.388M309.994 308.598H335.548M309.994 308.598V330.388M335.548 308.598H361.102M335.548 308.598V330.388M361.102 308.598H387.408M361.102 308.598V330.388M387.408 308.598H412.962M387.408 308.598V330.388M412.962 308.598H438.516M412.962 308.598V330.388M438.516 308.598H464.07M438.516 308.598V330.388M464.07 308.598V330.388M0.338002 330.388H26.6437M0.338002 330.388V352.178M26.6437 330.388H52.1978M26.6437 330.388V352.178M52.1978 330.388H77.7519M52.1978 330.388V352.178M77.7519 330.388H104.058M77.7519 330.388V352.178M104.058 330.388H129.612M104.058 330.388V352.178M129.612 330.388H155.166M129.612 330.388V352.178M155.166 330.388H180.72M155.166 330.388V352.178M180.72 330.388H207.026M180.72 330.388V352.178M207.026 330.388H232.58M207.026 330.388V352.178M232.58 330.388H258.134M232.58 330.388V352.178M258.134 330.388H283.688M258.134 330.388V352.178M283.688 330.388H309.994M283.688 330.388V352.178M309.994 330.388H335.548M309.994 330.388V352.178M335.548 330.388H361.102M335.548 330.388V352.178M361.102 330.388H387.408M361.102 330.388V352.178M387.408 330.388H412.962M387.408 330.388V352.178M412.962 330.388H438.516M412.962 330.388V352.178M438.516 330.388H464.07M438.516 330.388V352.178M464.07 330.388V352.178M0.338002 352.178H26.6437M0.338002 352.178V373.968M26.6437 352.178H52.1978M26.6437 352.178V373.968M52.1978 352.178H77.7519M52.1978 352.178V373.968M77.7519 352.178H104.058M77.7519 352.178V373.968M104.058 352.178H129.612M104.058 352.178V373.968M129.612 352.178H155.166M129.612 352.178V373.968M155.166 352.178H180.72M155.166 352.178V373.968M180.72 352.178H207.026M180.72 352.178V373.968M207.026 352.178H232.58M207.026 352.178V373.968M232.58 352.178H258.134M232.58 352.178V373.968M258.134 352.178H283.688M258.134 352.178V373.968M283.688 352.178H309.994M283.688 352.178V373.968M309.994 352.178H335.548M309.994 352.178V373.968M335.548 352.178H361.102M335.548 352.178V373.968M361.102 352.178H387.408M361.102 352.178V373.968M387.408 352.178H412.962M387.408 352.178V373.968M412.962 352.178H438.516M412.962 352.178V373.968M438.516 352.178H464.07M438.516 352.178V373.968M464.07 352.178V373.968M0.338002 373.968H26.6437M0.338002 373.968V396.398M26.6437 373.968H52.1978M26.6437 373.968V396.398M52.1978 373.968H77.7519M52.1978 373.968V396.398M77.7519 373.968H104.058M77.7519 373.968V396.398M104.058 373.968H129.612M104.058 373.968V396.398M129.612 373.968H155.166M129.612 373.968V396.398M155.166 373.968H180.72M155.166 373.968V396.398M180.72 373.968H207.026M180.72 373.968V396.398M207.026 373.968H232.58M207.026 373.968V396.398M232.58 373.968H258.134M232.58 373.968V396.398M258.134 373.968H283.688M258.134 373.968V396.398M283.688 373.968H309.994M283.688 373.968V396.398M309.994 373.968H335.548M309.994 373.968V396.398M335.548 373.968H361.102M335.548 373.968V396.398M361.102 373.968H387.408M361.102 373.968V396.398M387.408 373.968H412.962M387.408 373.968V396.398M412.962 373.968H438.516M412.962 373.968V396.398M438.516 373.968H464.07M438.516 373.968V396.398M464.07 373.968V396.398M0.338002 396.398H26.6437M0.338002 396.398V418.188M26.6437 396.398H52.1978M26.6437 396.398V418.188M52.1978 396.398H77.7519M52.1978 396.398V418.188M77.7519 396.398H104.058M77.7519 396.398V418.188M104.058 396.398H129.612M104.058 396.398V418.188M129.612 396.398H155.166M129.612 396.398V418.188M155.166 396.398H180.72M155.166 396.398V418.188M180.72 396.398H207.026M180.72 396.398V418.188M207.026 396.398H232.58M207.026 396.398V418.188M232.58 396.398H258.134M232.58 396.398V418.188M258.134 396.398H283.688M258.134 396.398V418.188M283.688 396.398H309.994M283.688 396.398V418.188M309.994 396.398H335.548M309.994 396.398V418.188M335.548 396.398H361.102M335.548 396.398V418.188M361.102 396.398H387.408M361.102 396.398V418.188M387.408 396.398H412.962M387.408 396.398V418.188M412.962 396.398H438.516M412.962 396.398V418.188M438.516 396.398H464.07M438.516 396.398V418.188M464.07 396.398V418.188M0.338002 418.188H26.6437M0.338002 418.188V439.978M26.6437 418.188H52.1978M26.6437 418.188V439.978M52.1978 418.188H77.7519M52.1978 418.188V439.978M77.7519 418.188H104.058M77.7519 418.188V439.978M104.058 418.188H129.612M104.058 418.188V439.978M129.612 418.188H155.166M129.612 418.188V439.978M155.166 418.188H180.72M155.166 418.188V439.978M180.72 418.188H207.026M180.72 418.188V439.978M207.026 418.188H232.58M207.026 418.188V439.978M232.58 418.188H258.134M232.58 418.188V439.978M258.134 418.188H283.688M258.134 418.188V439.978M283.688 418.188H309.994M283.688 418.188V439.978M309.994 418.188H335.548M309.994 418.188V439.978M335.548 418.188H361.102M335.548 418.188V439.978M361.102 418.188H387.408M361.102 418.188V439.978M387.408 418.188H412.962M387.408 418.188V439.978M412.962 418.188H438.516M412.962 418.188V439.978M438.516 418.188H464.07M438.516 418.188V439.978M464.07 418.188V439.978M0.338002 439.978H26.6437M0.338002 439.978V462.408M26.6437 439.978H52.1978M26.6437 439.978V462.408M52.1978 439.978H77.7519M52.1978 439.978V462.408M77.7519 439.978H104.058M77.7519 439.978V462.408M104.058 439.978H129.612M104.058 439.978V462.408M129.612 439.978H155.166M129.612 439.978V462.408M155.166 439.978H180.72M155.166 439.978V462.408M180.72 439.978H207.026M180.72 439.978V462.408M207.026 439.978H232.58M207.026 439.978V462.408M232.58 439.978H258.134M232.58 439.978V462.408M258.134 439.978H283.688M258.134 439.978V462.408M283.688 439.978H309.994M283.688 439.978V462.408M309.994 439.978H335.548M309.994 439.978V462.408M335.548 439.978H361.102M335.548 439.978V462.408M361.102 439.978H387.408M361.102 439.978V462.408M387.408 439.978H412.962M387.408 439.978V462.408M412.962 439.978H438.516M412.962 439.978V462.408M438.516 439.978H464.07M438.516 439.978V462.408M464.07 439.978V462.408M0.338002 462.408H26.6437M0.338002 462.408V484.198M26.6437 462.408H52.1978M26.6437 462.408V484.198M52.1978 462.408H77.7519M52.1978 462.408V484.198M77.7519 462.408H104.058M77.7519 462.408V484.198M104.058 462.408H129.612M104.058 462.408V484.198M129.612 462.408H155.166M129.612 462.408V484.198M155.166 462.408H180.72M155.166 462.408V484.198M180.72 462.408H207.026M180.72 462.408V484.198M207.026 462.408H232.58M207.026 462.408V484.198M232.58 462.408H258.134M232.58 462.408V484.198M258.134 462.408H283.688M258.134 462.408V484.198M283.688 462.408H309.994M283.688 462.408V484.198M309.994 462.408H335.548M309.994 462.408V484.198M335.548 462.408H361.102M335.548 462.408V484.198M361.102 462.408H387.408M361.102 462.408V484.198M387.408 462.408H412.962M387.408 462.408V484.198M412.962 462.408H438.516M412.962 462.408V484.198M438.516 462.408H464.07M438.516 462.408V484.198M464.07 462.408V484.198M0.338002 484.198H26.6437M0.338002 484.198V505.988M26.6437 484.198H52.1978M26.6437 484.198V505.988M52.1978 484.198H77.7519M52.1978 484.198V505.988M77.7519 484.198H104.058M77.7519 484.198V505.988M104.058 484.198H129.612M104.058 484.198V505.988M129.612 484.198H155.166M129.612 484.198V505.988M155.166 484.198H180.72M155.166 484.198V505.988M180.72 484.198H207.026M180.72 484.198V505.988M207.026 484.198H232.58M207.026 484.198V505.988M232.58 484.198H258.134M232.58 484.198V505.988M258.134 484.198H283.688M258.134 484.198V505.988M283.688 484.198H309.994M283.688 484.198V505.988M309.994 484.198H335.548M309.994 484.198V505.988M335.548 484.198H361.102M335.548 484.198V505.988M361.102 484.198H387.408M361.102 484.198V505.988M387.408 484.198H412.962M387.408 484.198V505.988M412.962 484.198H438.516M412.962 484.198V505.988M438.516 484.198H464.07M438.516 484.198V505.988M464.07 484.198V505.988M0.338002 505.988H26.6437M0.338002 505.988V528.418M26.6437 505.988H52.1978M26.6437 505.988V528.418M52.1978 505.988H77.7519M52.1978 505.988V528.418M77.7519 505.988H104.058M77.7519 505.988V528.418M104.058 505.988H129.612M104.058 505.988V528.418M129.612 505.988H155.166M129.612 505.988V528.418M155.166 505.988H180.72M155.166 505.988V528.418M180.72 505.988H207.026M180.72 505.988V528.418M207.026 505.988H232.58M207.026 505.988V528.418M232.58 505.988H258.134M232.58 505.988V528.418M258.134 505.988H283.688M258.134 505.988V528.418M283.688 505.988H309.994M283.688 505.988V528.418M309.994 505.988H335.548M309.994 505.988V528.418M335.548 505.988H361.102M335.548 505.988V528.418M361.102 505.988H387.408M361.102 505.988V528.418M387.408 505.988H412.962M387.408 505.988V528.418M412.962 505.988H438.516M412.962 505.988V528.418M438.516 505.988H464.07M438.516 505.988V528.418M464.07 505.988V528.418M0.338002 528.418H26.6437M0.338002 528.418V550.208M26.6437 528.418H52.1978M26.6437 528.418V550.208M52.1978 528.418H77.7519M52.1978 528.418V550.208M77.7519 528.418H104.058M77.7519 528.418V550.208M104.058 528.418H129.612M104.058 528.418V550.208M129.612 528.418H155.166M129.612 528.418V550.208M155.166 528.418H180.72M155.166 528.418V550.208M180.72 528.418H207.026M180.72 528.418V550.208M207.026 528.418H232.58M207.026 528.418V550.208M232.58 528.418H258.134M232.58 528.418V550.208M258.134 528.418H283.688M258.134 528.418V550.208M283.688 528.418H309.994M283.688 528.418V550.208M309.994 528.418H335.548M309.994 528.418V550.208M335.548 528.418H361.102M335.548 528.418V550.208M361.102 528.418H387.408M361.102 528.418V550.208M387.408 528.418H412.962M387.408 528.418V550.208M412.962 528.418H438.516M412.962 528.418V550.208M438.516 528.418H464.07M438.516 528.418V550.208M464.07 528.418V550.208M0.338002 550.208H26.6437M0.338002 550.208V571.998M26.6437 550.208H52.1978M26.6437 550.208V571.998M52.1978 550.208H77.7519M52.1978 550.208V571.998M77.7519 550.208H104.058M77.7519 550.208V571.998M104.058 550.208H129.612M104.058 550.208V571.998M129.612 550.208H155.166M129.612 550.208V571.998M155.166 550.208H180.72M155.166 550.208V571.998M180.72 550.208H207.026M180.72 550.208V571.998M207.026 550.208H232.58M207.026 550.208V571.998M232.58 550.208H258.134M232.58 550.208V571.998M258.134 550.208H283.688M258.134 550.208V571.998M283.688 550.208H309.994M283.688 550.208V571.998M309.994 550.208H335.548M309.994 550.208V571.998M335.548 550.208H361.102M335.548 550.208V571.998M361.102 550.208H387.408M361.102 550.208V571.998M387.408 550.208H412.962M387.408 550.208V571.998M412.962 550.208H438.516M412.962 550.208V571.998M438.516 550.208H464.07M438.516 550.208V571.998M464.07 550.208V571.998M0.338002 571.998H26.6437M0.338002 571.998V593.787M26.6437 571.998H52.1978M26.6437 571.998V593.787M52.1978 571.998H77.7519M52.1978 571.998V593.787M77.7519 571.998H104.058M77.7519 571.998V593.787M104.058 571.998H129.612M104.058 571.998V593.787M129.612 571.998H155.166M129.612 571.998V593.787M155.166 571.998H180.72M155.166 571.998V593.787M180.72 571.998H207.026M180.72 571.998V593.787M207.026 571.998H232.58M207.026 571.998V593.787M232.58 571.998H258.134M232.58 571.998V593.787M258.134 571.998H283.688M258.134 571.998V593.787M283.688 571.998H309.994M283.688 571.998V593.787M309.994 571.998H335.548M309.994 571.998V593.787M335.548 571.998H361.102M335.548 571.998V593.787M361.102 571.998H387.408M361.102 571.998V593.787M387.408 571.998H412.962M387.408 571.998V593.787M412.962 571.998H438.516M412.962 571.998V593.787M438.516 571.998H464.07M438.516 571.998V593.787M464.07 571.998V593.787M0.338002 593.787H26.6437M0.338002 593.787V616.218M26.6437 593.787H52.1978M26.6437 593.787V616.218M52.1978 593.787H77.7519M52.1978 593.787V616.218M77.7519 593.787H104.058M77.7519 593.787V616.218M104.058 593.787H129.612M104.058 593.787V616.218M129.612 593.787H155.166M129.612 593.787V616.218M155.166 593.787H180.72M155.166 593.787V616.218M180.72 593.787H207.026M180.72 593.787V616.218M207.026 593.787H232.58M207.026 593.787V616.218M232.58 593.787H258.134M232.58 593.787V616.218M258.134 593.787H283.688M258.134 593.787V616.218M283.688 593.787H309.994M283.688 593.787V616.218M309.994 593.787H335.548M309.994 593.787V616.218M335.548 593.787H361.102M335.548 593.787V616.218M361.102 593.787H387.408M361.102 593.787V616.218M387.408 593.787H412.962M387.408 593.787V616.218M412.962 593.787H438.516M412.962 593.787V616.218M438.516 593.787H464.07M438.516 593.787V616.218M464.07 593.787V616.218M0.338002 616.218H26.6437M0.338002 616.218V638.008M26.6437 616.218H52.1978M26.6437 616.218V638.008M52.1978 616.218H77.7519M52.1978 616.218V638.008M77.7519 616.218H104.058M77.7519 616.218V638.008M104.058 616.218H129.612M104.058 616.218V638.008M129.612 616.218H155.166M129.612 616.218V638.008M155.166 616.218H180.72M155.166 616.218V638.008M180.72 616.218H207.026M180.72 616.218V638.008M207.026 616.218H232.58M207.026 616.218V638.008M232.58 616.218H258.134M232.58 616.218V638.008M258.134 616.218H283.688M258.134 616.218V638.008M283.688 616.218H309.994M283.688 616.218V638.008M309.994 616.218H335.548M309.994 616.218V638.008M335.548 616.218H361.102M335.548 616.218V638.008M361.102 616.218H387.408M361.102 616.218V638.008M387.408 616.218H412.962M387.408 616.218V638.008M412.962 616.218H438.516M412.962 616.218V638.008M438.516 616.218H464.07M438.516 616.218V638.008M464.07 616.218V638.008M0.338002 638.008H26.6437M0.338002 638.008V659.797M26.6437 638.008H52.1978M26.6437 638.008V659.797M52.1978 638.008H77.7519M52.1978 638.008V659.797M77.7519 638.008H104.058M77.7519 638.008V659.797M104.058 638.008H129.612M104.058 638.008V659.797M129.612 638.008H155.166M129.612 638.008V659.797M155.166 638.008H180.72M155.166 638.008V659.797M180.72 638.008H207.026M180.72 638.008V659.797M207.026 638.008H232.58M207.026 638.008V659.797M232.58 638.008H258.134M232.58 638.008V659.797M258.134 638.008H283.688M258.134 638.008V659.797M283.688 638.008H309.994M283.688 638.008V659.797M309.994 638.008H335.548M309.994 638.008V659.797M335.548 638.008H361.102M335.548 638.008V659.797M361.102 638.008H387.408M361.102 638.008V659.797M387.408 638.008H412.962M387.408 638.008V659.797M412.962 638.008H438.516M412.962 638.008V659.797M438.516 638.008H464.07M438.516 638.008V659.797M464.07 638.008V659.797M0.338002 659.797H26.6437M0.338002 659.797V682.228M26.6437 659.797H52.1978M26.6437 659.797V682.228M52.1978 659.797H77.7519M52.1978 659.797V682.228M77.7519 659.797H104.058M77.7519 659.797V682.228M104.058 659.797H129.612M104.058 659.797V682.228M129.612 659.797H155.166M129.612 659.797V682.228M155.166 659.797H180.72M155.166 659.797V682.228M180.72 659.797H207.026M180.72 659.797V682.228M207.026 659.797H232.58M207.026 659.797V682.228M232.58 659.797H258.134M232.58 659.797V682.228M258.134 659.797H283.688M258.134 659.797V682.228M283.688 659.797H309.994M283.688 659.797V682.228M309.994 659.797H335.548M309.994 659.797V682.228M335.548 659.797H361.102M335.548 659.797V682.228M361.102 659.797H387.408M361.102 659.797V682.228M387.408 659.797H412.962M387.408 659.797V682.228M412.962 659.797H438.516M412.962 659.797V682.228M438.516 659.797H464.07M438.516 659.797V682.228M464.07 659.797V682.228M0.338002 682.228H26.6437M0.338002 682.228V704.018M26.6437 682.228H52.1978M26.6437 682.228V704.018M52.1978 682.228H77.7519M52.1978 682.228V704.018M77.7519 682.228H104.058M77.7519 682.228V704.018M104.058 682.228H129.612M104.058 682.228V704.018M129.612 682.228H155.166M129.612 682.228V704.018M155.166 682.228H180.72M155.166 682.228V704.018M180.72 682.228H207.026M180.72 682.228V704.018M207.026 682.228H232.58M207.026 682.228V704.018M232.58 682.228H258.134M232.58 682.228V704.018M258.134 682.228H283.688M258.134 682.228V704.018M283.688 682.228H309.994M283.688 682.228V704.018M309.994 682.228H335.548M309.994 682.228V704.018M335.548 682.228H361.102M335.548 682.228V704.018M361.102 682.228H387.408M361.102 682.228V704.018M387.408 682.228H412.962M387.408 682.228V704.018M412.962 682.228H438.516M412.962 682.228V704.018M438.516 682.228H464.07M438.516 682.228V704.018M464.07 682.228V704.018M0.338002 704.018H26.6437M0.338002 704.018V725.807M26.6437 704.018H52.1978M26.6437 704.018V725.807M52.1978 704.018H77.7519M52.1978 704.018V725.807M77.7519 704.018H104.058M77.7519 704.018V725.807M104.058 704.018H129.612M104.058 704.018V725.807M129.612 704.018H155.166M129.612 704.018V725.807M155.166 704.018H180.72M155.166 704.018V725.807M180.72 704.018H207.026M180.72 704.018V725.807M207.026 704.018H232.58M207.026 704.018V725.807M232.58 704.018H258.134M232.58 704.018V725.807M258.134 704.018H283.688M258.134 704.018V725.807M283.688 704.018H309.994M283.688 704.018V725.807M309.994 704.018H335.548M309.994 704.018V725.807M335.548 704.018H361.102M335.548 704.018V725.807M361.102 704.018H387.408M361.102 704.018V725.807M387.408 704.018H412.962M387.408 704.018V725.807M412.962 704.018H438.516M412.962 704.018V725.807M438.516 704.018H464.07M438.516 704.018V725.807M464.07 704.018V725.807M0.338002 725.807H26.6437M0.338002 725.807V748.238M26.6437 725.807H52.1978M26.6437 725.807V748.238M52.1978 725.807H77.7519M52.1978 725.807V748.238M77.7519 725.807H104.058M77.7519 725.807V748.238M104.058 725.807H129.612M104.058 725.807V748.238M129.612 725.807H155.166M129.612 725.807V748.238M155.166 725.807H180.72M155.166 725.807V748.238M180.72 725.807H207.026M180.72 725.807V748.238M207.026 725.807H232.58M207.026 725.807V748.238M232.58 725.807H258.134M232.58 725.807V748.238M258.134 725.807H283.688M258.134 725.807V748.238M283.688 725.807H309.994M283.688 725.807V748.238M309.994 725.807H335.548M309.994 725.807V748.238M335.548 725.807H361.102M335.548 725.807V748.238M361.102 725.807H387.408M361.102 725.807V748.238M387.408 725.807H412.962M387.408 725.807V748.238M412.962 725.807H438.516M412.962 725.807V748.238M438.516 725.807H464.07M438.516 725.807V748.238M464.07 725.807V748.238M0.338002 748.238H26.6437M0.338002 748.238V770.028M26.6437 748.238H52.1978M26.6437 748.238V770.028M52.1978 748.238H77.7519M52.1978 748.238V770.028M77.7519 748.238H104.058M77.7519 748.238V770.028M104.058 748.238H129.612M104.058 748.238V770.028M129.612 748.238H155.166M129.612 748.238V770.028M155.166 748.238H180.72M155.166 748.238V770.028M180.72 748.238H207.026M180.72 748.238V770.028M207.026 748.238H232.58M207.026 748.238V770.028M232.58 748.238H258.134M232.58 748.238V770.028M258.134 748.238H283.688M258.134 748.238V770.028M283.688 748.238H309.994M283.688 748.238V770.028M309.994 748.238H335.548M309.994 748.238V770.028M335.548 748.238H361.102M335.548 748.238V770.028M361.102 748.238H387.408M361.102 748.238V770.028M387.408 748.238H412.962M387.408 748.238V770.028M412.962 748.238H438.516M412.962 748.238V770.028M438.516 748.238H464.07M438.516 748.238V770.028M464.07 748.238V770.028M0.338002 770.028H26.6437M0.338002 770.028V791.817M26.6437 770.028H52.1978M26.6437 770.028V791.817M52.1978 770.028H77.7519M52.1978 770.028V791.817M77.7519 770.028H104.058M77.7519 770.028V791.817M104.058 770.028H129.612M104.058 770.028V791.817M129.612 770.028H155.166M129.612 770.028V791.817M155.166 770.028H180.72M155.166 770.028V791.817M180.72 770.028H207.026M180.72 770.028V791.817M207.026 770.028H232.58M207.026 770.028V791.817M232.58 770.028H258.134M232.58 770.028V791.817M258.134 770.028H283.688M258.134 770.028V791.817M283.688 770.028H309.994M283.688 770.028V791.817M309.994 770.028H335.548M309.994 770.028V791.817M335.548 770.028H361.102M335.548 770.028V791.817M361.102 770.028H387.408M361.102 770.028V791.817M387.408 770.028H412.962M387.408 770.028V791.817M412.962 770.028H438.516M412.962 770.028V791.817M438.516 770.028H464.07M438.516 770.028V791.817M464.07 770.028V791.817M0.338002 791.817H26.6437M0.338002 791.817V813.607H26.6437M26.6437 791.817H52.1978M26.6437 791.817V813.607M52.1978 791.817H77.7519M52.1978 791.817V813.607M77.7519 791.817H104.058M77.7519 791.817V813.607M104.058 791.817H129.612M104.058 791.817V813.607M129.612 791.817H155.166M129.612 791.817V813.607M155.166 791.817H180.72M155.166 791.817V813.607M180.72 791.817H207.026M180.72 791.817V813.607M207.026 791.817H232.58M207.026 791.817V813.607M232.58 791.817H258.134M232.58 791.817V813.607M258.134 791.817H283.688M258.134 791.817V813.607M283.688 791.817H309.994M283.688 791.817V813.607M309.994 791.817H335.548M309.994 791.817V813.607M335.548 791.817H361.102M335.548 791.817V813.607M361.102 791.817H387.408M361.102 791.817V813.607M387.408 791.817H412.962M387.408 791.817V813.607M412.962 791.817H438.516M412.962 791.817V813.607M438.516 791.817H464.07M438.516 791.817V813.607M464.07 791.817V813.607M26.6437 813.607H52.1978M52.1978 813.607H77.7519M77.7519 813.607H104.058M104.058 813.607H129.612M129.612 813.607H155.166M155.166 813.607H180.72M180.72 813.607H207.026M207.026 813.607H232.58M232.58 813.607H258.134M258.134 813.607H283.688M283.688 813.607H309.994M309.994 813.607H335.548M335.548 813.607H361.102M361.102 813.607H387.408M387.408 813.607H412.962M412.962 813.607H438.516M438.516 813.607H464.07" stroke="url(#paint0_linear_6042_688)" stroke-opacity="0.4" stroke-width="0.676058"/>
<defs>
<linearGradient id="paint0_linear_6042_688" x1="664.558" y1="316.443" x2="-53.7232" y2="202.478" gradientUnits="userSpaceOnUse">
<stop stop-opacity="0"/>
<stop offset="0.090891" stop-color="white" stop-opacity="0.15"/>
<stop offset="1" stop-opacity="0"/>
</linearGradient>
</defs>
</svg>
